<svg xmlns="http://www.w3.org/2000/svg" width="266" height="133" fill="none" viewBox="0 0 266 133"><g clip-path="url(#a)"><path fill="#007fc3" d="M214.156 49.103a.36.36 0 0 1-.448.191l-2.71-.976a.365.365 0 0 1-.224-.435l3.895-14.057a.304.304 0 0 1 .402-.209l4.859 1.753c.173.063.252.25.178.418z"/><path fill="#0096d1" d="M219.064 53.833a.327.327 0 0 1-.435-.052l-1.907-2.252a.326.326 0 0 1 .02-.436l8.276-8.122a.273.273 0 0 1 .406.02l3.047 3.596a.274.274 0 0 1-.047.404z"/><path fill="#58acda" d="M220.624 60.539a.28.28 0 0 1-.299-.228l-.515-2.989a.284.284 0 0 1 .207-.318l8.376-2.026a.24.24 0 0 1 .295.194l.721 4.19a.24.24 0 0 1-.213.28z"/><path fill="#007fc3" d="M78.989 94.711c-.159-.412-2.053-5.2-2.112-5.433 0-.455-.006-50.574-.01-50.895.011-.34-.229-.475-1-.283-.333.083-7.648 1.624-7.648 1.624-2.038.565-2.59 1.527-2.59 3.907.002-.002 0 11.732 0 11.732l-8.77-.001c-7.73 0-16.047 6.63-16.047 20.926 0 11.625 6.201 19.437 15.429 19.437h22.324c.62 0 .578-.613.424-1.014m-13.337-5.453s-5.882.088-7.095-.1c-4.314-.67-7.03-4.425-7.037-13.867v-.036c.007-9.442 2.723-13.195 7.037-13.866 1.213-.189 7.095-.1 7.095-.1zm104.187 5.453c-.158-.412-2.053-5.2-2.112-5.433 0-.455-.006-50.574-.01-50.895.012-.34-.228-.475-.999-.283-.334.083-7.649 1.624-7.649 1.624-2.038.565-2.59 1.527-2.59 3.907.002-.002 0 11.732 0 11.732l-8.769-.001c-7.73 0-16.047 6.63-16.047 20.926 0 11.625 6.2 19.437 15.429 19.437h22.323c.62 0 .578-.613.424-1.014m-13.337-5.453s-5.881.088-7.095-.1c-4.314-.67-7.028-4.425-7.036-13.867h-.001v-.036h.001c.008-9.442 2.722-13.195 7.036-13.866 1.214-.189 7.095-.1 7.095-.1zm58.386 5.477c-.318-.884-2.121-5.469-2.121-5.469.003-.299.041-32.788.041-32.788 0-.638-.519-1.158-1.156-1.158h-19.058c-7.728 0-16.046 6.644-16.046 20.94 0 11.626 6.201 19.465 15.428 19.465h22.398c.391 0 .804-.186.514-.99m-12.769-5.421h-6.018c-5.719 0-9.407-4.613-9.41-14.05v-.007c.003-9.436 3.691-14.049 9.41-14.049h6.018zM117.15 57.15c-2.51-1.694-5.964-3.448-11.805-3.448h-.072c-5.842 0-9.294 1.754-11.806 3.447-2.828 1.91-6.394 5.912-6.394 17.553 0 8.376 1.66 13.485 3.258 15.518 1.647 2.094 5.472 6.404 14.942 6.404h.072c9.468 0 13.565-4.709 14.941-6.404 1.649-2.033 3.259-7.142 3.259-15.518 0-11.64-3.566-15.643-6.395-17.553m-11.819 2.496c.01 0 .018 0-.012.002-.031-.002.006-.002.012-.002m7.288 22.482c-.535 5.407-3.396 7.13-7.297 7.168-3.903-.038-6.764-1.76-7.3-7.168-.357-3.601-.272-4.873-.272-7.705 0-2.83-.085-3.954.272-7.556.536-5.407 3.397-7.13 7.297-7.169 3.904.038 6.765 1.762 7.3 7.17.358 3.6.271 4.873.271 7.703 0 2.832.087 3.956-.271 7.557"/></g><defs><clipPath id="a"><path fill="#fff" d="M14 15h233v111H14z"/></clipPath></defs></svg>