<svg xmlns="http://www.w3.org/2000/svg" width="266" height="133" fill="none" viewBox="0 0 266 133"><g clip-path="url(#a)"><path fill="#969799" d="M179.465 34.454c-6.662.065-12.012 5.518-11.947 12.18.065 6.663 5.518 12.013 12.18 11.948 6.616-.065 11.947-5.444 11.947-12.06 0-6.662-5.397-12.059-12.059-12.059h-.112zm0 20.331c-4.373 0-7.928-3.703-7.928-8.272 0-4.568 3.546-8.272 7.928-8.272 4.383 0 7.928 3.703 7.928 8.272s-3.545 8.272-7.928 8.272m-98.883-6.513h11.65V44.54h-11.65v-5.964h13.055v-3.703H76.386V58.18H93.87v-3.703H80.582V48.27m127.608 6.18V34.873h-4.197V58.18h16.321v-3.73zM55.756 34.863h-9.202v23.31h4.196v-7.454h5.016c5.07 0 8.737-3.545 8.737-7.928s-2.68-7.928-8.737-7.928m-.345 12.125H50.76v-8.393h4.661c3.452 0 5.016 1.88 5.016 4.196 0 2.317-1.805 4.197-5.016 4.197m70.839-4.197c0-4.373-2.68-7.928-8.738-7.928h-9.202v23.31h4.196v-7.454h4.569l5.22 7.462h4.894l-5.769-8.244a7.77 7.77 0 0 0 4.839-7.137m-9.091 4.197h-4.662v-8.393h4.662c3.452 0 5.015 1.88 5.015 4.196 0 2.317-1.805 4.197-5.015 4.197m36.485-.679c-1.48-.95-3.276-1.442-5.472-1.991-3.973-.996-4.606-1.712-4.606-3.043 0-2.01 1.955-2.912 3.89-2.912 2.81 0 5.201 1.349 6.374 2.158a11.5 11.5 0 0 1 2.019 1.722v-5.137a15.54 15.54 0 0 0-8.393-2.707c-4.55 0-7.853 2.893-7.853 6.876 0 4.978 4.764 6.17 7.602 6.886 4.41 1.107 5.424 1.786 5.424 3.6a2.15 2.15 0 0 1-1.051 2.001 7.1 7.1 0 0 1-3.657.8c-3.368 0-7.044-2.428-8.16-3.535v4.913c.065.046.139.083.214.13 1.544.912 4.634 2.456 7.946 2.456 5.35 0 8.672-2.586 8.672-6.755a6.11 6.11 0 0 0-2.949-5.453"/><path fill="#164fb8" d="M126.26 74.903c0-4.373-2.68-7.928-8.738-7.928h-9.202v23.309h4.196V82.83h4.569l5.22 7.462h4.894l-5.769-8.244a7.77 7.77 0 0 0 4.839-7.137m-9.091 4.197h-4.662v-8.393h4.662c3.452 0 5.015 1.88 5.015 4.196 0 2.317-1.805 4.197-5.015 4.197M46.554 66.956h4.364l7.1 11.036 7.099-11.036h4.364v23.328h-4.103v-16.73l-7.37 10.998h-.13l-7.295-10.934v16.666h-4.03zm40.281 0h4.103v23.328h-4.103zm63.162-.167h3.796l10.263 23.495h-4.336l-2.363-5.63h-11.036l-2.4 5.63h-4.197l10.263-23.495zm5.862 14.236-4.029-9.333-4.001 9.333zm23.169-14.069h4.103v23.328h-4.103z"/><path fill="#003cad" d="m201.211 87.25 13.762-16.665h-13.334v-3.629h18.666v3.033l-13.762 16.665h13.762v3.63h-19.094z"/></g><defs><clipPath id="a"><path fill="#fff" d="M15 14h236v104H15z"/></clipPath></defs></svg>