<svg xmlns="http://www.w3.org/2000/svg" width="42" height="42" fill="none" viewBox="0 0 42 42"><path fill="#333" d="m4.428 6 33.829 12.313-.684 1.88L3.743 7.878z"/><path fill="#333" d="M3.352 18.313 37.182 6l.683 1.88L4.036 20.191zm5.523 9.657a3.6 3.6 0 0 0-1.442.28q-.644.266-1.092.798-.447.518-.686 1.274a5.5 5.5 0 0 0-.238 1.68q0 1.231.378 2.142.392.91 1.148 1.4.77.49 1.918.49a6.7 6.7 0 0 0 1.246-.112q.588-.112 1.148-.28v1.092q-.56.21-1.162.308a9 9 0 0 1-1.414.098q-1.525 0-2.548-.63-1.02-.63-1.54-1.792-.504-1.163-.504-2.73 0-1.134.308-2.072a4.8 4.8 0 0 1 .924-1.624q.616-.686 1.512-1.05.897-.378 2.058-.378.77 0 1.484.154t1.274.434l-.504 1.064a8 8 0 0 0-1.036-.378 4.3 4.3 0 0 0-1.232-.168M14.501 37H13.27V26.36h1.232zm8.902-3.766q0 .937-.252 1.666a3.3 3.3 0 0 1-.7 1.218 2.9 2.9 0 0 1-1.107.77q-.644.252-1.442.252a3.7 3.7 0 0 1-1.372-.252 3.1 3.1 0 0 1-1.091-.77 3.7 3.7 0 0 1-.729-1.218q-.252-.727-.252-1.666 0-1.245.42-2.1a2.95 2.95 0 0 1 1.204-1.316q.784-.462 1.863-.462 1.02 0 1.791.462.785.448 1.218 1.316.449.855.448 2.1m-5.67 0q0 .882.223 1.54.24.644.729.994.49.35 1.245.35.757 0 1.247-.35t.713-.994q.239-.658.238-1.54 0-.896-.238-1.526-.237-.63-.727-.966-.477-.35-1.247-.35-1.147 0-1.666.756-.517.756-.517 2.086m12.508 1.694q0 .727-.364 1.218-.364.49-1.036.742t-1.596.252q-.784 0-1.358-.126a4.2 4.2 0 0 1-.994-.35v-1.12q.448.225 1.078.42.644.182 1.302.182.938 0 1.358-.294a.96.96 0 0 0 .42-.812.87.87 0 0 0-.154-.504q-.155-.225-.56-.448a8 8 0 0 0-1.134-.504q-.727-.28-1.246-.56-.517-.28-.798-.672-.28-.392-.28-1.008 0-.953.77-1.47.784-.518 2.044-.518.686 0 1.274.14.602.126 1.12.364l-.42.98a4.6 4.6 0 0 0-.658-.238 4.3 4.3 0 0 0-.686-.168 3.6 3.6 0 0 0-.714-.07q-.756 0-1.162.252-.392.238-.392.658 0 .308.182.532.182.21.602.42.435.196 1.148.476.714.266 1.218.546t.77.686q.266.392.266.994m4.711-5.572q.966 0 1.652.42.7.42 1.064 1.19.378.756.378 1.778v.742h-5.138q.029 1.274.644 1.946.63.658 1.75.658a5.6 5.6 0 0 0 1.26-.126 7.6 7.6 0 0 0 1.148-.392v1.078q-.573.253-1.134.364a6 6 0 0 1-1.33.126q-1.065 0-1.89-.434a3.1 3.1 0 0 1-1.274-1.288q-.447-.868-.448-2.114 0-1.232.406-2.114.42-.881 1.162-1.358.756-.476 1.75-.476m-.014 1.008q-.882 0-1.4.574-.503.56-.602 1.568h3.822q0-.645-.196-1.12a1.6 1.6 0 0 0-.602-.742q-.392-.28-1.022-.28"/></svg>