<svg xmlns="http://www.w3.org/2000/svg" width="300" height="150" fill="none" viewBox="0 0 300 150"><g stroke="#bbbcbc" stroke-linecap="round" stroke-linejoin="round" stroke-width="3" style="mix-blend-mode:multiply"><path d="M107.615 101.447h-3.872c-2.392 0-4.295-1.894-4.295-4.27V76.035c0-3.836 3.107-6.902 6.995-6.902h20.044c3.872 0 6.995 3.066 6.995 6.903v21.141c0 2.376-1.936 4.27-4.327 4.27h-3.856"/><path d="m125.836 78.925-1.22 50.678h-16.318l-1.22-50.678m9.371 24.127v26.551m8.086-72.462c0-4.414-3.628-7.978-8.086-7.978s-8.086 3.58-8.086 7.978c0 4.399 3.628 7.979 8.086 7.979s8.086-3.58 8.086-7.979m17.131 44.306h-3.872c-2.392 0-4.295-1.894-4.295-4.27V76.035c0-3.836 3.107-6.902 6.996-6.902h20.043c3.872 0 6.996 3.066 6.996 6.903v21.141c0 2.376-1.936 4.27-4.328 4.27h-3.856"/><path d="m159.871 78.925-1.204 50.678h-16.334l-1.204-50.678m9.371 24.127v26.551m8.086-72.462c0-4.414-3.628-7.978-8.086-7.978-4.457 0-8.085 3.58-8.085 7.978 0 4.399 3.628 7.979 8.085 7.979s8.086-3.58 8.086-7.979m17.115 44.306h-3.872c-2.392 0-4.295-1.894-4.295-4.27V76.035c0-3.836 3.107-6.902 6.995-6.902h20.044c3.872 0 6.995 3.066 6.995 6.903v21.141c0 2.376-1.936 4.27-4.327 4.27h-3.856"/><path d="m193.922 78.925-1.22 50.678h-16.318l-1.22-50.678m9.387 24.127v26.551m8.07-72.462c0-4.414-3.628-7.978-8.086-7.978s-8.086 3.58-8.086 7.978c0 4.399 3.628 7.979 8.086 7.979s8.086-3.58 8.086-7.979m-42.137 7.979v3.339q0 .337-.049.674m-33.986-4.013v3.339q0 .337.049.674m-.049-19.986v-1.846c0-3.837 3.124-6.919 7.012-6.919h20.044c3.855 0 6.995 3.083 6.995 6.92v1.845m-8.948-20.757c0-4.414-3.628-7.977-8.085-7.977s-8.086 3.58-8.086 7.978 3.628 7.978 8.086 7.978c4.457 0 8.085-3.58 8.085-7.978m42.983 36.729v3.339q0 .337-.049.674m-34.002-4.013v3.339q0 .337.049.674"/><path d="M150.484 49.147v-1.846c0-3.837 3.124-6.919 7.012-6.919h20.043c3.872 0 7.012 3.083 7.012 6.92v1.845m-8.948-20.757c0-4.414-3.628-7.977-8.086-7.977-4.457 0-8.085 3.58-8.085 7.978s3.628 7.978 8.085 7.978 8.086-3.58 8.086-7.978"/></g></svg>