<svg xmlns="http://www.w3.org/2000/svg" width="300" height="150" fill="none" viewBox="0 0 300 150"><g clip-path="url(#a)" style="mix-blend-mode:multiply"><path stroke="#bbbcbc" stroke-linecap="round" stroke-linejoin="round" stroke-width="3" d="M105.173 37.49H57.165v81.482h48.008z"/><path stroke="#bbbcbc" stroke-linecap="round" stroke-linejoin="round" stroke-width="3" d="M77.737 47.708H66.951v10.715h10.786zm0 16.936H66.951V75.36h10.786zm0 16.936H66.951v10.715h10.786zm17.63-33.872H84.581v10.715h10.786zm0 16.936H84.581V75.36h10.786zm0 16.936H84.581v10.715h10.786zm-44.866 37.333h61.216M243.955 37.49h-48.008v81.482h48.008z"/><path stroke="#bbbcbc" stroke-linecap="round" stroke-linejoin="round" stroke-width="3" d="M216.519 47.708h-10.787v10.715h10.787zm0 16.936h-10.787V75.36h10.787zm0 16.936h-10.787v10.715h10.787zm17.65-33.872h-10.786v10.715h10.786zm0 16.936h-10.786V75.36h10.786zm0 16.936h-10.786v10.715h10.786zm-44.886 37.333h61.216M142.355 93.389h-3.582a3.95 3.95 0 0 1-3.962-3.956v-19.62c0-3.558 2.861-6.4 6.443-6.4h18.471c3.562 0 6.444 2.842 6.444 6.4v19.62c0 2.206-1.781 3.956-3.982 3.956h-3.542"/><path stroke="#bbbcbc" stroke-linecap="round" stroke-linejoin="round" stroke-width="3" d="m159.145 72.477-1.121 47.032h-15.049l-1.121-47.032M150.5 94.88v24.629m7.164-68.739c0-3.936-3.222-7.137-7.184-7.137s-7.185 3.2-7.185 7.137 3.222 7.136 7.185 7.136 7.184-3.2 7.184-7.136"/><path fill="#bbbcbc" d="m125.085 77.446-7.364-5.526c-.661-.497-1.601-.02-1.601.795v11.053c0 .815.94 1.292 1.601.795l7.364-5.526c.52-.398.52-1.193 0-1.59m60.156-.001-7.365-5.526c-.66-.497-1.601-.02-1.601.795v11.053c0 .815.941 1.292 1.601.795l7.365-5.526c.52-.398.52-1.193 0-1.59"/></g><defs><clipPath id="a"><path fill="#fff" d="M49 36h203v85H49z"/></clipPath></defs></svg>