<svg xmlns="http://www.w3.org/2000/svg" viewBox="0 0 384.393 182.833"><path fill="#007fc3" d="M330.209 56.173a.6.6 0 0 1-.74.315l-4.47-1.608a.6.6 0 0 1-.37-.716l6.426-23.155a.502.502 0 0 1 .664-.343l8.015 2.886a.505.505 0 0 1 .293.69z"/><path fill="#0096d1" d="M338.305 63.964a.54.54 0 0 1-.717-.086l-3.147-3.709a.534.534 0 0 1 .034-.718l13.652-13.38a.45.45 0 0 1 .67.034l5.027 5.924a.45.45 0 0 1-.078.666z"/><path fill="#58acda" d="M340.879 75.009a.46.46 0 0 1-.494-.375l-.85-4.924a.467.467 0 0 1 .342-.523l13.818-3.338a.395.395 0 0 1 .487.32l1.19 6.9a.39.39 0 0 1-.353.462z"/><path fill="#007fc3" d="M107.215 131.296c-.261-.68-3.386-8.567-3.484-8.95 0-.75-.01-83.302-.016-83.83.019-.561-.378-.784-1.649-.468-.55.137-12.618 2.676-12.618 2.676-3.362.93-4.274 2.516-4.274 6.436.004-.004 0 19.324 0 19.324l-14.468-.002c-12.75 0-26.472 10.92-26.472 34.468 0 19.149 10.23 32.016 25.453 32.016h36.829c1.024 0 .953-1.01.699-1.67m-22.002-8.983s-9.704.145-11.705-.166c-7.117-1.103-11.597-7.287-11.61-22.84v-.058c.013-15.553 4.493-21.734 11.61-22.84 2-.31 11.705-.166 11.705-.166zm171.883 8.983c-.26-.68-3.387-8.567-3.485-8.95 0-.75-.01-83.302-.015-83.83.02-.561-.377-.784-1.649-.468-.55.137-12.619 2.676-12.619 2.676-3.361.93-4.273 2.516-4.273 6.436.004-.004 0 19.324 0 19.324l-14.467-.002c-12.752 0-26.473 10.92-26.473 34.468 0 19.149 10.229 32.016 25.453 32.016h36.828c1.024 0 .954-1.01.7-1.67m-22.002-8.983s-9.703.145-11.705-.166c-7.118-1.103-11.596-7.287-11.608-22.84h-.002v-.058h.002c.012-15.553 4.49-21.734 11.608-22.84 2.002-.31 11.705-.166 11.705-.166zm96.322 9.022c-.525-1.455-3.5-9.008-3.5-9.008.006-.492.068-54.007.068-54.007a1.91 1.91 0 0 0-1.906-1.906h-31.441c-12.75 0-26.473 10.942-26.473 34.491 0 19.149 10.23 32.06 25.453 32.06h36.951c.645 0 1.326-.306.848-1.63m-21.066-8.93h-9.928c-9.436 0-15.52-7.597-15.523-23.14v-.012c.003-15.543 6.087-23.14 15.523-23.14h9.928zm-140.178-52.98c-4.14-2.789-9.839-5.677-19.474-5.677h-.12c-9.638 0-15.333 2.888-19.476 5.677-4.667 3.147-10.55 9.738-10.55 28.912 0 13.797 2.74 22.213 5.376 25.56 2.716 3.45 9.028 10.55 24.65 10.55h.12c15.618 0 22.379-7.757 24.648-10.55 2.72-3.347 5.377-11.763 5.377-25.56 0-19.174-5.884-25.765-10.55-28.912m-19.498 4.114c.016 0 .03 0-.02.001-.051-.001.01-.001.02-.001m12.024 37.03c-.883 8.907-5.604 11.744-12.04 11.807-6.439-.062-11.159-2.9-12.043-11.807-.587-5.931-.447-8.027-.447-12.691 0-4.662-.14-6.514.447-12.445.884-8.907 5.604-11.747 12.04-11.809 6.44.063 11.16 2.902 12.043 11.809.59 5.931.447 8.027.447 12.69s.143 6.515-.447 12.446"/><path fill="none" d="M0 0h384.393v182.833H0z"/></svg>