<svg xmlns="http://www.w3.org/2000/svg" xmlns:xlink="http://www.w3.org/1999/xlink" xml:space="preserve" style="overflow:visible" viewBox="0 0 2849.2 857.6"><defs><path id="a" d="M4.7 5h2840v848H4.7z"/></defs><defs><path id="c" d="M317.5 813.1c-180.8-346-180.8-529.9 0-551.8s357.5-1.7 530.1 60.4C815.8 118.5 614.1 13 242.5 5.1c-339.9-7.2-315 262.2 75 808"/></defs><defs><path id="e" d="M4.8 5.2h2839.9v847.9H4.8z"/></defs><clipPath id="b"><use xlink:href="#a" style="overflow:visible"/></clipPath><clipPath id="d" style="clip-path:url(#b)"><use xlink:href="#c" style="overflow:visible"/></clipPath><clipPath id="f" style="clip-path:url(#d)"><use xlink:href="#e" style="overflow:visible"/></clipPath><path d="M0 0h852.5v818.1H0z" style="clip-path:url(#f);fill:#1e5093"/><defs><path id="g" d="M4.7 5h2840v848H4.7z"/></defs><defs><path id="i" d="M318.7 261C164.5 151.8 60.6 129.5 6.9 194.1c-12.7-127 65.8-190 235.6-189 103.8.6 182.2 12.1 272.7 30.5 197.8 42.6 309.6 138.6 333 286.5-48.2-17.3-133.5-47.2-238.6-58.3-105-11-173.7-13.9-290.9-2.8"/></defs><defs><path id="k" d="M4.8 5.2h2839.9v847.9H4.8z"/></defs><clipPath id="h"><use xlink:href="#g" style="overflow:visible"/></clipPath><clipPath id="j" style="clip-path:url(#h)"><use xlink:href="#i" style="overflow:visible"/></clipPath><clipPath id="l" style="clip-path:url(#j)"><use xlink:href="#k" style="overflow:visible"/></clipPath><path d="M.6.1h852.7v327H.6z" style="clip-path:url(#l);fill:#3778c8"/><defs><path id="m" d="M4.7 5h2840v848H4.7z"/></defs><defs><path id="o" d="M697.3 852.6C598.6 567.5 471.9 370.3 317.5 261c97-11.5 311.2-24 530.8 60.8 14.1 89.2-36.2 266.2-151 530.8"/></defs><clipPath id="n"><use xlink:href="#m" style="overflow:visible"/></clipPath><clipPath id="p" style="clip-path:url(#n)"><use xlink:href="#o" style="overflow:visible"/></clipPath><path d="M312.5 247.8h543.1v609.8H312.5z" style="clip-path:url(#p);fill:#73b2fd"/><defs><path id="q" d="M4.7 5h2840v848H4.7z"/></defs><defs><path id="s" d="M1076.1 288.7h32.4v99.1h124v-99.1h32.4v238.7h-32.4V418.2h-124v109.2h-32.4zm250.2 0h84.1c15.3 0 27.9 2.1 37.8 6.2 9.9 4.2 17.7 9.4 23.5 15.8s9.7 13.6 12 21.6 3.4 15.7 3.4 23.1c0 7.6-1.4 15-4.1 22.1q-4.05 10.65-11.7 19.2c-5.1 5.7-11.3 10.6-18.6 14.5s-15.5 6.4-24.5 7.2l67.9 108.9h-40.5l-60.8-105.2h-36.1v105.2h-32.4zm32.5 105.2h42.6c6.3 0 12.6-.5 18.7-1.5 6.2-1 11.7-2.9 16.5-5.6s8.7-6.6 11.7-11.6c2.9-5.1 4.4-11.6 4.4-19.7s-1.5-14.7-4.4-19.7c-2.9-5.1-6.8-8.9-11.7-11.6-4.8-2.7-10.4-4.6-16.5-5.6-6.2-1-12.4-1.5-18.7-1.5h-42.6zm274.9 83.7c5.9 8.8 13.3 15.2 22.5 19.4 9.1 4.2 18.5 6.2 28.2 6.2 5.4 0 10.9-.8 16.5-2.5s10.8-4.2 15.4-7.6 8.4-7.5 11.3-12.5c2.9-4.9 4.4-10.7 4.4-17.2 0-9.2-2.9-16.2-8.8-21.1-5.9-4.8-13.1-8.9-21.8-12.1-8.7-3.3-18.1-6.4-28.4-9.4-10.2-3-19.7-7.2-28.4-12.6s-15.9-12.6-21.8-21.7-8.8-21.4-8.8-36.9c0-7 1.5-14.4 4.6-22.3q4.5-11.85 14.4-21.6c6.5-6.5 14.9-12 25.2-16.4 10.2-4.4 22.6-6.6 37-6.6q19.65 0 37.5 5.4c11.9 3.6 22.4 10.9 31.4 21.9l-26.3 23.9c-4.1-6.3-9.8-11.4-17.2-15.2s-15.9-5.7-25.3-5.7c-9 0-16.5 1.2-22.5 3.5-6 2.4-10.8 5.4-14.4 9.1s-6.1 7.7-7.6 12-2.2 8.2-2.2 11.8c0 10.1 2.9 17.9 8.8 23.3s13.1 9.8 21.8 13.1 18.1 6.4 28.4 9.1c10.2 2.7 19.7 6.5 28.4 11.3s15.9 11.4 21.8 19.6 8.8 19.5 8.8 33.9c0 11.5-2.2 21.8-6.6 31s-10.3 17-17.7 23.3-16.2 11.1-26.3 14.5-20.9 5.1-32.4 5.1c-15.3 0-29.8-2.7-43.6-8.1-13.7-5.4-24.7-13.7-32.8-25zm172.9-110h30.4v22.9h.7c5.9-8.5 13.9-15.2 24.1-19.9s20.8-7.1 31.6-7.1c12.4 0 23.6 2.1 33.6 6.4s18.6 10.2 25.7 17.9c7.1 7.6 12.6 16.6 16.4 26.8s5.7 21.2 5.7 32.9c0 11.9-1.9 23-5.7 33.2s-9.3 19.1-16.4 26.6-15.6 13.4-25.7 17.7c-10 4.3-21.2 6.4-33.6 6.4q-17.25 0-32.4-7.2c-10.1-4.8-17.9-11.4-23.3-19.7h-.7v118h-30.4zm83.1 24.3c-8.1 0-15.4 1.4-22 4.2-6.5 2.8-12 6.6-16.5 11.5-4.5 4.8-8 10.7-10.5 17.5s-3.7 14.3-3.7 22.4 1.2 15.6 3.7 22.4c2.5 6.9 6 12.7 10.5 17.5s10 8.7 16.5 11.5 13.8 4.2 22 4.2 15.4-1.4 22-4.2c6.5-2.8 12-6.6 16.5-11.5 4.5-4.8 8-10.7 10.5-17.5 2.5-6.9 3.7-14.3 3.7-22.4s-1.2-15.6-3.7-22.4c-2.5-6.9-6-12.7-10.5-17.5s-10-8.7-16.5-11.5c-6.6-2.8-13.9-4.2-22-4.2m124-4.7q12.9-11.85 29.7-17.7c11.3-3.9 22.5-5.9 33.8-5.9 11.7 0 21.8 1.5 30.2 4.4s15.4 6.9 20.8 11.8 9.4 10.6 12 17q3.9 9.6 3.9 20.1v81.6c0 5.6.1 10.8.3 15.5s.6 9.2 1 13.5h-27c-.7-8.1-1-16.2-1-24.3h-.7c-6.8 10.3-14.7 17.6-24 21.9-9.2 4.3-19.9 6.4-32.1 6.4q-11.1 0-21.3-3c-6.8-2-12.7-5.1-17.7-9.1q-7.65-6-12-15c-2.9-6-4.4-12.9-4.4-20.7 0-10.3 2.3-19 6.9-26s10.9-12.6 18.9-17 17.3-7.5 28-9.4 22.1-2.9 34.3-2.9h22.3v-6.7c0-4-.8-8.1-2.4-12.1s-3.9-7.7-7.1-11-7.1-5.8-11.8-7.8c-4.7-1.9-10.4-2.9-16.9-2.9-5.9 0-11 .6-15.4 1.7q-6.6 1.65-12 4.2c-3.6 1.7-6.9 3.7-9.8 5.9s-5.7 4.4-8.4 6.4zm85.7 63.4c-7.2 0-14.6.4-22.1 1.2s-14.4 2.3-20.6 4.6c-6.2 2.2-11.3 5.4-15.2 9.4s-5.9 9.2-5.9 15.5c0 9.2 3.1 15.8 9.3 19.9 6.2 4 14.6 6.1 25.2 6.1q12.45 0 21.3-4.2c5.9-2.8 10.6-6.5 14.2-11q5.4-6.75 7.8-15c2.4-8.25 2.4-11 2.4-16.4v-10.1zm88.9-83h30.4v24.6h.7c3.8-8.5 10.5-15.5 19.9-20.7 9.5-5.3 20.4-7.9 32.8-7.9 7.7 0 15 1.2 22.1 3.5 7.1 2.4 13.3 6 18.6 11 5.3 4.9 9.5 11.3 12.7 19.1s4.7 16.9 4.7 27.5v102.8h-30.4v-94.4c0-7.4-1-13.8-3-19.1s-4.7-9.6-8.1-12.8c-3.4-3.3-7.3-5.6-11.7-7.1s-9-2.2-13.7-2.2c-6.3 0-12.2 1-17.6 3s-10.1 5.2-14.2 9.6-7.2 9.9-9.5 16.7c-2.3 6.7-3.4 14.7-3.4 23.9v82.3h-30.4V367.6zm187.8 0h30.4v24.6h.7c3.8-8.5 10.5-15.5 19.9-20.7 9.5-5.3 20.4-7.9 32.8-7.9 7.7 0 15 1.2 22.1 3.5 7.1 2.4 13.3 6 18.6 11 5.3 4.9 9.5 11.3 12.7 19.1s4.7 16.9 4.7 27.5v102.8h-30.4v-94.4c0-7.4-1-13.8-3-19.1s-4.7-9.6-8.1-12.8c-3.4-3.3-7.3-5.6-11.7-7.1s-9-2.2-13.7-2.2c-6.3 0-12.2 1-17.6 3s-10.1 5.2-14.2 9.6-7.2 9.9-9.5 16.7c-2.3 6.7-3.4 14.7-3.4 23.9v82.3H2376V367.6zm210.7 91.1c0 7 1.5 13.3 4.6 19.1q4.5 8.55 12 14.7c5 4 10.7 7.2 17.2 9.4s13.3 3.4 20.3 3.4c9.5 0 17.7-2.2 24.7-6.6s13.4-10.2 19.3-17.4l23 17.5c-16.9 21.8-40.5 32.7-70.9 32.7-12.6 0-24-2.1-34.3-6.4-10.2-4.3-18.9-10.2-26-17.7s-12.6-16.4-16.4-26.6-5.7-21.3-5.7-33.2 2.1-23 6.2-33.2 9.9-19.1 17.2-26.6 16-13.4 26.2-17.7c10.1-4.3 21.2-6.4 33.1-6.4 14.2 0 26.2 2.5 36 7.4s17.8 11.4 24.1 19.4 10.9 17 13.7 27 4.2 20.2 4.2 30.5v10.8h-128.5zm95.9-24.3c-.2-6.7-1.3-12.9-3.2-18.5s-4.8-10.5-8.6-14.7-8.6-7.4-14.4-9.8c-5.7-2.4-12.4-3.5-20.1-3.5q-11.1 0-20.4 4.2c-6.2 2.8-11.4 6.5-15.7 11s-7.6 9.5-10 15-3.5 11-3.5 16.4h95.9zm68.9-66.8h30.4v24.6h.7c2-4.3 4.7-8.1 8.1-11.6s7.1-6.5 11.3-8.9 8.7-4.4 13.7-5.9 9.9-2.2 14.9-2.2 9.5.7 13.5 2l-1.4 32.7c-2.5-.7-5-1.2-7.4-1.7-2.5-.4-5-.7-7.4-.7-14.9 0-26.2 4.2-34.1 12.5s-11.8 21.2-11.8 38.8v80.2h-30.4V367.6z"/></defs><clipPath id="r"><use xlink:href="#q" style="overflow:visible"/></clipPath><clipPath id="t" style="clip-path:url(#r)"><use xlink:href="#s" style="overflow:visible"/></clipPath><path d="M1071.1 277.7h1778.1v349.9H1071.1z" style="clip-path:url(#t);fill:#212121"/></svg>