<svg preserveAspectRatio="none" width="100%" height="100%" overflow="visible" style="display: block;" viewBox="0 0 96 101" fill="none" xmlns="http://www.w3.org/2000/svg">
<g id="Layer_1">
<path id="Vector" d="M20.021 1.5H75.2143V35.7185C75.2143 49.3487 64.1555 60.4076 50.5252 60.4076H44.7101C31.0798 60.4076 20.021 49.3487 20.021 35.7185V1.5Z" stroke="var(--stroke-0, #BBBCBC)" stroke-width="3" stroke-linecap="round" stroke-linejoin="round"/>
<path id="Vector_2" d="M75.2815 9.06302H93.7353V29.5C93.7353 38.8109 84.2395 45.2815 73.8361 45.3151" stroke="var(--stroke-0, #BBBCBC)" stroke-width="3" stroke-linecap="round" stroke-linejoin="round"/>
<path id="Vector_3" d="M21.3992 45.3151C10.9958 45.2815 1.5 38.8109 1.5 29.5V9.06302H19.9538" stroke="var(--stroke-0, #BBBCBC)" stroke-width="3" stroke-linecap="round" stroke-linejoin="round"/>
<path id="Vector_4" d="M72.8781 92.5252H22.3571V98.979H72.8781V92.5252Z" stroke="var(--stroke-0, #BBBCBC)" stroke-width="3" stroke-linecap="round" stroke-linejoin="round"/>
<path id="Vector_5" d="M28.3235 76.542H66.9118C68.4748 76.542 69.7353 77.8025 69.7353 79.3655V92.5252H25.5V79.3655C25.5 77.8025 26.7605 76.542 28.3235 76.542Z" stroke="var(--stroke-0, #BBBCBC)" stroke-width="3" stroke-linecap="round" stroke-linejoin="round"/>
<path id="Vector_6" d="M54.6765 60.0546C54.6765 60.0546 54.2899 71.2647 62.021 76.542" stroke="var(--stroke-0, #BBBCBC)" stroke-width="3" stroke-linecap="round" stroke-linejoin="round"/>
<path id="Vector_7" d="M40.5588 60.0546C40.5588 60.0546 40.9454 71.2647 33.2143 76.542" stroke="var(--stroke-0, #BBBCBC)" stroke-width="3" stroke-linecap="round" stroke-linejoin="round"/>
<path id="Vector_8" d="M50.1218 15.7857L52.6429 20.8782C53.0462 21.7017 53.8361 22.2731 54.7437 22.4076L60.3739 23.2311C62.6765 23.5672 63.584 26.3908 61.9202 28.0042L57.8529 31.9706C57.1975 32.6092 56.895 33.5336 57.0462 34.4412L58.0042 40.0378C58.3908 42.3235 55.9874 44.0714 53.937 42.9958L48.9118 40.3571C48.0882 39.9202 47.1134 39.9202 46.3067 40.3571L41.2815 42.9958C39.2311 44.0714 36.8277 42.3235 37.2143 40.0378L38.1723 34.4412C38.3235 33.5336 38.021 32.6092 37.3655 31.9706L33.2983 28.0042C31.6345 26.3908 32.5588 23.5672 34.8445 23.2311L40.4748 22.4076C41.3824 22.2731 42.1723 21.7017 42.5756 20.8782L45.0966 15.7857C46.1218 13.7017 49.0966 13.7017 50.1218 15.7857Z" stroke="var(--stroke-0, #BBBCBC)" stroke-width="3" stroke-linecap="round" stroke-linejoin="round"/>
</g>
</svg>
