<svg preserveAspectRatio="none" width="100%" height="100%" overflow="visible" style="display: block;" viewBox="0 0 101 101" fill="none" xmlns="http://www.w3.org/2000/svg">
<g id="Layer_1">
<path id="Vector" d="M9.33193 71.6345H5.61765C3.33193 71.6345 1.5 69.7857 1.5 67.4832V46.9454C1.5 43.2143 4.47479 40.2395 8.20588 40.2395H27.4328" stroke="var(--stroke-0, #BBBCBC)" stroke-width="3" stroke-linecap="round" stroke-linejoin="round"/>
<path id="Vector_2" d="M26.7941 49.1807L25.6345 98.979H9.9874L8.81092 49.7353" stroke="var(--stroke-0, #BBBCBC)" stroke-width="3" stroke-linecap="round" stroke-linejoin="round"/>
<path id="Vector_3" d="M17.8025 73.1807V98.979" stroke="var(--stroke-0, #BBBCBC)" stroke-width="3" stroke-linecap="round" stroke-linejoin="round"/>
<path id="Vector_4" d="M17.8025 35.3992C22.0909 35.3992 25.5672 31.9228 25.5672 27.6345C25.5672 23.3461 22.0909 19.8697 17.8025 19.8697C13.5142 19.8697 10.0378 23.3461 10.0378 27.6345C10.0378 31.9228 13.5142 35.3992 17.8025 35.3992Z" stroke="var(--stroke-0, #BBBCBC)" stroke-width="3" stroke-linecap="round" stroke-linejoin="round"/>
<path id="Vector_5" d="M27.3824 40.2227H47.8866C50.3571 40.2227 52.3571 42.2227 52.3571 44.6933C52.3571 47.1639 50.3571 49.1639 47.8866 49.1639H26.7941" stroke="var(--stroke-0, #BBBCBC)" stroke-width="3" stroke-linecap="round" stroke-linejoin="round"/>
<path id="Vector_6" d="M43.6008 80.8109H56.1555C61.7185 80.8109 66.2395 85.3319 66.2395 90.895V98.979H33.5168V90.895C33.5168 85.3319 38.0378 80.8109 43.6008 80.8109Z" stroke="var(--stroke-0, #BBBCBC)" stroke-width="3" stroke-linecap="round" stroke-linejoin="round"/>
<path id="Vector_7" d="M58.2227 72.458C58.2227 77.063 54.4916 80.8109 49.8697 80.8109C45.2479 80.8109 41.5168 77.0798 41.5168 72.458C41.5168 67.8361 45.2479 64.105 49.8697 64.105C54.4916 64.105 58.2227 67.8361 58.2227 72.458Z" stroke="var(--stroke-0, #BBBCBC)" stroke-width="3" stroke-linecap="round" stroke-linejoin="round"/>
<path id="Vector_8" d="M76.3235 80.8109H88.8782C94.4412 80.8109 98.9622 85.3319 98.9622 90.895V98.979H66.2395V90.895C66.2395 85.3319 70.7605 80.8109 76.3235 80.8109Z" stroke="var(--stroke-0, #BBBCBC)" stroke-width="3" stroke-linecap="round" stroke-linejoin="round"/>
<path id="Vector_9" d="M90.9454 72.458C90.9454 77.063 87.2143 80.8109 82.5924 80.8109C77.9706 80.8109 74.2395 77.0798 74.2395 72.458C74.2395 67.8361 77.9706 64.105 82.5924 64.105C87.2143 64.105 90.9454 67.8361 90.9454 72.458Z" stroke="var(--stroke-0, #BBBCBC)" stroke-width="3" stroke-linecap="round" stroke-linejoin="round"/>
<path id="Vector_10" d="M52.2731 45.6176L75.2479 24.2899" stroke="var(--stroke-0, #BBBCBC)" stroke-width="3" stroke-linecap="round" stroke-linejoin="round"/>
<path id="Vector_11" d="M32.3571 49.1807V53.7185C32.3571 56.021 34.2227 57.9034 36.5252 57.9034H94.7941C97.0966 57.9034 98.9622 56.021 98.9622 53.7185V5.66807C98.9622 3.36555 97.0966 1.5 94.7941 1.5H36.5252C34.2227 1.5 32.3571 3.36555 32.3571 5.66807V40.2227" stroke="var(--stroke-0, #BBBCBC)" stroke-width="3" stroke-linecap="round" stroke-linejoin="round"/>
</g>
</svg>
