<svg preserveAspectRatio="none" width="100%" height="100%" overflow="visible" style="display: block;" viewBox="0 0 114 116" fill="none" xmlns="http://www.w3.org/2000/svg">
<g id="Layer_1">
<path id="Vector" d="M64.1748 8.96561C64.1748 13.0857 60.8293 16.4312 56.7092 16.4312C52.5891 16.4312 49.2436 13.0857 49.2436 8.96561C49.2436 4.84551 52.5891 1.5 56.7092 1.5C60.8293 1.5 64.1748 4.84551 64.1748 8.96561Z" stroke="var(--stroke-0, #BBBCBC)" stroke-width="3" stroke-linecap="round" stroke-linejoin="round"/>
<path id="Vector_2" d="M55.2919 16.4477H58.1101C65.6745 16.4477 71.8052 22.5784 71.8052 30.1429V34.2795H41.6132V30.1429C41.6132 22.5784 47.7439 16.4477 55.3084 16.4477H55.2919Z" stroke="var(--stroke-0, #BBBCBC)" stroke-width="3" stroke-linecap="round" stroke-linejoin="round"/>
<path id="Vector_3" d="M104.568 72.7776C104.568 76.8977 101.223 80.2432 97.1026 80.2432C92.9825 80.2432 89.637 76.8977 89.637 72.7776C89.637 68.6575 92.9825 65.312 97.1026 65.312C101.223 65.312 104.568 68.6575 104.568 72.7776Z" stroke="var(--stroke-0, #BBBCBC)" stroke-width="3" stroke-linecap="round" stroke-linejoin="round"/>
<path id="Vector_4" d="M95.7018 80.2432H98.5199C106.084 80.2432 112.215 86.3739 112.215 93.9384V98.0749H82.0231V93.9384C82.0231 86.3739 88.1538 80.2432 95.7183 80.2432H95.7018Z" stroke="var(--stroke-0, #BBBCBC)" stroke-width="3" stroke-linecap="round" stroke-linejoin="round"/>
<path id="Vector_5" d="M24.0616 72.7776C24.0616 76.8977 20.7161 80.2432 16.596 80.2432C12.4759 80.2432 9.13041 76.8977 9.13041 72.7776C9.13041 68.6575 12.4759 65.312 16.596 65.312C20.7161 65.312 24.0616 68.6575 24.0616 72.7776Z" stroke="var(--stroke-0, #BBBCBC)" stroke-width="3" stroke-linecap="round" stroke-linejoin="round"/>
<path id="Vector_6" d="M15.1952 80.2432H18.0133C25.5778 80.2432 31.7085 86.3739 31.7085 93.9384V98.0749H1.5V93.9384C1.5 86.3739 7.6307 80.2432 15.1952 80.2432Z" stroke="var(--stroke-0, #BBBCBC)" stroke-width="3" stroke-linecap="round" stroke-linejoin="round"/>
<path id="Vector_7" d="M13.6131 59.9064C16.4147 47.2001 24.7044 36.5537 35.8616 30.5549" stroke="var(--stroke-0, #BBBCBC)" stroke-width="3" stroke-linecap="round" stroke-linejoin="round"/>
<path id="Vector_8" d="M77.5569 30.5878C88.6811 36.5867 96.9378 47.1836 99.7395 59.8405" stroke="var(--stroke-0, #BBBCBC)" stroke-width="3" stroke-linecap="round" stroke-linejoin="round"/>
<path id="Vector_9" d="M28.9893 103.81C36.5702 109.941 46.1948 113.599 56.6927 113.599C67.1907 113.599 76.8153 109.941 84.3962 103.81" stroke="var(--stroke-0, #BBBCBC)" stroke-width="3" stroke-linecap="round" stroke-linejoin="round"/>
<path id="Vector_10" d="M56.6763 52.0288C46.7386 52.0288 38.6797 58.9835 38.6797 67.5533C38.6797 72.9424 41.8604 77.7052 46.7056 80.4739C46.7716 81.9901 46.376 84.0996 44.2171 85.7641C44.2171 85.7641 48.6009 85.9948 51.7486 82.4845C53.3143 82.8636 54.9623 83.0778 56.6763 83.0778C66.6139 83.0778 74.6728 76.1231 74.6728 67.5368C74.6728 58.9506 66.6139 52.0123 56.6763 52.0123V52.0288Z" stroke="var(--stroke-0, #BBBCBC)" stroke-width="3" stroke-linecap="round" stroke-linejoin="round"/>
</g>
</svg>
