<svg preserveAspectRatio="none" width="100%" height="100%" overflow="visible" style="display: block;" viewBox="0 0 93 97" fill="none" xmlns="http://www.w3.org/2000/svg">
<g id="Layer_1">
<g id="Group">
<path id="Vector" d="M50.1149 95.3157V74.5782C50.1149 73.203 50.8229 71.9367 51.9803 71.2014L70.4847 59.5324C72.0641 58.5384 74.1202 58.7699 75.441 60.0906C77.1021 61.7518 76.9796 64.475 75.1822 65.9728L65.1199 74.4149" stroke="var(--stroke-0, #BBBCBC)" stroke-width="3" stroke-linecap="round" stroke-linejoin="round"/>
<path id="Vector_2" d="M76.5983 63.4947L83.3111 43.2202C83.9374 41.3276 85.9118 40.2247 87.8589 40.6876C89.9149 41.1778 91.1949 43.2474 90.7183 45.3035L85.6939 66.8579C85.3944 68.1514 84.7408 69.3224 83.7877 70.2619L68.1835 85.7571L68.415 95.3021" stroke="var(--stroke-0, #BBBCBC)" stroke-width="3" stroke-linecap="round" stroke-linejoin="round"/>
<path id="Vector_3" d="M27.1853 74.4012L17.1229 65.9592C15.3256 64.4478 15.203 61.7382 16.8642 60.077C18.185 58.7563 20.241 58.5248 21.8205 59.5188L40.3249 71.1878C41.4822 71.9231 42.1903 73.1894 42.1903 74.5646V95.3021" stroke="var(--stroke-0, #BBBCBC)" stroke-width="3" stroke-linecap="round" stroke-linejoin="round"/>
<path id="Vector_4" d="M23.9038 95.3157L24.1352 85.7707L8.5311 70.2755C7.59159 69.336 6.93801 68.165 6.62484 66.8715L1.60047 45.3171C1.12391 43.2611 2.39021 41.1914 4.45987 40.7012C6.40698 40.2383 8.36771 41.3412 9.00767 43.2338L15.7204 63.5083" stroke="var(--stroke-0, #BBBCBC)" stroke-width="3" stroke-linecap="round" stroke-linejoin="round"/>
</g>
<path id="Vector_5" d="M46.1458 54.5003C2.92584 35.6486 10.7998 5.3569 28.0009 1.91129C40.3334 -0.555178 46.1458 8.97603 46.1458 8.97603C46.1458 8.97603 51.9581 -0.567572 64.2907 1.91129C81.4917 5.3569 89.3657 35.6486 46.1458 54.5003Z" stroke="var(--stroke-0, #BBBCBC)" stroke-width="3" stroke-linecap="round" stroke-linejoin="round"/>
</g>
</svg>
