<svg preserveAspectRatio="none" width="100%" height="100%" overflow="visible" style="display: block;" viewBox="0 0 94 97" fill="none" xmlns="http://www.w3.org/2000/svg">
<g id="Layer_1">
<path id="Vector" d="M37.3235 79.5997L50.8741 84.4466C53.5344 85.3941 56.4559 84.0093 57.4095 81.355C58.357 78.6947 56.9722 75.7732 54.3179 74.8196L39.4979 69.5233C39.3279 69.4626 39.1639 69.3958 38.9999 69.3168L28.1825 64.1055C25.0059 62.5749 21.3009 62.5628 18.1121 64.0691L1.50035 71.9346L10.2891 90.5021L16.9946 87.3256L49.4528 94.4683C50.6494 94.7295 51.8945 94.5898 52.9999 94.0675L88.7806 77.1338C91.532 75.8279 92.7103 72.542 91.4044 69.7845C90.0986 67.0331 86.8127 65.8547 84.0552 67.1606L57.7132 79.6301" stroke="var(--stroke-0, #BBBCBC)" stroke-width="3" stroke-linecap="round" stroke-linejoin="round"/>
<g id="Group">
<path id="Vector_2" d="M24.7751 63.0729V37.9943H17.7842C16.6727 37.9943 16.126 36.6277 16.9278 35.826L52.4108 1.8371C52.8967 1.38764 53.6802 1.38764 54.1479 1.8371L71.2031 18.1695L81.8079 28.3249L89.6188 35.826C90.457 36.6277 89.9103 37.9943 88.7806 37.9943H81.8079V68.2114" stroke="var(--stroke-0, #BBBCBC)" stroke-width="3" stroke-linecap="round" stroke-linejoin="round"/>
<path id="Vector_3" d="M71.197 6.15556V18.1634L81.8079 28.3188V6.15556H71.197Z" stroke="var(--stroke-0, #BBBCBC)" stroke-width="3" stroke-linecap="round" stroke-linejoin="round"/>
</g>
</g>
</svg>
