<svg preserveAspectRatio="none" width="100%" height="100%" overflow="visible" style="display: block;" viewBox="0 0 30 30" fill="none" xmlns="http://www.w3.org/2000/svg">
<path id="Vector" d="M29.8197 14.7731C19.5513 12.3575 17.6425 10.4487 15.2269 0.180311C15.2021 0.0746114 15.1088 0 15 0C14.8912 0 14.7979 0.0746114 14.7731 0.180311C12.3575 10.4487 10.4487 12.3575 0.180311 14.7731C0.0746114 14.7979 0 14.8912 0 15C0 15.1088 0.0746114 15.2021 0.180311 15.2269C10.4487 17.6425 12.3575 19.5513 14.7731 29.8197C14.7979 29.9254 14.8912 30 15 30C15.1088 30 15.2021 29.9254 15.2269 29.8197C17.6425 19.5513 19.5513 17.6425 29.8197 15.2269C29.9254 15.2021 30 15.1088 30 15C30 14.8912 29.9254 14.7979 29.8197 14.7731Z" fill="var(--fill-0, #FFB81C)"/>
</svg>
