<svg preserveAspectRatio="none" width="100%" height="100%" overflow="visible" style="display: block;" viewBox="0 0 107 90" fill="none" xmlns="http://www.w3.org/2000/svg">
<g id="Layer_1">
<path id="Vector" d="M59.7247 54.3815C57.2606 47.2297 50.4708 42.0848 42.4763 42.0848H19.7158C9.64051 42.0848 1.5 50.24 1.5 60.311V80.1244" stroke="var(--stroke-0, #BBBCBC)" stroke-width="3" stroke-linecap="round" stroke-linejoin="round"/>
<path id="Vector_2" d="M17.1239 62.2631V72.9726C17.1239 73.7389 17.7445 74.3592 18.5111 74.3592H30.7036C32.6566 74.3592 34.4088 75.1437 35.6682 76.4208C36.8546 77.6067 37.6212 79.2122 37.7125 81.0001C37.9315 85.0687 34.4088 88.4074 30.3386 88.4074H10.3341C5.46074 88.4074 1.5 84.4483 1.5 79.5771V65.6383" stroke="var(--stroke-0, #BBBCBC)" stroke-width="3" stroke-linecap="round" stroke-linejoin="round"/>
<path id="Vector_3" d="M43.1151 88.4074L53.5372 54.3815H104.662L94.2397 88.4074H43.1151Z" stroke="var(--stroke-0, #BBBCBC)" stroke-width="3" stroke-linecap="round" stroke-linejoin="round"/>
<path id="Vector_4" d="M37.1701 35.3217C45.2539 31.9747 49.0927 22.711 45.7442 14.6307C42.3958 6.55039 33.1282 2.71327 25.0444 6.06024C16.9606 9.40722 13.1219 18.6709 16.4703 26.7512C19.8187 34.8315 29.0863 38.6686 37.1701 35.3217Z" stroke="var(--stroke-0, #BBBCBC)" stroke-width="3" stroke-linecap="round" stroke-linejoin="round"/>
<path id="Vector_5" d="M42.4581 88.4074H28.5133H9.67701" stroke="var(--stroke-0, #BBBCBC)" stroke-width="3" stroke-linecap="round" stroke-linejoin="round"/>
<g id="Layer_1_2">
<path id="Vector_6" d="M99.0141 2.2437H67.1648C65.0565 2.2437 63.3549 3.94507 63.3549 6.05297V30.4896C63.3549 32.5975 65.0565 34.2988 67.1648 34.2988H71.3059V41.1345L79.6334 34.2988H99.0141C101.122 34.2988 102.824 32.5975 102.824 30.4896V6.05297C102.824 3.94507 101.122 2.2437 99.0141 2.2437Z" stroke="var(--stroke-0, #BBBCBC)" stroke-width="3" stroke-linecap="round" stroke-linejoin="round"/>
<path id="Vector_7" d="M75.0919 26.3341V23.8775C75.0919 20.6924 77.6911 18.1072 80.9077 18.1072H85.7326C88.9348 18.1072 91.5483 20.6924 91.5483 23.8775V26.3341" stroke="var(--stroke-0, #BBBCBC)" stroke-width="3" stroke-linecap="round" stroke-linejoin="round"/>
<path id="Vector_8" d="M87.8082 13.6199C87.8082 16.1016 85.8023 18.1072 83.3201 18.1072C80.838 18.1072 78.832 16.1016 78.832 13.6199C78.832 11.1381 80.838 9.13246 83.3201 9.13246C85.8023 9.13246 87.8082 11.1381 87.8082 13.6199Z" stroke="var(--stroke-0, #BBBCBC)" stroke-width="3" stroke-linecap="round" stroke-linejoin="round"/>
</g>
</g>
</svg>
