<svg width="266" height="133" viewBox="0 0 266 133" fill="none" xmlns="http://www.w3.org/2000/svg">
<g clip-path="url(#clip0_96_388)">
<path d="M214.156 49.1033C214.082 49.2717 213.879 49.3571 213.708 49.2942L210.998 48.3184C210.825 48.2567 210.724 48.0598 210.774 47.8832L214.669 33.8259C214.717 33.648 214.9 33.5544 215.071 33.6172L219.93 35.3698C220.103 35.4327 220.182 35.62 220.108 35.7884L214.156 49.1033Z" fill="#007FC3"/>
<path d="M219.064 53.8334C218.931 53.9295 218.736 53.9081 218.629 53.7812L216.722 51.5294C216.616 51.405 216.624 51.2081 216.742 51.0931L225.018 42.9706C225.135 42.8556 225.317 42.8639 225.424 42.9908L228.471 46.5872C228.578 46.7141 228.556 46.8943 228.424 46.9915L219.064 53.8334Z" fill="#0096D1"/>
<path d="M220.624 60.5387C220.485 60.5541 220.348 60.451 220.325 60.311L219.81 57.322C219.786 57.1809 219.879 57.0386 220.017 57.0042L228.393 54.9777C228.532 54.9445 228.663 55.0323 228.688 55.1722L229.409 59.3615C229.434 59.5002 229.337 59.6271 229.196 59.6414L220.624 60.5387Z" fill="#58ACDA"/>
<path d="M78.9885 94.7113C78.8301 94.2987 76.9359 89.5106 76.8767 89.2782C76.8767 88.8228 76.8708 38.7044 76.867 38.383C76.8785 38.0428 76.6381 37.9076 75.8677 38.0996C75.5339 38.1827 68.2189 39.7242 68.2189 39.7242C66.1814 40.2886 65.6286 41.2514 65.6286 43.6313C65.6309 43.6289 65.6286 55.3632 65.6286 55.3632C65.6286 55.3632 60.0463 55.362 56.8583 55.362C49.1299 55.362 40.8125 61.9914 40.8125 76.2881C40.8125 87.9133 47.0131 95.7252 56.2409 95.7252H78.5646C79.1853 95.7252 79.1427 95.1121 78.9885 94.7113ZM65.6523 89.258C65.6523 89.258 59.7698 89.3457 58.5572 89.1572C54.2431 88.4872 51.5273 84.7331 51.5199 75.2909V75.2553C51.5273 65.8131 54.2431 62.0601 58.5572 61.389C59.7698 61.2004 65.6523 61.2882 65.6523 61.2882V89.258Z" fill="#007FC3"/>
<path d="M169.839 94.7113C169.681 94.2987 167.786 89.5106 167.727 89.2782C167.727 88.8228 167.721 38.7044 167.717 38.383C167.729 38.0428 167.489 37.9076 166.718 38.0996C166.384 38.1827 159.069 39.7242 159.069 39.7242C157.031 40.2886 156.479 41.2514 156.479 43.6313C156.481 43.6289 156.479 55.3632 156.479 55.3632C156.479 55.3632 150.897 55.362 147.71 55.362C139.98 55.362 131.663 61.9914 131.663 76.2881C131.663 87.9133 137.863 95.7252 147.092 95.7252H169.415C170.035 95.7252 169.993 95.1121 169.839 94.7113ZM156.502 89.258C156.502 89.258 150.621 89.3457 149.407 89.1572C145.093 88.4872 142.379 84.7331 142.371 75.2909H142.37V75.2553H142.371C142.379 65.8131 145.093 62.0601 149.407 61.389C150.621 61.2004 156.502 61.2882 156.502 61.2882V89.258Z" fill="#007FC3"/>
<path d="M214.888 94.7348C214.57 93.8514 212.767 89.266 212.767 89.266C212.77 88.9673 212.808 56.4776 212.808 56.4776C212.808 55.8396 212.289 55.3203 211.652 55.3203H192.594C184.866 55.3203 176.548 61.9638 176.548 76.2606C176.548 87.8858 182.749 95.7249 191.976 95.7249H214.374C214.765 95.7249 215.178 95.5388 214.888 94.7348ZM202.119 89.3135H196.101C190.382 89.3135 186.694 84.7009 186.691 75.2645V75.2574C186.694 65.8212 190.382 61.2085 196.101 61.2085H202.119V89.3135Z" fill="#007FC3"/>
<path d="M117.15 57.1491C114.64 55.4559 111.186 53.7021 105.345 53.7021H105.273C99.431 53.7021 95.9785 55.4559 93.4672 57.1491C90.6386 59.0594 87.0728 63.0611 87.0728 74.7017C87.0728 83.078 88.7331 88.1874 90.3314 90.2198C91.9776 92.3139 95.8033 96.6241 105.273 96.6241H105.345C114.813 96.6241 118.91 91.9154 120.286 90.2198C121.935 88.1874 123.545 83.078 123.545 74.7017C123.545 63.0611 119.979 59.0594 117.15 57.1491ZM105.331 59.6464C105.341 59.6464 105.349 59.6464 105.319 59.6475C105.288 59.6464 105.325 59.6464 105.331 59.6464ZM112.619 82.1281C112.084 87.5353 109.223 89.2582 105.322 89.2961C101.419 89.2582 98.5576 87.5353 98.0216 82.1281C97.6655 78.527 97.7505 77.2547 97.7505 74.423C97.7505 71.5926 97.6655 70.4686 98.0216 66.8674C98.5576 61.4603 101.419 59.7362 105.319 59.6982C109.223 59.7362 112.084 61.4603 112.619 66.8674C112.977 70.4686 112.89 71.7409 112.89 74.5713C112.89 77.4029 112.977 78.527 112.619 82.1281Z" fill="#007FC3"/>
</g>
<defs>
<clipPath id="clip0_96_388">
<rect width="233" height="111" fill="white" transform="translate(14 15)"/>
</clipPath>
</defs>
</svg>
