<svg viewBox="0 0 384.3926058 182.833" xmlns="http://www.w3.org/2000/svg"><path d="m330.2089917 56.1733c-.1229859.2774-.457.418-.7402.3145l-4.4706999-1.6074c-.2852-.1016-.451186-.4258-.369186-.7168l6.4257859-23.1543c.0801141-.293.3809-.4473.6641-.3438l8.0156142 2.8867c.2850856.1036.4159856.4122.2929856.6895z" fill="#007fc3"/><path d="m338.3046915 63.9644c-.2186857.1582-.5409857.123-.7168-.086l-3.1464857-3.709c-.1758142-.205-.1621142-.5293.0332-.7187l13.6523854-13.3789c.1933146-.1895.4941-.1758.6699146.0332l5.0273 5.9238c.1758.209.1406853.5059-.0781147.666z" fill="#0096d1"/><path d="m340.8789058 75.0088c-.2304.0254-.4551144-.1445-.4941-.375l-.8496-4.9234c-.0391144-.2324.1133-.4668.3417856-.5234l13.8183144-3.3379c.2284853-.0547.4452853.0899.4863853.3203l1.1894 6.9004c.0410148.2285-.1191.4375-.3516.461l-14.1405852 1.478z" fill="#58acda"/><g fill="#007fc3"><path d="m107.2148973 131.2959c-.2613-.6797-3.3862999-8.5664-3.4838999-8.9492 0-.75-.0097916-83.3023-.0161-83.8316.0190084-.5605-.3775-.7832-1.6485-.4668-.5508.1368-12.6185997 2.6758-12.6185997 2.6758-3.3613999.9297-4.2734999 2.5156-4.2734999 6.4356.0039079-.0039 0 19.3242 0 19.3242s-9.2093998-.002-14.4686921-.002c-12.75 0-26.4717 10.9195-26.4717 34.4683 0 19.1484 10.2294928 32.0156 25.4530925 32.0156h36.8285991c1.024 0 .9537-1.0097.6993-1.6699zm-22.0014994-8.9824s-9.7045998.1445-11.7050921-.166c-7.1172075-1.1036-11.5976073-7.2872-11.6098-22.8399v-.0586c.0121927-15.5527 4.4925925-21.7344 11.6098-22.8398 2.0004923-.3106 11.7050921-.166 11.7050921-.166z"/><path d="m257.0957058 131.2959c-.2597-.6797-3.3867122-8.5664-3.4844122-8.9492 0-.75-.0096878-83.3023-.0155878-83.8316.0195-.5605-.3769122-.7832-1.6484-.4668-.5508121.1368-12.6192118 2.6758-12.6192118 2.6758-3.3612999.9297-4.2733999 2.5156-4.2733999 6.4356.0039-.0039 0 19.3242 0 19.3242s-9.2089883-.002-14.4667996-.002c-12.7518886 0-26.4726886 10.9195-26.4726886 34.4683 0 19.1484 10.2285891 32.0156 25.4531887 32.0156h36.8280991c1.0234 0 .9531123-1.0097.6992123-1.6699zm-22.0019117-8.9824s-9.7031998.1445-11.7050883-.166c-7.1172112-1.1036-11.5957-7.2872-11.6074111-22.8399h-.002v-.0586h.002c.0117111-15.5527 4.4901999-21.7344 11.6074111-22.8398 2.0018885-.3106 11.7050883-.166 11.7050883-.166z"/><path d="m331.4160058 131.335c-.5254141-1.4551-3.5-9.0079-3.5-9.0079.0059-.4921.0684-54.0073.0684-54.0073 0-1.0508-.8555-1.9062-1.906314-1.9062h-31.4413992c-12.7499997 0-26.4725868 10.9428-26.4725868 34.4917 0 19.1484 10.2303872 32.0605 25.4531 32.0605h36.9511859c.6445 0 1.3261-.3066.8476141-1.6308zm-21.0664-8.9297h-9.9277c-9.4356131 0-15.519513-7.5977-15.5234-23.1407v-.0117c.003887-15.5429 6.0877869-23.1406 15.5234-23.1406h9.9277z"/><path d="m170.1724058 69.4253c-4.14061-2.7891-9.8389098-5.6777-19.4746096-5.6777h-.1192c-9.6381904 0-15.3339996 2.8886-19.4769995 5.6777-4.6664999 3.1465-10.5492909 9.7378-10.5492909 28.9116 0 13.7969 2.7392 22.2129 5.3759 25.5606 2.7159 3.4492 9.0274 10.5488 24.6503904 10.5488h.1192c15.6185996 0 22.3788994-7.7559 24.6484096-10.5488 2.7201897-3.3477 5.3764897-11.7637 5.3764897-25.5606 0-19.1738-5.8832999-25.7651-10.5502897-28.9116zm-19.4981096 4.1133c.0161096 0 .0293 0-.0195.0019-.0518-.0019.0098-.0019.0195-.0019zm12.0234997 37.0307c-.8828 8.9063-5.6034999 11.7442-12.0390997 11.8067-6.4393998-.0625-11.1591997-2.9004-12.0434904-11.8067-.5874093-5.9316-.4472093-8.0273-.4472093-12.6914 0-4.6621-.1402-6.5136.4472093-12.4453.8842907-8.9062 5.6040906-11.7461 12.0395904-11.8086 6.4394998.0625 11.1601997 2.9024 12.0429997 11.8086.5898 5.9317.4472 8.0274.4472 12.6895 0 4.664.1426 6.5156-.4472 12.4472z"/></g><path d="m0 0h384.392606v182.833h-384.392606z" fill="none"/></svg>