<svg width="300" height="150" viewBox="0 0 300 150" fill="none" xmlns="http://www.w3.org/2000/svg">
<g style="mix-blend-mode:multiply">
<path d="M107.615 101.447H103.743C101.351 101.447 99.4478 99.5528 99.4478 97.177V76.0355C99.4478 72.1989 102.555 69.1328 106.443 69.1328H126.487C130.359 69.1328 133.482 72.1989 133.482 76.0355V97.177C133.482 99.5528 131.546 101.447 129.155 101.447H125.299" stroke="#BBBCBC" stroke-width="3" stroke-linecap="round" stroke-linejoin="round"/>
<path d="M125.836 78.9248L124.616 129.603H108.298L107.078 78.9248" stroke="#BBBCBC" stroke-width="3" stroke-linecap="round" stroke-linejoin="round"/>
<path d="M116.449 103.052V129.603" stroke="#BBBCBC" stroke-width="3" stroke-linecap="round" stroke-linejoin="round"/>
<path d="M124.535 57.1413C124.535 52.7268 120.907 49.1631 116.449 49.1631C111.991 49.1631 108.363 52.7428 108.363 57.1413C108.363 61.5398 111.991 65.1195 116.449 65.1195C120.907 65.1195 124.535 61.5398 124.535 57.1413Z" stroke="#BBBCBC" stroke-width="3" stroke-linecap="round" stroke-linejoin="round"/>
<path d="M141.666 101.447H137.794C135.402 101.447 133.499 99.5528 133.499 97.177V76.0355C133.499 72.1989 136.606 69.1328 140.495 69.1328H160.538C164.41 69.1328 167.534 72.1989 167.534 76.0355V97.177C167.534 99.5528 165.598 101.447 163.206 101.447H159.35" stroke="#BBBCBC" stroke-width="3" stroke-linecap="round" stroke-linejoin="round"/>
<path d="M159.871 78.9248L158.667 129.603H142.333L141.129 78.9248" stroke="#BBBCBC" stroke-width="3" stroke-linecap="round" stroke-linejoin="round"/>
<path d="M150.5 103.052V129.603" stroke="#BBBCBC" stroke-width="3" stroke-linecap="round" stroke-linejoin="round"/>
<path d="M158.586 57.1413C158.586 52.7268 154.958 49.1631 150.5 49.1631C146.043 49.1631 142.415 52.7428 142.415 57.1413C142.415 61.5398 146.043 65.1195 150.5 65.1195C154.958 65.1195 158.586 61.5398 158.586 57.1413Z" stroke="#BBBCBC" stroke-width="3" stroke-linecap="round" stroke-linejoin="round"/>
<path d="M175.701 101.447H171.829C169.437 101.447 167.534 99.5528 167.534 97.177V76.0355C167.534 72.1989 170.641 69.1328 174.529 69.1328H194.573C198.445 69.1328 201.568 72.1989 201.568 76.0355V97.177C201.568 99.5528 199.632 101.447 197.241 101.447H193.385" stroke="#BBBCBC" stroke-width="3" stroke-linecap="round" stroke-linejoin="round"/>
<path d="M193.922 78.9248L192.702 129.603H176.384L175.164 78.9248" stroke="#BBBCBC" stroke-width="3" stroke-linecap="round" stroke-linejoin="round"/>
<path d="M184.551 103.052V129.603" stroke="#BBBCBC" stroke-width="3" stroke-linecap="round" stroke-linejoin="round"/>
<path d="M192.621 57.1413C192.621 52.7268 188.993 49.1631 184.535 49.1631C180.077 49.1631 176.449 52.7428 176.449 57.1413C176.449 61.5398 180.077 65.1195 184.535 65.1195C188.993 65.1195 192.621 61.5398 192.621 57.1413Z" stroke="#BBBCBC" stroke-width="3" stroke-linecap="round" stroke-linejoin="round"/>
<path d="M150.484 65.1196V68.4586C150.484 68.6833 150.468 68.9081 150.435 69.1328" stroke="#BBBCBC" stroke-width="3" stroke-linecap="round" stroke-linejoin="round"/>
<path d="M116.449 65.1196V68.4586C116.449 68.6833 116.465 68.9081 116.498 69.1328" stroke="#BBBCBC" stroke-width="3" stroke-linecap="round" stroke-linejoin="round"/>
<path d="M116.449 49.1471V47.3011C116.449 43.4645 119.573 40.3823 123.461 40.3823H143.505C147.36 40.3823 150.5 43.4645 150.5 47.3011V49.1471" stroke="#BBBCBC" stroke-width="3" stroke-linecap="round" stroke-linejoin="round"/>
<path d="M141.552 28.3908C141.552 23.9763 137.924 20.4126 133.467 20.4126C129.009 20.4126 125.381 23.9924 125.381 28.3908C125.381 32.7893 129.009 36.369 133.467 36.369C137.924 36.369 141.552 32.7893 141.552 28.3908Z" stroke="#BBBCBC" stroke-width="3" stroke-linecap="round" stroke-linejoin="round"/>
<path d="M184.535 65.1196V68.4586C184.535 68.6833 184.518 68.9081 184.486 69.1328" stroke="#BBBCBC" stroke-width="3" stroke-linecap="round" stroke-linejoin="round"/>
<path d="M150.484 65.1196V68.4586C150.484 68.6833 150.5 68.9081 150.533 69.1328" stroke="#BBBCBC" stroke-width="3" stroke-linecap="round" stroke-linejoin="round"/>
<path d="M150.484 49.1471V47.3011C150.484 43.4645 153.608 40.3823 157.496 40.3823H177.539C181.411 40.3823 184.551 43.4645 184.551 47.3011V49.1471" stroke="#BBBCBC" stroke-width="3" stroke-linecap="round" stroke-linejoin="round"/>
<path d="M175.603 28.3908C175.603 23.9763 171.975 20.4126 167.517 20.4126C163.06 20.4126 159.432 23.9924 159.432 28.3908C159.432 32.7893 163.06 36.369 167.517 36.369C171.975 36.369 175.603 32.7893 175.603 28.3908Z" stroke="#BBBCBC" stroke-width="3" stroke-linecap="round" stroke-linejoin="round"/>
</g>
</svg>
