<svg width="266" height="133" viewBox="0 0 266 133" fill="none" xmlns="http://www.w3.org/2000/svg">
<g clip-path="url(#clip0_127_638)">
<path d="M28.5774 83.1022C28.2454 83.1022 27.9689 82.8257 27.9689 82.4939V69.6089C27.9689 69.0835 27.5817 68.6963 27.0562 68.6963H14.9144C14.3889 68.6963 14.0017 69.0835 14.0017 69.6089V82.4663C14.0017 82.7981 13.7251 83.0746 13.3933 83.0746H8.60847C8.27658 83.0746 8 82.7981 8 82.4663V51.6913C8 51.3595 8.27658 51.083 8.60847 51.083H13.3933C13.7251 51.083 14.0017 51.3595 14.0017 51.6913V62.6685C14.0017 63.1939 14.3889 63.581 14.9144 63.581H27.0562C27.5817 63.581 27.9689 63.1939 27.9689 62.6685V51.6913C27.9689 51.3595 28.2454 51.083 28.5774 51.083H33.3621C33.694 51.083 33.9706 51.3595 33.9706 51.6913V82.4663C33.9706 82.7981 33.694 83.0746 33.3621 83.0746H28.5774V83.1022Z" fill="#008C73"/>
<path d="M57.3137 83.1022C57.0926 83.1022 56.9266 83.0193 56.7882 82.8257L48.5186 70.383C48.408 70.2171 48.2143 70.1065 48.0208 70.1065H47.6336C47.4399 70.1065 47.3293 70.2172 47.3293 70.4106V82.4939C47.3293 82.8257 47.0528 83.1022 46.7208 83.1022H41.9361C41.6042 83.1022 41.3276 82.8257 41.3276 82.4939V51.8572C41.3276 51.4425 41.6595 51.083 42.1021 51.083H50.5376C55.2948 51.083 57.4521 52.4655 58.669 53.4609C61.2689 55.6453 61.7944 58.5763 61.7944 60.6224C61.7944 63.8575 60.4944 66.4843 58.0881 68.1157C57.3137 68.6411 56.4564 69.0558 55.3777 69.3323C55.1565 69.3876 54.9905 69.5535 54.8799 69.747C54.797 69.9682 54.8522 70.2171 54.9628 70.383L63.8134 82.3557C63.8963 82.5215 63.924 82.6875 63.841 82.8534C63.758 83.0193 63.5921 83.1022 63.4538 83.1022H57.3137ZM48.0485 55.9218C47.6612 55.9218 47.357 56.226 47.357 56.6131V65.2401C47.357 65.6272 47.6612 65.9313 48.0485 65.9313H49.293C51.2014 65.9313 55.6543 65.4336 55.6543 60.8713C55.6543 57.6362 53.4416 55.8942 49.376 55.8942H48.0485V55.9218Z" fill="#008C73"/>
<path d="M83.9206 69.4152V82.881C83.9206 83.1298 83.727 83.2957 83.5057 83.2957H79.0529C78.8039 83.2957 78.6379 83.1022 78.6379 82.881V69.4152C78.6379 69.1664 78.4444 69.0004 78.2231 69.0004H77.0891C76.8402 69.0004 76.6743 68.8069 76.6743 68.5857V64.9082C76.6743 64.6594 76.8679 64.4934 77.0891 64.4934H78.2231C78.4721 64.4934 78.6379 64.2999 78.6379 64.0787V59.2398C78.6379 57.4979 78.7486 54.5116 81.1272 52.5761C82.2335 51.6083 83.7823 51 85.746 51C86.8247 51 87.682 51.1936 88.5395 51.553C88.7054 51.6083 88.7884 51.7742 88.7884 51.9401V55.7006C88.7884 56.0324 88.4565 56.2259 88.1522 56.0877C87.5991 55.8112 87.046 55.7006 86.3821 55.7006C85.6908 55.7006 84.9716 55.8941 84.4738 56.6683C84.0589 57.3596 83.893 58.3827 83.893 59.9587V63.9957C83.893 64.2446 84.0865 64.4104 84.3078 64.4104H88.3182C88.5671 64.4104 88.733 64.604 88.733 64.8252V68.475C88.733 68.724 88.5395 68.8899 88.3182 68.8899H84.3078C84.0865 68.9728 83.9206 69.1664 83.9206 69.4152Z" fill="#008C73"/>
<path d="M108.766 66.4845C110.647 68.1988 111.975 70.7979 111.975 73.8949C111.975 76.9364 110.675 79.5632 108.766 81.2498C107.162 82.7429 104.728 83.9043 101.133 83.9043C97.5373 83.9043 95.1034 82.7153 93.4993 81.2498C91.6186 79.5355 90.291 76.9364 90.291 73.8949C90.291 70.7979 91.5909 68.1711 93.4993 66.4845C95.1034 64.9913 97.5373 63.8301 101.133 63.8301C104.728 63.8301 107.162 64.9913 108.766 66.4845ZM106.471 73.8949C106.471 70.9086 104.175 68.5306 101.133 68.5306C98.0905 68.5306 95.7949 70.9362 95.7949 73.8949C95.7949 76.7981 98.0074 79.2313 101.133 79.2313C104.23 79.2313 106.471 76.7981 106.471 73.8949Z" fill="#008C73"/>
<path d="M115.72 64.4383H120.173C120.422 64.4383 120.587 64.6318 120.587 64.853V66.1525C120.587 66.4567 120.947 66.5673 121.141 66.3461C121.86 65.3507 122.634 64.7976 122.939 64.6318C123.768 64.1064 124.819 63.8022 126.064 63.8022C126.839 63.8022 127.446 63.9681 127.972 64.1064C128.194 64.1617 128.304 64.3829 128.277 64.6041L127.724 68.5858C127.696 68.89 127.364 69.0558 127.115 68.9176C126.561 68.641 125.981 68.5305 125.179 68.5305C124.184 68.5305 122.69 68.7517 121.639 70.0512C120.643 71.3232 120.616 72.9546 120.616 74.2541V82.8811C120.616 83.1299 120.422 83.2958 120.201 83.2958H115.72C115.471 83.2958 115.305 83.1023 115.305 82.8811V64.8806C115.277 64.6318 115.499 64.4383 115.72 64.4383Z" fill="#008C73"/>
<path d="M148.369 77.9592C148.645 78.0144 148.839 78.3186 148.7 78.5675C147.87 80.3371 145.547 83.9317 139.628 83.9317C136.586 83.9317 134.263 83.0468 132.382 81.2772C130.28 79.2863 129.395 76.8532 129.395 73.9222C129.395 70.1894 130.917 67.8667 132.299 66.5118C134.512 64.3275 137.139 63.8574 139.407 63.8574C143.251 63.8574 145.464 65.3782 146.765 66.9543C148.783 69.3598 149.059 72.3185 149.059 74.3646C149.059 74.6134 148.866 74.7793 148.645 74.7793H135.397C135.148 74.7793 134.927 75.0005 134.982 75.2495C135.037 76.2449 135.341 77.2679 135.894 77.9592C136.475 78.761 137.637 79.7564 139.711 79.7564C141.592 79.7564 143.085 78.8993 143.97 77.5168C144.053 77.3508 144.247 77.2678 144.386 77.2956L148.369 77.9592ZM143.501 71.3783C143.777 71.3783 143.998 71.1018 143.916 70.8254C143.307 68.641 141.371 67.5626 139.545 67.5626C137.72 67.5626 135.839 68.6686 135.231 70.8254C135.148 71.1018 135.341 71.3783 135.646 71.3783H143.501Z" fill="#008C73"/>
<path d="M166.703 69.2767C166.703 69.6362 166.317 69.8297 166.012 69.6362C165.016 68.945 163.827 68.5302 162.334 68.5302C158.793 68.5302 156.996 71.1294 156.996 73.8667C156.996 76.9635 159.319 79.2309 162.5 79.2309C163.495 79.2309 164.74 78.982 166.012 78.1249C166.317 77.9037 166.703 78.1249 166.703 78.4843V82.5213C166.703 82.7149 166.62 82.8531 166.454 82.9084C165.376 83.4061 163.827 83.9868 161.835 83.9868C158.849 83.9868 156.249 82.8531 154.534 81.2494C153.096 79.9222 151.52 77.5442 151.52 74.005C151.52 70.6869 152.847 68.0324 154.811 66.3458C157.134 64.2997 159.789 63.9126 161.615 63.9126C163.468 63.9126 165.016 64.272 166.483 64.908C166.649 64.9633 166.731 65.1292 166.731 65.2951V69.2767H166.703Z" fill="#008C73"/>
<path d="M184.908 64.438H189.361C189.609 64.438 189.775 64.6315 189.775 64.8527V82.8533C189.775 83.1021 189.582 83.268 189.361 83.268H184.908C184.659 83.268 184.493 83.0745 184.493 82.8533V82.0514C184.493 81.6643 183.995 81.4707 183.718 81.7472C181.921 83.6274 179.847 83.8763 178.657 83.8763C172.849 83.8763 169.005 79.3416 169.005 73.8116C169.005 68.2261 172.822 63.7744 178.38 63.7744C179.625 63.7744 181.948 63.968 183.664 65.8482C183.94 66.1524 184.438 65.9312 184.438 65.5441V64.8251C184.466 64.6315 184.687 64.438 184.908 64.438ZM174.509 73.8668C174.509 76.8807 176.693 79.2311 179.737 79.2311C182.779 79.2311 184.963 76.8807 184.963 73.8668C184.963 70.8529 182.779 68.5303 179.737 68.5303C176.693 68.558 174.509 70.8529 174.509 73.8668Z" fill="#008C73"/>
<path d="M204.285 68.6131C204.12 68.8067 203.87 68.8343 203.677 68.6684C202.515 67.756 201.436 67.7007 200.911 67.7007C199.638 67.7007 198.865 68.309 198.865 69.2214C198.865 69.7192 199.085 70.438 200.579 70.9358L201.851 71.3229C203.345 71.8206 205.558 72.5395 206.663 74.0326C207.245 74.8345 207.632 75.9405 207.632 77.1571C207.632 78.8715 207.05 80.5581 205.529 81.9683C204.008 83.3784 202.183 83.9868 199.86 83.9868C196.209 83.9868 194.051 82.383 192.808 81.1388C192.642 80.9728 192.613 80.724 192.779 80.5581L194.992 78.0143C195.158 77.8208 195.462 77.7931 195.628 77.9867C196.652 79.065 198.09 79.8116 199.501 79.8116C200.993 79.8116 202.128 79.0926 202.128 77.7654C202.128 76.5765 201.159 76.0787 200.44 75.8575L199.224 75.4428C197.896 74.945 196.292 74.3367 195.185 73.1478C194.3 72.2353 193.747 71.0464 193.747 69.5256C193.747 67.7007 194.633 66.1799 195.738 65.2397C197.232 64.0509 199.141 63.9126 200.662 63.9126C201.961 63.9126 204.037 64.0785 206.304 65.6546C206.526 65.8204 206.553 66.1246 206.387 66.2905L204.285 68.6131Z" fill="#008C73"/>
<path d="M217.579 69.4153V82.881C217.579 83.1298 217.386 83.2957 217.165 83.2957H212.712C212.463 83.2957 212.297 83.1022 212.297 82.881V69.4153C212.297 69.1663 212.103 69.0005 211.881 69.0005H210.665C210.416 69.0005 210.25 68.807 210.25 68.5858V64.9082C210.25 64.6594 210.443 64.4934 210.665 64.4934H211.881C212.131 64.4934 212.297 64.2999 212.297 64.0787V58.4104C212.297 58.1615 212.49 57.9956 212.712 57.9956H217.165C217.414 57.9956 217.579 58.1892 217.579 58.4104V63.9958C217.579 64.2446 217.773 64.4105 217.994 64.4105H220.787C221.036 64.4105 221.202 64.6041 221.202 64.8253V68.4751C221.202 68.724 221.009 68.8899 220.787 68.8899H217.994C217.801 68.9728 217.579 69.1663 217.579 69.4153Z" fill="#008C73"/>
<path d="M241.845 77.9592C242.123 78.0144 242.316 78.3186 242.177 78.5675C241.348 80.3371 239.025 83.9317 233.105 83.9317C230.063 83.9317 227.74 83.0468 225.86 81.2772C223.757 79.2863 222.872 76.8532 222.872 73.9222C222.872 70.1894 224.393 67.8667 225.777 66.5118C227.989 64.3275 230.616 63.8574 232.885 63.8574C236.729 63.8574 238.942 65.3782 240.241 66.9543C242.26 69.3598 242.537 72.3185 242.537 74.3646C242.537 74.6134 242.343 74.7793 242.123 74.7793H228.874C228.625 74.7793 228.403 75.0005 228.459 75.2495C228.515 76.2449 228.819 77.2679 229.372 77.9592C229.953 78.761 231.115 79.7564 233.189 79.7564C235.069 79.7564 236.563 78.8993 237.448 77.5168C237.531 77.3509 237.724 77.2678 237.863 77.2956L241.845 77.9592ZM236.95 71.3783C237.227 71.3783 237.448 71.1018 237.365 70.8254C236.756 68.641 234.82 67.5626 232.995 67.5626C231.169 67.5626 229.289 68.6686 228.68 70.8254C228.598 71.1018 228.791 71.3783 229.095 71.3783H236.95Z" fill="#008C73"/>
<path d="M246.363 64.4383H250.816C251.065 64.4383 251.231 64.6318 251.231 64.853V66.1526C251.231 66.4568 251.59 66.5673 251.784 66.3461C252.503 65.3507 253.278 64.7977 253.581 64.6318C254.412 64.1064 255.462 63.8022 256.707 63.8022C257.481 63.8022 258.09 63.9682 258.616 64.1064C258.836 64.1617 258.947 64.3829 258.919 64.6041L258.366 68.5858C258.339 68.89 258.007 69.0558 257.758 68.9176C257.205 68.6411 256.623 68.5305 255.821 68.5305C254.826 68.5305 253.332 68.7517 252.282 70.0512C251.286 71.3232 251.258 72.9546 251.258 74.2541V82.8811C251.258 83.1299 251.065 83.2959 250.843 83.2959H246.39C246.142 83.2959 245.976 83.1023 245.976 82.8811V64.8807C245.92 64.6318 246.114 64.4383 246.363 64.4383Z" fill="#008C73"/>
</g>
<defs>
<clipPath id="clip0_127_638">
<rect width="251" height="33" fill="white" transform="translate(8 51)"/>
</clipPath>
</defs>
</svg>
