<svg xmlns="http://www.w3.org/2000/svg" width="266" height="133" fill="none" viewBox="0 0 266 133"><g fill="#008c73" clip-path="url(#a)"><path d="M28.577 83.102a.614.614 0 0 1-.608-.608V69.609a.887.887 0 0 0-.913-.913H14.914a.887.887 0 0 0-.912.913v12.857a.614.614 0 0 1-.609.609H8.608A.614.614 0 0 1 8 82.466V51.691c0-.332.277-.608.608-.608h4.785c.332 0 .609.276.609.608V62.67c0 .525.387.912.912.912h12.142a.887.887 0 0 0 .913-.913V51.692c0-.332.276-.608.608-.608h4.785c.332 0 .609.276.609.608v30.775a.614.614 0 0 1-.609.609h-4.785zm28.737 0a.6.6 0 0 1-.526-.276l-8.27-12.443a.62.62 0 0 0-.497-.276h-.387c-.194 0-.305.11-.305.304v12.083a.614.614 0 0 1-.608.608h-4.785a.614.614 0 0 1-.608-.608V51.857c0-.414.331-.774.774-.774h8.436c4.757 0 6.914 1.383 8.131 2.378 2.6 2.184 3.125 5.115 3.125 7.161 0 3.236-1.3 5.862-3.706 7.494a8.4 8.4 0 0 1-2.71 1.216c-.221.056-.388.222-.498.415a.73.73 0 0 0 .083.636l8.85 11.973c.083.166.111.332.028.497a.45.45 0 0 1-.387.25zm-9.266-27.18a.685.685 0 0 0-.691.691v8.627c0 .387.304.691.691.691h1.245c1.908 0 6.361-.497 6.361-5.06 0-3.235-2.212-4.977-6.278-4.977h-1.328zM83.92 69.415v13.466a.407.407 0 0 1-.414.415h-4.453a.407.407 0 0 1-.415-.415V69.415a.407.407 0 0 0-.415-.415H77.09a.407.407 0 0 1-.415-.414v-3.678c0-.249.194-.415.415-.415h1.134a.407.407 0 0 0 .415-.414v-4.84c0-1.741.11-4.727 2.49-6.663C82.233 51.608 83.781 51 85.745 51c1.079 0 1.936.194 2.794.553.165.055.248.221.248.387v3.76c0 .332-.331.526-.636.388-.553-.277-1.106-.387-1.77-.387-.691 0-1.41.193-1.908.967-.415.692-.581 1.715-.581 3.29v4.038c0 .249.194.414.415.414h4.01c.25 0 .415.194.415.415v3.65a.407.407 0 0 1-.415.415h-4.01c-.222.083-.387.276-.387.525m24.846-2.93c1.881 1.714 3.209 4.313 3.209 7.41 0 3.041-1.3 5.668-3.209 7.355-1.604 1.493-4.038 2.654-7.633 2.654-3.596 0-6.03-1.189-7.634-2.654a9.93 9.93 0 0 1-3.208-7.355c0-3.097 1.3-5.724 3.208-7.41 1.604-1.494 4.038-2.655 7.634-2.655s6.029 1.161 7.633 2.654m-2.295 7.41c0-2.986-2.296-5.364-5.338-5.364s-5.338 2.405-5.338 5.364c0 2.903 2.212 5.336 5.338 5.336 3.097 0 5.338-2.433 5.338-5.336m9.249-9.456h4.453c.249 0 .414.194.414.415v1.3c0 .304.36.414.554.193.719-.995 1.493-1.548 1.798-1.714.829-.526 1.88-.83 3.125-.83.775 0 1.382.166 1.908.304.222.056.332.277.305.498l-.553 3.982a.417.417 0 0 1-.609.332c-.554-.277-1.134-.388-1.936-.388-.995 0-2.489.222-3.54 1.521-.996 1.272-1.023 2.904-1.023 4.203v8.627a.41.41 0 0 1-.415.415h-4.481a.407.407 0 0 1-.415-.415v-18c-.028-.25.194-.443.415-.443m32.649 13.522c.276.054.47.359.331.608-.83 1.77-3.153 5.364-9.072 5.364-3.042 0-5.365-.885-7.246-2.655-2.102-1.99-2.987-4.424-2.987-7.355 0-3.733 1.522-6.055 2.904-7.41 2.213-2.184 4.84-2.655 7.108-2.655 3.844 0 6.057 1.521 7.358 3.097 2.018 2.406 2.294 5.365 2.294 7.41a.407.407 0 0 1-.414.415h-13.248c-.249 0-.47.222-.415.47.055.996.359 2.019.912 2.71.581.802 1.743 1.797 3.817 1.797 1.881 0 3.374-.857 4.259-2.24.083-.165.277-.248.416-.22zm-4.868-6.582a.437.437 0 0 0 .415-.553c-.609-2.184-2.545-3.262-4.371-3.262-1.825 0-3.706 1.106-4.314 3.262a.424.424 0 0 0 .415.553zm23.202-2.101c0 .36-.386.553-.691.36-.996-.692-2.185-1.107-3.678-1.107-3.541 0-5.338 2.6-5.338 5.337 0 3.096 2.323 5.364 5.504 5.364.995 0 2.24-.249 3.512-1.106.305-.221.691 0 .691.36v4.036c0 .194-.083.332-.249.387-1.078.498-2.627 1.079-4.619 1.079-2.986 0-5.586-1.134-7.301-2.738-1.438-1.327-3.014-3.705-3.014-7.244 0-3.318 1.327-5.973 3.291-7.66 2.323-2.045 4.978-2.432 6.804-2.432 1.853 0 3.401.359 4.868.995.166.055.248.221.248.387v3.982zm18.205-4.839h4.453c.248 0 .414.194.414.415v18a.407.407 0 0 1-.414.415h-4.453a.407.407 0 0 1-.415-.415v-.802c0-.387-.498-.58-.775-.304-1.797 1.88-3.871 2.13-5.061 2.13-5.808 0-9.652-4.535-9.652-10.065 0-5.586 3.817-10.038 9.375-10.038 1.245 0 3.568.194 5.284 2.074.276.304.774.083.774-.304v-.719c.028-.194.249-.387.47-.387m-10.399 9.429c0 3.014 2.184 5.364 5.228 5.364 3.042 0 5.226-2.35 5.226-5.364s-2.184-5.337-5.226-5.337c-3.044.028-5.228 2.323-5.228 5.337m29.776-5.254c-.165.194-.415.221-.608.055-1.162-.912-2.241-.967-2.766-.967-1.273 0-2.046.608-2.046 1.52 0 .498.22 1.217 1.714 1.715l1.272.387c1.494.498 3.707 1.217 4.812 2.71.582.802.969 1.907.969 3.124 0 1.715-.582 3.401-2.103 4.811s-3.346 2.019-5.669 2.019c-3.651 0-5.809-1.604-7.052-2.848-.166-.166-.195-.415-.029-.58l2.213-2.545c.166-.193.47-.22.636-.027 1.024 1.078 2.462 1.825 3.873 1.825 1.492 0 2.627-.72 2.627-2.047 0-1.189-.969-1.686-1.688-1.907l-1.216-.415c-1.328-.498-2.932-1.106-4.039-2.295-.885-.913-1.438-2.102-1.438-3.622 0-1.825.886-3.346 1.991-4.286 1.494-1.19 3.403-1.327 4.924-1.327 1.299 0 3.375.166 5.642 1.742.222.165.249.47.083.635zm13.294.802v13.466a.407.407 0 0 1-.414.415h-4.453a.407.407 0 0 1-.415-.415V69.415a.41.41 0 0 0-.416-.415h-1.216a.407.407 0 0 1-.415-.414v-3.678c0-.249.193-.415.415-.415h1.216c.25 0 .416-.193.416-.414V58.41c0-.248.193-.414.415-.414h4.453c.249 0 .414.193.414.414v5.586c0 .249.194.414.415.414h2.793c.249 0 .415.194.415.415v3.65a.407.407 0 0 1-.415.415h-2.793c-.193.083-.415.276-.415.525m24.266 8.545c.278.054.471.359.332.608-.829 1.77-3.152 5.364-9.072 5.364-3.042 0-5.365-.885-7.245-2.655-2.103-1.99-2.988-4.424-2.988-7.355 0-3.733 1.521-6.055 2.905-7.41 2.212-2.184 4.839-2.655 7.108-2.655 3.844 0 6.057 1.521 7.356 3.097 2.019 2.406 2.296 5.365 2.296 7.41a.407.407 0 0 1-.414.415h-13.249c-.249 0-.471.222-.415.47.056.996.36 2.019.913 2.71.581.802 1.743 1.797 3.817 1.797 1.88 0 3.374-.857 4.259-2.24.083-.165.276-.248.415-.22zm-4.895-6.582a.436.436 0 0 0 .415-.553c-.609-2.184-2.545-3.262-4.37-3.262s-3.706 1.106-4.315 3.262a.425.425 0 0 0 .415.553zm9.413-6.94h4.453c.249 0 .415.194.415.415v1.3c0 .304.359.414.553.193.719-.995 1.494-1.548 1.797-1.714.831-.526 1.881-.83 3.126-.83.774 0 1.383.166 1.909.304.22.056.331.277.303.498l-.553 3.982a.416.416 0 0 1-.608.332c-.553-.277-1.135-.388-1.937-.388-.995 0-2.489.222-3.539 1.521-.996 1.272-1.024 2.904-1.024 4.203v8.627a.407.407 0 0 1-.415.415h-4.453a.407.407 0 0 1-.414-.415v-18c-.056-.25.138-.443.387-.443"/></g><defs><clipPath id="a"><path fill="#fff" d="M8 51h251v33H8z"/></clipPath></defs></svg>