<svg width="940" height="80" viewBox="0 0 940 80" fill="none" xmlns="http://www.w3.org/2000/svg">
<path d="M123.726 1.42154L98.5927 78.2471H79.4961L62.5944 26.2252L45.1441 78.2471H26.1572L0.914517 1.42154H19.3526L36.6933 55.4189L54.8021 1.42154H71.2648L88.8249 55.8579L106.714 1.42154H123.726ZM193.136 63.9795V78.2471H133.651V1.42154H191.709V15.6891H151.321V32.3713H186.99V46.1998H151.321V63.9795H193.136ZM288.96 61.7845H253.291L246.486 78.2471H228.267L262.51 1.42154H280.07L314.422 78.2471H295.764L288.96 61.7845ZM283.362 48.2851L271.18 18.8719L258.998 48.2851H283.362ZM371.341 78.2471L356.525 56.8457H355.647H340.172V78.2471H322.392V1.42154H355.647C362.451 1.42154 368.341 2.55563 373.317 4.82382C378.365 7.092 382.243 10.3114 384.95 14.4819C387.658 18.6524 389.011 23.5912 389.011 29.2982C389.011 35.0053 387.621 39.9441 384.841 44.1146C382.133 48.2119 378.256 51.3581 373.207 53.5532L390.438 78.2471H371.341ZM371.012 29.2982C371.012 24.9814 369.622 21.6889 366.842 19.4207C364.061 17.0793 360 15.9086 354.659 15.9086H340.172V42.6878H354.659C360 42.6878 364.061 41.5172 366.842 39.1758C369.622 36.8345 371.012 33.5419 371.012 29.2982ZM462.583 63.9795V78.2471H403.098V1.42154H461.156V15.6891H420.768V32.3713H456.437V46.1998H420.768V63.9795H462.583ZM578.271 1.42154V78.2471H560.492V46.7486H525.591V78.2471H507.811V1.42154H525.591V31.7128H560.492V1.42154H578.271ZM596.448 1.42154H614.227V78.2471H596.448V1.42154ZM681.409 78.2471L666.592 56.8457H665.714H650.239V78.2471H632.46V1.42154H665.714C672.519 1.42154 678.409 2.55563 683.384 4.82382C688.433 7.092 692.311 10.3114 695.018 14.4819C697.725 18.6524 699.078 23.5912 699.078 29.2982C699.078 35.0053 697.688 39.9441 694.908 44.1146C692.201 48.2119 688.323 51.3581 683.274 53.5532L700.505 78.2471H681.409ZM681.079 29.2982C681.079 24.9814 679.689 21.6889 676.909 19.4207C674.128 17.0793 670.068 15.9086 664.726 15.9086H650.239V42.6878H664.726C670.068 42.6878 674.128 41.5172 676.909 39.1758C679.689 36.8345 681.079 33.5419 681.079 29.2982ZM713.165 1.42154H730.945V78.2471H713.165V1.42154ZM819.637 1.42154V78.2471H805.04L766.737 31.603V78.2471H749.177V1.42154H763.884L802.077 48.0656V1.42154H819.637ZM889.726 38.627H905.969V69.7963C901.798 72.9425 896.969 75.357 891.482 77.0398C885.994 78.7227 880.47 79.5641 874.909 79.5641C866.934 79.5641 859.764 77.8812 853.398 74.5155C847.033 71.0767 842.021 66.3574 838.362 60.3577C834.777 54.2848 832.985 47.4437 832.985 39.8343C832.985 32.2249 834.777 25.4204 838.362 19.4207C842.021 13.3478 847.069 8.62851 853.508 5.26282C859.947 1.82396 867.19 0.104537 875.239 0.104537C881.97 0.104537 888.08 1.23863 893.567 3.50681C899.055 5.77499 903.664 9.06751 907.396 13.3844L895.982 23.9204C890.494 18.1402 883.872 15.2501 876.117 15.2501C871.215 15.2501 866.861 16.2745 863.056 18.3232C859.252 20.3718 856.288 23.2619 854.167 26.9935C852.045 30.725 850.984 35.0053 850.984 39.8343C850.984 44.5902 852.045 48.8339 854.167 52.5654C856.288 56.2969 859.215 59.2236 862.947 61.3455C866.751 63.3941 871.068 64.4185 875.897 64.4185C881.019 64.4185 885.628 63.321 889.726 61.126V38.627ZM919.082 1.42154H939.496L936.094 51.5776H922.485L919.082 1.42154ZM929.289 79.1251C926.289 79.1251 923.765 78.1739 921.716 76.2716C919.741 74.296 918.753 71.9181 918.753 69.1378C918.753 66.3574 919.741 64.0526 921.716 62.2235C923.692 60.3211 926.216 59.3699 929.289 59.3699C932.362 59.3699 934.887 60.3211 936.862 62.2235C938.838 64.0526 939.825 66.3574 939.825 69.1378C939.825 71.9181 938.801 74.296 936.752 76.2716C934.777 78.1739 932.289 79.1251 929.289 79.1251Z" fill="url(#paint0_linear_456_4108)"/>
<defs>
<linearGradient id="paint0_linear_456_4108" x1="35.6373" y1="-3.89016" x2="996.906" y2="113.997" gradientUnits="userSpaceOnUse">
<stop stop-color="#77AEF2"/>
<stop offset="0.5" stop-color="#C2B375" stop-opacity="0.8"/>
<stop offset="1" stop-color="#EFC167" stop-opacity="0.8"/>
</linearGradient>
</defs>
</svg>
