<svg xmlns="http://www.w3.org/2000/svg" width="940" height="80" fill="none" viewBox="0 0 940 80"><path fill="url(#a)" d="M123.726 1.422 98.593 78.247H79.496L62.594 26.225l-17.45 52.022H26.157L.915 1.422h18.438l17.34 53.997 18.11-53.997h16.462l17.56 54.436 17.889-54.436zm69.41 62.558v14.267h-59.485V1.422h58.058v14.267h-40.388v16.682h35.669V46.2h-35.669v17.78zm95.824-2.195h-35.669l-6.805 16.462h-18.219L262.51 1.422h17.56l34.352 76.825h-18.658zm-5.598-13.5L271.18 18.872l-12.182 29.413zm87.979 29.962-14.816-21.401h-16.353v21.401h-17.78V1.422h33.255q10.206 0 17.67 3.402 7.572 3.402 11.633 9.658 4.062 6.256 4.061 14.816 0 8.56-4.17 14.817-4.061 6.146-11.634 9.438l17.231 24.694zm-.329-48.949q0-6.476-4.17-9.877-4.171-3.512-12.183-3.512h-14.487v26.779h14.487q8.012 0 12.183-3.512t4.17-9.878m91.571 34.682v14.267h-59.485V1.422h58.058v14.267h-40.388v16.682h35.669V46.2h-35.669v17.78zM578.271 1.422v76.825h-17.779V46.75h-34.901v31.498h-17.78V1.422h17.78v30.29h34.901V1.423zm18.177 0h17.779v76.825h-17.779zm84.961 76.825-14.817-21.401h-16.353v21.401H632.46V1.422h33.254q10.207 0 17.67 3.402 7.573 3.402 11.634 9.658 4.06 6.256 4.06 14.816t-4.17 14.817q-4.06 6.146-11.634 9.438l17.231 24.694zm-.33-48.949q0-6.476-4.17-9.877-4.17-3.512-12.183-3.512h-14.487v26.779h14.487q8.012 0 12.183-3.512t4.17-9.878m32.086-27.876h17.78v76.825h-17.78zm106.472 0v76.825H805.04l-38.303-46.644v46.644h-17.56V1.422h14.707l38.193 46.644V1.422zm70.089 37.205h16.243v31.17q-6.256 4.718-14.487 7.243-8.232 2.524-16.573 2.524-11.962 0-21.511-5.048-9.548-5.16-15.036-14.158-5.377-9.11-5.377-20.524t5.377-20.413q5.488-9.11 15.146-14.158Q863.166.105 875.239.105q10.097 0 18.328 3.402t13.829 9.877L895.982 23.92q-8.232-8.67-19.865-8.67-7.353 0-13.061 3.073-5.707 3.073-8.889 8.67-3.183 5.598-3.183 12.841 0 7.134 3.183 12.731 3.182 5.598 8.78 8.78 5.706 3.074 12.95 3.073 7.682 0 13.829-3.292zm29.356-37.205h20.414l-3.402 50.156h-13.609zm10.207 77.703q-4.5 0-7.573-2.853-2.963-2.964-2.963-7.134t2.963-6.915q2.964-2.853 7.573-2.853 4.61 0 7.573 2.854 2.964 2.743 2.963 6.914t-3.073 7.134q-2.963 2.853-7.463 2.853"/><defs><linearGradient id="a" x1="35.637" x2="996.906" y1="-3.89" y2="113.997" gradientUnits="userSpaceOnUse"><stop stop-color="#77aef2"/><stop offset=".5" stop-color="#c2b375" stop-opacity=".8"/><stop offset="1" stop-color="#efc167" stop-opacity=".8"/></linearGradient></defs></svg>