<svg xmlns="http://www.w3.org/2000/svg" width="2297" height="300" fill="none" viewBox="0 0 2297 300"><path fill="#008c73" d="M188.312 291.838c-3.038 0-5.569-2.514-5.569-5.53V169.171c0-4.776-3.543-8.296-8.352-8.296H63.277c-4.81 0-8.353 3.52-8.353 8.296v116.886c0 3.016-2.53 5.53-5.568 5.53H5.568c-3.037 0-5.568-2.514-5.568-5.53V6.284C0 3.268 2.531.754 5.568.754h43.788c3.037 0 5.568 2.514 5.568 5.53v99.793c0 4.776 3.544 8.295 8.353 8.295H174.39c4.809 0 8.352-3.519 8.352-8.295V6.284c0-3.016 2.531-5.53 5.569-5.53h43.787c3.037 0 5.568 2.514 5.568 5.53v279.773c0 3.016-2.531 5.53-5.568 5.53h-43.787zm262.977 0c-2.024 0-3.543-.754-4.809-2.514l-75.679-113.115c-1.012-1.508-2.784-2.514-4.555-2.514h-3.544c-1.772 0-2.784 1.006-2.784 2.765v109.848c0 3.016-2.531 5.53-5.569 5.53h-43.787c-3.037 0-5.568-2.514-5.568-5.53V7.793a7.05 7.05 0 0 1 7.087-7.039h77.197c43.535 0 63.277 12.569 74.414 21.618 23.792 19.858 28.601 46.503 28.601 65.104 0 29.41-11.896 53.29-33.917 68.121-7.087 4.776-14.933 8.546-24.804 11.06-2.025.503-3.544 2.011-4.556 3.77-.759 2.011-.253 4.274.759 5.782l80.995 108.842c.759 1.508 1.012 3.017.253 4.525-.76 1.508-2.278 2.262-3.544 2.262zm-84.79-247.094c-3.544 0-6.328 2.765-6.328 6.284v78.427c0 3.519 2.784 6.284 6.328 6.284h11.389c17.465 0 58.215-4.525 58.215-46 0-29.41-20.249-45.247-57.455-45.247h-12.149zm328.28 122.667v122.416c0 2.262-1.772 3.77-3.797 3.77h-40.75c-2.278 0-3.797-1.759-3.797-3.77V167.411c0-2.262-1.771-3.771-3.796-3.771h-10.378c-2.278 0-3.796-1.759-3.796-3.77v-33.432c0-2.262 1.772-3.771 3.796-3.771h10.378c2.278 0 3.796-1.759 3.796-3.77v-43.99c0-15.836 1.013-42.983 22.78-60.579C679.339 5.53 693.513 0 711.484 0c9.871 0 17.717 1.76 25.564 5.027 1.518.503 2.278 2.011 2.278 3.52v34.186c0 3.016-3.038 4.776-5.822 3.519-5.062-2.514-10.124-3.52-16.199-3.52-6.327 0-12.908 1.76-17.464 8.798-3.797 6.285-5.315 15.585-5.315 29.913v36.7c0 2.262 1.771 3.77 3.796 3.77h36.701c2.278 0 3.796 1.76 3.796 3.771v33.18c0 2.263-1.771 3.771-3.796 3.771h-36.701c-2.025.754-3.543 2.514-3.543 4.776m227.373-26.645c17.211 15.585 29.36 39.213 29.36 67.367 0 27.65-11.896 51.53-29.36 66.863-14.68 13.574-36.954 24.132-69.858 24.132-32.903 0-55.177-10.809-69.857-24.132-17.211-15.584-29.36-39.213-29.36-66.863 0-28.154 11.896-52.034 29.36-67.367 14.68-13.574 36.954-24.131 69.857-24.131 32.904 0 55.178 10.557 69.858 24.131m-21.008 67.367c0-27.148-21.008-48.766-48.85-48.766-27.841 0-48.849 21.869-48.849 48.766 0 26.393 20.248 48.513 48.849 48.513 28.348 0 48.85-22.12 48.85-48.513m84.643-85.968h40.753c2.28 0 3.79 1.759 3.79 3.77v11.814c0 2.765 3.29 3.771 5.07 1.76 6.58-9.049 13.66-14.077 16.45-15.585 7.59-4.776 17.21-7.541 28.6-7.541 7.09 0 12.65 1.508 17.46 2.765 2.03.503 3.04 2.514 2.79 4.525l-5.06 36.197c-.26 2.765-3.29 4.273-5.57 3.016-5.07-2.514-10.38-3.519-17.72-3.519-9.11 0-22.78 2.011-32.4 13.825-9.11 11.563-9.36 26.394-9.36 38.208v78.427c0 2.262-1.77 3.77-3.8 3.77h-41.003c-2.278 0-3.797-1.759-3.797-3.77V126.186c-.253-2.262 1.772-4.021 3.797-4.021m298.783 122.919c2.53.502 4.3 3.267 3.03 5.53-7.59 16.087-28.85 48.765-83.02 48.765-27.84 0-49.1-8.044-66.31-24.131-19.24-18.099-27.34-40.219-27.34-66.864 0-33.935 13.93-55.05 26.58-67.367 20.25-19.858 44.29-24.131 65.05-24.131 35.18 0 55.43 13.825 67.33 28.153 18.47 21.869 21 48.766 21 67.367 0 2.262-1.77 3.77-3.79 3.77h-121.24c-2.28 0-4.3 2.011-3.8 4.274.51 9.049 3.29 18.349 8.35 24.634 5.32 7.289 15.95 16.338 34.93 16.338 17.21 0 30.88-7.792 38.98-20.36.76-1.509 2.53-2.263 3.8-2.011zm-44.55-59.826c2.53 0 4.55-2.514 3.8-5.027-5.57-19.858-23.29-29.662-40-29.662-16.7 0-33.91 10.055-39.48 29.662-.76 2.513 1.01 5.027 3.8 5.027zm212.34-19.104c0 3.268-3.54 5.027-6.33 3.268-9.11-6.284-19.99-10.055-33.66-10.055-32.4 0-48.85 23.629-48.85 48.514 0 28.153 21.26 48.765 50.37 48.765 9.11 0 20.5-2.262 32.14-10.054 2.79-2.011 6.33 0 6.33 3.267v36.7c0 1.76-.76 3.016-2.28 3.519-9.87 4.525-24.04 9.804-42.27 9.804-27.33 0-51.12-10.307-66.82-24.886-13.16-12.065-27.58-33.683-27.58-65.858 0-30.164 12.14-54.296 30.12-69.629 21.26-18.601 45.55-22.12 62.26-22.12 16.96 0 31.13 3.267 44.55 9.049 1.52.503 2.27 2.011 2.27 3.519v36.197zm166.6-43.989h40.75c2.27 0 3.79 1.759 3.79 3.77v163.641c0 2.262-1.77 3.77-3.79 3.77h-40.75c-2.28 0-3.8-1.759-3.8-3.77v-7.29c0-3.519-4.56-5.279-7.09-2.765-16.45 17.093-35.43 19.355-46.32 19.355-53.15 0-88.33-41.224-88.33-91.497 0-50.777 34.93-91.247 85.8-91.247 11.39 0 32.65 1.76 48.35 18.853 2.53 2.765 7.08.754 7.08-2.765v-6.536c.26-1.76 2.28-3.519 4.31-3.519m-95.17 85.716c0 27.399 19.99 48.766 47.84 48.766 27.84 0 47.83-21.367 47.83-48.766s-19.99-48.514-47.83-48.514c-27.85.252-47.84 21.115-47.84 48.514m272.49-47.76c-1.51 1.76-3.79 2.011-5.56.503-10.63-8.295-20.51-8.798-25.31-8.798-11.65 0-18.73 5.53-18.73 13.825 0 4.525 2.02 11.06 15.69 15.585l11.64 3.519c13.67 4.525 33.92 11.06 44.04 24.634 5.32 7.29 8.86 17.345 8.86 28.405 0 15.585-5.32 30.918-19.24 43.738s-30.62 18.35-51.88 18.35c-33.41 0-53.16-14.58-64.54-25.891-1.52-1.509-1.78-3.771-.26-5.279l20.25-23.126c1.52-1.759 4.3-2.011 5.82-.251 9.37 9.803 22.53 16.59 35.44 16.59 13.66 0 24.04-6.536 24.04-18.601 0-10.809-8.86-15.334-15.44-17.345l-11.13-3.77c-12.15-4.525-26.83-10.055-36.96-20.864-8.1-8.295-13.16-19.103-13.16-32.929 0-16.59 8.1-30.415 18.22-38.962 13.67-10.808 31.14-12.065 45.06-12.065 11.89 0 30.88 1.508 51.63 15.836 2.03 1.508 2.28 4.273.76 5.781zm121.66 7.29v122.416c0 2.262-1.77 3.77-3.79 3.77h-40.75c-2.28 0-3.8-1.759-3.8-3.77V167.411c0-2.263-1.77-3.771-3.8-3.771h-11.13c-2.28 0-3.8-1.759-3.8-3.77v-33.432c0-2.262 1.77-3.771 3.8-3.771h11.13c2.28 0 3.8-1.759 3.8-3.77v-51.53c0-2.263 1.77-3.771 3.8-3.771h40.75c2.28 0 3.79 1.76 3.79 3.77v50.777c0 2.262 1.78 3.77 3.8 3.77h25.56c2.28 0 3.8 1.76 3.8 3.771v33.18c0 2.263-1.77 3.771-3.8 3.771h-25.56c-1.77.754-3.8 2.513-3.8 4.776m222.07 77.673c2.54.502 4.31 3.267 3.04 5.53-7.59 16.087-28.85 48.765-83.02 48.765-27.84 0-49.1-8.044-66.31-24.131-19.24-18.099-27.34-40.219-27.34-66.864 0-33.935 13.92-55.05 26.58-67.367 20.25-19.858 44.29-24.131 65.05-24.131 35.18 0 55.43 13.825 67.32 28.153 18.48 21.869 21.01 48.766 21.01 67.367 0 2.262-1.77 3.77-3.79 3.77h-121.24c-2.28 0-4.31 2.011-3.8 4.274.51 9.049 3.29 18.349 8.35 24.634 5.32 7.289 15.95 16.338 34.93 16.338 17.21 0 30.88-7.792 38.98-20.36.76-1.508 2.53-2.263 3.8-2.011zm-44.8-59.826c2.54 0 4.56-2.514 3.8-5.027-5.57-19.858-23.29-29.662-39.99-29.662-16.71 0-33.92 10.055-39.49 29.662-.75 2.513 1.02 5.027 3.8 5.027zm86.14-63.093h40.75c2.28 0 3.8 1.759 3.8 3.77v11.815c0 2.765 3.29 3.77 5.06 1.759 6.58-9.049 13.67-14.076 16.45-15.585 7.6-4.776 17.21-7.541 28.6-7.541 7.09 0 12.66 1.509 17.47 2.765 2.02.503 3.03 2.514 2.78 4.525l-5.06 36.197c-.25 2.765-3.29 4.273-5.57 3.016-5.06-2.513-10.38-3.519-17.72-3.519-9.11 0-22.78 2.011-32.39 13.825-9.12 11.563-9.37 26.394-9.37 38.208v78.427c0 2.262-1.77 3.771-3.8 3.771h-40.75c-2.27 0-3.79-1.76-3.79-3.771v-163.64c-.51-2.263 1.26-4.022 3.54-4.022"/></svg>