<svg width="2297" height="300" viewBox="0 0 2297 300" fill="none" xmlns="http://www.w3.org/2000/svg">
<path d="M188.312 291.838C185.274 291.838 182.743 289.324 182.743 286.308V169.171C182.743 164.395 179.2 160.875 174.391 160.875H63.2767C58.4677 160.875 54.9242 164.395 54.9242 169.171V286.057C54.9242 289.073 52.3931 291.587 49.3559 291.587H5.56835C2.53107 291.587 0 289.073 0 286.057V6.28436C0 3.26795 2.53107 0.754272 5.56835 0.754272H49.3559C52.3931 0.754272 54.9242 3.26795 54.9242 6.28436V106.077C54.9242 110.853 58.4677 114.372 63.2767 114.372H174.391C179.2 114.372 182.743 110.853 182.743 106.077V6.28436C182.743 3.26795 185.274 0.754272 188.312 0.754272H232.099C235.136 0.754272 237.667 3.26795 237.667 6.28436V286.057C237.667 289.073 235.136 291.587 232.099 291.587H188.312V291.838Z" fill="#008C73"/>
<path d="M451.289 291.838C449.265 291.838 447.746 291.084 446.48 289.324L370.801 176.209C369.789 174.701 368.017 173.695 366.246 173.695H362.702C360.93 173.695 359.918 174.701 359.918 176.46V286.308C359.918 289.324 357.387 291.838 354.349 291.838H310.562C307.525 291.838 304.994 289.324 304.994 286.308V7.79257C304.994 4.02205 308.031 0.754272 312.081 0.754272H389.278C432.813 0.754272 452.555 13.3227 463.692 22.3719C487.484 42.2299 492.293 68.8749 492.293 87.4761C492.293 116.886 480.397 140.766 458.376 155.597C451.289 160.373 443.443 164.143 433.572 166.657C431.547 167.16 430.028 168.668 429.016 170.427C428.257 172.438 428.763 174.701 429.775 176.209L510.77 285.051C511.529 286.559 511.782 288.068 511.023 289.576C510.263 291.084 508.745 291.838 507.479 291.838H451.289ZM366.499 44.7436C362.955 44.7436 360.171 47.5087 360.171 51.0278V129.455C360.171 132.974 362.955 135.739 366.499 135.739H377.888C395.353 135.739 436.103 131.214 436.103 89.7384C436.103 60.3284 415.854 44.4923 378.648 44.4923H366.499V44.7436Z" fill="#008C73"/>
<path d="M694.779 167.411V289.827C694.779 292.089 693.007 293.597 690.982 293.597H650.232C647.954 293.597 646.435 291.838 646.435 289.827V167.411C646.435 165.149 644.664 163.64 642.639 163.64H632.261C629.983 163.64 628.465 161.881 628.465 159.87V126.438C628.465 124.176 630.237 122.667 632.261 122.667H642.639C644.917 122.667 646.435 120.908 646.435 118.897V74.9075C646.435 59.0714 647.448 31.9237 669.215 14.328C679.339 5.53009 693.513 0 711.484 0C721.355 0 729.201 1.75957 737.048 5.02735C738.566 5.53009 739.326 7.03829 739.326 8.5465V42.7325C739.326 45.7489 736.288 47.5085 733.504 46.2516C728.442 43.738 723.38 42.7325 717.305 42.7325C710.978 42.7325 704.397 44.4921 699.841 51.5304C696.044 57.8146 694.526 67.1152 694.526 81.4431V118.143C694.526 120.405 696.297 121.913 698.322 121.913H735.023C737.301 121.913 738.819 123.673 738.819 125.684V158.864C738.819 161.127 737.048 162.635 735.023 162.635H698.322C696.297 163.389 694.779 165.149 694.779 167.411Z" fill="#008C73"/>
<path d="M922.152 140.766C939.363 156.351 951.512 179.979 951.512 208.133C951.512 235.783 939.616 259.663 922.152 274.996C907.472 288.57 885.198 299.128 852.294 299.128C819.391 299.128 797.117 288.319 782.437 274.996C765.226 259.412 753.077 235.783 753.077 208.133C753.077 179.979 764.973 156.099 782.437 140.766C797.117 127.192 819.391 116.635 852.294 116.635C885.198 116.635 907.472 127.192 922.152 140.766ZM901.144 208.133C901.144 180.985 880.136 159.367 852.294 159.367C824.453 159.367 803.445 181.236 803.445 208.133C803.445 234.526 823.693 256.646 852.294 256.646C880.642 256.646 901.144 234.526 901.144 208.133Z" fill="#008C73"/>
<path d="M985.787 122.165H1026.54C1028.82 122.165 1030.33 123.924 1030.33 125.935V137.749C1030.33 140.514 1033.62 141.52 1035.4 139.509C1041.98 130.46 1049.06 125.432 1051.85 123.924C1059.44 119.148 1069.06 116.383 1080.45 116.383C1087.54 116.383 1093.1 117.891 1097.91 119.148C1099.94 119.651 1100.95 121.662 1100.7 123.673L1095.64 159.87C1095.38 162.635 1092.35 164.143 1090.07 162.886C1085 160.372 1079.69 159.367 1072.35 159.367C1063.24 159.367 1049.57 161.378 1039.95 173.192C1030.84 184.755 1030.59 199.586 1030.59 211.4V289.827C1030.59 292.089 1028.82 293.597 1026.79 293.597H985.787C983.509 293.597 981.99 291.838 981.99 289.827V126.186C981.737 123.924 983.762 122.165 985.787 122.165Z" fill="#008C73"/>
<path d="M1284.57 245.084C1287.1 245.586 1288.87 248.351 1287.6 250.614C1280.01 266.701 1258.75 299.379 1204.58 299.379C1176.74 299.379 1155.48 291.335 1138.27 275.248C1119.03 257.149 1110.93 235.029 1110.93 208.384C1110.93 174.449 1124.86 153.334 1137.51 141.017C1157.76 121.159 1181.8 116.886 1202.56 116.886C1237.74 116.886 1257.99 130.711 1269.89 145.039C1288.36 166.908 1290.89 193.805 1290.89 212.406C1290.89 214.668 1289.12 216.176 1287.1 216.176H1165.86C1163.58 216.176 1161.56 218.187 1162.06 220.45C1162.57 229.499 1165.35 238.799 1170.41 245.084C1175.73 252.373 1186.36 261.422 1205.34 261.422C1222.55 261.422 1236.22 253.63 1244.32 241.062C1245.08 239.553 1246.85 238.799 1248.12 239.051L1284.57 245.084ZM1240.02 185.258C1242.55 185.258 1244.57 182.744 1243.82 180.231C1238.25 160.373 1220.53 150.569 1203.82 150.569C1187.12 150.569 1169.91 160.624 1164.34 180.231C1163.58 182.744 1165.35 185.258 1168.14 185.258H1240.02Z" fill="#008C73"/>
<path d="M1452.36 166.154C1452.36 169.422 1448.82 171.181 1446.03 169.422C1436.92 163.138 1426.04 159.367 1412.37 159.367C1379.97 159.367 1363.52 182.996 1363.52 207.881C1363.52 236.034 1384.78 256.646 1413.89 256.646C1423 256.646 1434.39 254.384 1446.03 246.592C1448.82 244.581 1452.36 246.592 1452.36 249.859V286.559C1452.36 288.319 1451.6 289.575 1450.08 290.078C1440.21 294.603 1426.04 299.882 1407.81 299.882C1380.48 299.882 1356.69 289.575 1340.99 274.996C1327.83 262.931 1313.41 241.313 1313.41 209.138C1313.41 178.974 1325.55 154.842 1343.53 139.509C1364.79 120.908 1389.08 117.389 1405.79 117.389C1422.75 117.389 1436.92 120.656 1450.34 126.438C1451.86 126.941 1452.61 128.449 1452.61 129.957V166.154H1452.36V166.154Z" fill="#008C73"/>
<path d="M1618.96 122.165H1659.71C1661.98 122.165 1663.5 123.924 1663.5 125.935V289.576C1663.5 291.838 1661.73 293.346 1659.71 293.346H1618.96C1616.68 293.346 1615.16 291.587 1615.16 289.576V282.286C1615.16 278.767 1610.6 277.007 1608.07 279.521C1591.62 296.614 1572.64 298.876 1561.75 298.876C1508.6 298.876 1473.42 257.652 1473.42 207.379C1473.42 156.602 1508.35 116.132 1559.22 116.132C1570.61 116.132 1591.87 117.892 1607.57 134.985C1610.1 137.75 1614.65 135.739 1614.65 132.22V125.684C1614.91 123.924 1616.93 122.165 1618.96 122.165ZM1523.79 207.881C1523.79 235.28 1543.78 256.647 1571.63 256.647C1599.47 256.647 1619.46 235.28 1619.46 207.881C1619.46 180.482 1599.47 159.367 1571.63 159.367C1543.78 159.619 1523.79 180.482 1523.79 207.881Z" fill="#008C73"/>
<path d="M1796.28 160.121C1794.77 161.881 1792.49 162.132 1790.72 160.624C1780.09 152.329 1770.21 151.826 1765.41 151.826C1753.76 151.826 1746.68 157.356 1746.68 165.651C1746.68 170.176 1748.7 176.711 1762.37 181.236L1774.01 184.755C1787.68 189.28 1807.93 195.815 1818.05 209.389C1823.37 216.679 1826.91 226.734 1826.91 237.794C1826.91 253.379 1821.59 268.712 1807.67 281.532C1793.75 294.351 1777.05 299.882 1755.79 299.882C1722.38 299.882 1702.63 285.302 1691.25 273.991C1689.73 272.482 1689.47 270.22 1690.99 268.712L1711.24 245.586C1712.76 243.827 1715.54 243.575 1717.06 245.335C1726.43 255.138 1739.59 261.925 1752.5 261.925C1766.16 261.925 1776.54 255.389 1776.54 243.324C1776.54 232.515 1767.68 227.99 1761.1 225.979L1749.97 222.209C1737.82 217.684 1723.14 212.154 1713.01 201.345C1704.91 193.05 1699.85 182.242 1699.85 168.416C1699.85 151.826 1707.95 138.001 1718.07 129.454C1731.74 118.646 1749.21 117.389 1763.13 117.389C1775.02 117.389 1794.01 118.897 1814.76 133.225C1816.79 134.733 1817.04 137.498 1815.52 139.006L1796.28 160.121Z" fill="#008C73"/>
<path d="M1917.94 167.411V289.827C1917.94 292.089 1916.17 293.597 1914.15 293.597H1873.4C1871.12 293.597 1869.6 291.838 1869.6 289.827V167.411C1869.6 165.148 1867.83 163.64 1865.8 163.64H1854.67C1852.39 163.64 1850.87 161.881 1850.87 159.87V126.438C1850.87 124.176 1852.64 122.667 1854.67 122.667H1865.8C1868.08 122.667 1869.6 120.908 1869.6 118.897V67.3665C1869.6 65.1042 1871.37 63.5959 1873.4 63.5959H1914.15C1916.43 63.5959 1917.94 65.3555 1917.94 67.3665V118.143C1917.94 120.405 1919.72 121.913 1921.74 121.913H1947.3C1949.58 121.913 1951.1 123.673 1951.1 125.684V158.864C1951.1 161.127 1949.33 162.635 1947.3 162.635H1921.74C1919.97 163.389 1917.94 165.148 1917.94 167.411Z" fill="#008C73"/>
<path d="M2140.01 245.084C2142.55 245.586 2144.32 248.351 2143.05 250.614C2135.46 266.701 2114.2 299.379 2060.03 299.379C2032.19 299.379 2010.93 291.335 1993.72 275.248C1974.48 257.149 1966.38 235.029 1966.38 208.384C1966.38 174.449 1980.3 153.334 1992.96 141.017C2013.21 121.159 2037.25 116.886 2058.01 116.886C2093.19 116.886 2113.44 130.711 2125.33 145.039C2143.81 166.908 2146.34 193.805 2146.34 212.406C2146.34 214.668 2144.57 216.176 2142.55 216.176H2021.31C2019.03 216.176 2017 218.187 2017.51 220.45C2018.02 229.499 2020.8 238.799 2025.86 245.084C2031.18 252.373 2041.81 261.422 2060.79 261.422C2078 261.422 2091.67 253.63 2099.77 241.062C2100.53 239.554 2102.3 238.799 2103.57 239.051L2140.01 245.084ZM2095.21 185.258C2097.75 185.258 2099.77 182.744 2099.01 180.231C2093.44 160.373 2075.72 150.569 2059.02 150.569C2042.31 150.569 2025.1 160.624 2019.53 180.231C2018.78 182.744 2020.55 185.258 2023.33 185.258H2095.21Z" fill="#008C73"/>
<path d="M2181.35 122.165H2222.1C2224.38 122.165 2225.9 123.924 2225.9 125.935V137.75C2225.9 140.515 2229.19 141.52 2230.96 139.509C2237.54 130.46 2244.63 125.433 2247.41 123.924C2255.01 119.148 2264.62 116.383 2276.01 116.383C2283.1 116.383 2288.67 117.892 2293.48 119.148C2295.5 119.651 2296.51 121.662 2296.26 123.673L2291.2 159.87C2290.95 162.635 2287.91 164.143 2285.63 162.886C2280.57 160.373 2275.25 159.367 2267.91 159.367C2258.8 159.367 2245.13 161.378 2235.52 173.192C2226.4 184.755 2226.15 199.586 2226.15 211.4V289.827C2226.15 292.089 2224.38 293.598 2222.35 293.598H2181.6C2179.33 293.598 2177.81 291.838 2177.81 289.827V126.187C2177.3 123.924 2179.07 122.165 2181.35 122.165Z" fill="#008C73"/>
</svg>
