<!-- Generator: Adobe Illustrator 24.3.0, SVG Export Plug-In  -->
<svg version="1.1" xmlns="http://www.w3.org/2000/svg" xmlns:xlink="http://www.w3.org/1999/xlink" x="0px" y="0px"
	 width="" height="" viewBox="0 0 2849.2 857.6" style="overflow:visible;enable-background:new 0 0 2849.2 857.6;"
	 xml:space="preserve">
<style type="text/css">
	.st0{clip-path:url(#SVGID_4_);}
	.st1{clip-path:url(#SVGID_5_);}
	.st2{clip-path:url(#SVGID_6_);fill:#1E5093;}
	.st3{clip-path:url(#SVGID_10_);}
	.st4{clip-path:url(#SVGID_11_);}
	.st5{clip-path:url(#SVGID_12_);fill:#3778C8;}
	.st6{clip-path:url(#SVGID_15_);}
	.st7{clip-path:url(#SVGID_16_);fill:#73B2FD;}
	.st8{clip-path:url(#SVGID_19_);}
	.st9{clip-path:url(#SVGID_20_);fill:#212121;}
	.st10{clip-path:url(#SVGID_24_);}
	.st11{clip-path:url(#SVGID_25_);}
	.st12{clip-path:url(#SVGID_26_);fill:#1E5093;}
	.st13{clip-path:url(#SVGID_30_);}
	.st14{clip-path:url(#SVGID_31_);}
	.st15{clip-path:url(#SVGID_32_);fill:#3778C8;}
	.st16{clip-path:url(#SVGID_35_);}
	.st17{clip-path:url(#SVGID_36_);fill:#73B2FD;}
	.st18{clip-path:url(#SVGID_39_);}
	.st19{clip-path:url(#SVGID_40_);fill:#212121;}
</style>
<defs>
</defs>
<g>
	<g>
		<defs>
			<rect id="SVGID_1_" x="4.7" y="5" width="2840" height="848"/>
		</defs>
		<defs>
			<path id="SVGID_2_" d="M317.5,813.1c-180.8-346-180.8-529.9,0-551.8c180.8-21.9,357.5-1.7,530.1,60.4
				C815.8,118.5,614.1,13,242.5,5.1C-97.4-2.1-72.5,267.3,317.5,813.1L317.5,813.1z"/>
		</defs>
		<defs>
			<rect id="SVGID_3_" x="4.8" y="5.2" width="2839.9" height="847.9"/>
		</defs>
		<clipPath id="SVGID_4_">
			<use xlink:href="#SVGID_1_"  style="overflow:visible;"/>
		</clipPath>
		<clipPath id="SVGID_5_" class="st0">
			<use xlink:href="#SVGID_2_"  style="overflow:visible;"/>
		</clipPath>
		<clipPath id="SVGID_6_" class="st1">
			<use xlink:href="#SVGID_3_"  style="overflow:visible;"/>
		</clipPath>
		<rect class="st2" width="852.5" height="818.1"/>
	</g>
	<g>
		<defs>
			<rect id="SVGID_7_" x="4.7" y="5" width="2840" height="848"/>
		</defs>
		<defs>
			<path id="SVGID_8_" d="M318.7,261C164.5,151.8,60.6,129.5,6.9,194.1c-12.7-127,65.8-190,235.6-189
				c103.8,0.6,182.2,12.1,272.7,30.5c197.8,42.6,309.6,138.6,333,286.5c-48.2-17.3-133.5-47.2-238.6-58.3
				C504.6,252.8,435.9,249.9,318.7,261L318.7,261z"/>
		</defs>
		<defs>
			<rect id="SVGID_9_" x="4.8" y="5.2" width="2839.9" height="847.9"/>
		</defs>
		<clipPath id="SVGID_10_">
			<use xlink:href="#SVGID_7_"  style="overflow:visible;"/>
		</clipPath>
		<clipPath id="SVGID_11_" class="st3">
			<use xlink:href="#SVGID_8_"  style="overflow:visible;"/>
		</clipPath>
		<clipPath id="SVGID_12_" class="st4">
			<use xlink:href="#SVGID_9_"  style="overflow:visible;"/>
		</clipPath>
		<rect x="0.6" y="0.1" class="st5" width="852.7" height="327"/>
	</g>
	<g>
		<defs>
			<rect id="SVGID_13_" x="4.7" y="5" width="2840" height="848"/>
		</defs>
		<defs>
			<path id="SVGID_14_" d="M697.3,852.6C598.6,567.5,471.9,370.3,317.5,261c97-11.5,311.2-24,530.8,60.8
				C862.4,411,812.1,588,697.3,852.6L697.3,852.6z"/>
		</defs>
		<clipPath id="SVGID_15_">
			<use xlink:href="#SVGID_13_"  style="overflow:visible;"/>
		</clipPath>
		<clipPath id="SVGID_16_" class="st6">
			<use xlink:href="#SVGID_14_"  style="overflow:visible;"/>
		</clipPath>
		<rect x="312.5" y="247.8" class="st7" width="543.1" height="609.8"/>
	</g>
	<g>
		<defs>
			<rect id="SVGID_17_" x="4.7" y="5" width="2840" height="848"/>
		</defs>
		<defs>
			<path id="SVGID_18_" d="M1076.1,288.7h32.4v99.1h124v-99.1h32.4v238.7h-32.4V418.2h-124v109.2h-32.4V288.7L1076.1,288.7z
				 M1326.3,288.7h84.1c15.3,0,27.9,2.1,37.8,6.2c9.9,4.2,17.7,9.4,23.5,15.8s9.7,13.6,12,21.6c2.3,8,3.4,15.7,3.4,23.1
				c0,7.6-1.4,15-4.1,22.1c-2.7,7.1-6.6,13.5-11.7,19.2c-5.1,5.7-11.3,10.6-18.6,14.5c-7.3,3.9-15.5,6.4-24.5,7.2l67.9,108.9h-40.5
				l-60.8-105.2h-36.1v105.2h-32.4V288.7L1326.3,288.7z M1358.8,393.9h42.6c6.3,0,12.6-0.5,18.7-1.5c6.2-1,11.7-2.9,16.5-5.6
				c4.8-2.7,8.7-6.6,11.7-11.6c2.9-5.1,4.4-11.6,4.4-19.7c0-8.1-1.5-14.7-4.4-19.7c-2.9-5.1-6.8-8.9-11.7-11.6
				c-4.8-2.7-10.4-4.6-16.5-5.6c-6.2-1-12.4-1.5-18.7-1.5h-42.6V393.9L1358.8,393.9z M1633.7,477.6c5.9,8.8,13.3,15.2,22.5,19.4
				c9.1,4.2,18.5,6.2,28.2,6.2c5.4,0,10.9-0.8,16.5-2.5c5.6-1.7,10.8-4.2,15.4-7.6c4.6-3.4,8.4-7.5,11.3-12.5
				c2.9-4.9,4.4-10.7,4.4-17.2c0-9.2-2.9-16.2-8.8-21.1c-5.9-4.8-13.1-8.9-21.8-12.1c-8.7-3.3-18.1-6.4-28.4-9.4
				c-10.2-3-19.7-7.2-28.4-12.6c-8.7-5.4-15.9-12.6-21.8-21.7c-5.9-9.1-8.8-21.4-8.8-36.9c0-7,1.5-14.4,4.6-22.3
				c3-7.9,7.8-15.1,14.4-21.6c6.5-6.5,14.9-12,25.2-16.4c10.2-4.4,22.6-6.6,37-6.6c13.1,0,25.6,1.8,37.5,5.4
				c11.9,3.6,22.4,10.9,31.4,21.9l-26.3,23.9c-4.1-6.3-9.8-11.4-17.2-15.2c-7.4-3.8-15.9-5.7-25.3-5.7c-9,0-16.5,1.2-22.5,3.5
				c-6,2.4-10.8,5.4-14.4,9.1c-3.6,3.7-6.1,7.7-7.6,12c-1.5,4.3-2.2,8.2-2.2,11.8c0,10.1,2.9,17.9,8.8,23.3s13.1,9.8,21.8,13.1
				s18.1,6.4,28.4,9.1c10.2,2.7,19.7,6.5,28.4,11.3c8.7,4.8,15.9,11.4,21.8,19.6c5.9,8.2,8.8,19.5,8.8,33.9c0,11.5-2.2,21.8-6.6,31
				c-4.4,9.2-10.3,17-17.7,23.3c-7.4,6.3-16.2,11.1-26.3,14.5s-20.9,5.1-32.4,5.1c-15.3,0-29.8-2.7-43.6-8.1
				c-13.7-5.4-24.7-13.7-32.8-25L1633.7,477.6L1633.7,477.6z M1806.6,367.6h30.4v22.9h0.7c5.9-8.5,13.9-15.2,24.1-19.9
				s20.8-7.1,31.6-7.1c12.4,0,23.6,2.1,33.6,6.4s18.6,10.2,25.7,17.9c7.1,7.6,12.6,16.6,16.4,26.8c3.8,10.2,5.7,21.2,5.7,32.9
				c0,11.9-1.9,23-5.7,33.2c-3.8,10.2-9.3,19.1-16.4,26.6c-7.1,7.5-15.6,13.4-25.7,17.7c-10,4.3-21.2,6.4-33.6,6.4
				c-11.5,0-22.3-2.4-32.4-7.2c-10.1-4.8-17.9-11.4-23.3-19.7h-0.7v118h-30.4V367.6L1806.6,367.6z M1889.7,391.9
				c-8.1,0-15.4,1.4-22,4.2c-6.5,2.8-12,6.6-16.5,11.5c-4.5,4.8-8,10.7-10.5,17.5s-3.7,14.3-3.7,22.4c0,8.1,1.2,15.6,3.7,22.4
				c2.5,6.9,6,12.7,10.5,17.5c4.5,4.8,10,8.7,16.5,11.5c6.5,2.8,13.8,4.2,22,4.2s15.4-1.4,22-4.2c6.5-2.8,12-6.6,16.5-11.5
				c4.5-4.8,8-10.7,10.5-17.5c2.5-6.9,3.7-14.3,3.7-22.4c0-8.1-1.2-15.6-3.7-22.4c-2.5-6.9-6-12.7-10.5-17.5
				c-4.5-4.8-10-8.7-16.5-11.5C1905.1,393.3,1897.8,391.9,1889.7,391.9L1889.7,391.9z M2013.7,387.2c8.6-7.9,18.5-13.8,29.7-17.7
				c11.3-3.9,22.5-5.9,33.8-5.9c11.7,0,21.8,1.5,30.2,4.4c8.4,2.9,15.4,6.9,20.8,11.8c5.4,4.9,9.4,10.6,12,17
				c2.6,6.4,3.9,13.1,3.9,20.1v81.6c0,5.6,0.1,10.8,0.3,15.5c0.2,4.7,0.6,9.2,1,13.5h-27c-0.7-8.1-1-16.2-1-24.3h-0.7
				c-6.8,10.3-14.7,17.6-24,21.9c-9.2,4.3-19.9,6.4-32.1,6.4c-7.4,0-14.5-1-21.3-3c-6.8-2-12.7-5.1-17.7-9.1c-5.1-4-9.1-9-12-15
				c-2.9-6-4.4-12.9-4.4-20.7c0-10.3,2.3-19,6.9-26c4.6-7,10.9-12.6,18.9-17c8-4.4,17.3-7.5,28-9.4c10.7-1.9,22.1-2.9,34.3-2.9h22.3
				v-6.7c0-4-0.8-8.1-2.4-12.1s-3.9-7.7-7.1-11s-7.1-5.8-11.8-7.8c-4.7-1.9-10.4-2.9-16.9-2.9c-5.9,0-11,0.6-15.4,1.7
				c-4.4,1.1-8.4,2.5-12,4.2c-3.6,1.7-6.9,3.7-9.8,5.9c-2.9,2.2-5.7,4.4-8.4,6.4L2013.7,387.2L2013.7,387.2z M2099.4,450.6
				c-7.2,0-14.6,0.4-22.1,1.2c-7.5,0.8-14.4,2.3-20.6,4.6c-6.2,2.2-11.3,5.4-15.2,9.4c-3.9,4-5.9,9.2-5.9,15.5
				c0,9.2,3.1,15.8,9.3,19.9c6.2,4,14.6,6.1,25.2,6.1c8.3,0,15.4-1.4,21.3-4.2c5.9-2.8,10.6-6.5,14.2-11c3.6-4.5,6.2-9.5,7.8-15
				s2.4-11,2.4-16.4v-10.1H2099.4L2099.4,450.6z M2188.3,367.6h30.4v24.6h0.7c3.8-8.5,10.5-15.5,19.9-20.7
				c9.5-5.3,20.4-7.9,32.8-7.9c7.7,0,15,1.2,22.1,3.5c7.1,2.4,13.3,6,18.6,11c5.3,4.9,9.5,11.3,12.7,19.1s4.7,16.9,4.7,27.5v102.8
				h-30.4v-94.4c0-7.4-1-13.8-3-19.1c-2-5.3-4.7-9.6-8.1-12.8c-3.4-3.3-7.3-5.6-11.7-7.1c-4.4-1.5-9-2.2-13.7-2.2
				c-6.3,0-12.2,1-17.6,3c-5.4,2-10.1,5.2-14.2,9.6c-4.1,4.4-7.2,9.9-9.5,16.7c-2.3,6.7-3.4,14.7-3.4,23.9v82.3h-30.4V367.6
				L2188.3,367.6z M2376.1,367.6h30.4v24.6h0.7c3.8-8.5,10.5-15.5,19.9-20.7c9.5-5.3,20.4-7.9,32.8-7.9c7.7,0,15,1.2,22.1,3.5
				c7.1,2.4,13.3,6,18.6,11c5.3,4.9,9.5,11.3,12.7,19.1s4.7,16.9,4.7,27.5v102.8h-30.4v-94.4c0-7.4-1-13.8-3-19.1
				c-2-5.3-4.7-9.6-8.1-12.8c-3.4-3.3-7.3-5.6-11.7-7.1c-4.4-1.5-9-2.2-13.7-2.2c-6.3,0-12.2,1-17.6,3c-5.4,2-10.1,5.2-14.2,9.6
				c-4.1,4.4-7.2,9.9-9.5,16.7c-2.3,6.7-3.4,14.7-3.4,23.9v82.3h-30.4V367.6L2376.1,367.6z M2586.8,458.7c0,7,1.5,13.3,4.6,19.1
				c3,5.7,7,10.6,12,14.7c5,4,10.7,7.2,17.2,9.4c6.5,2.2,13.3,3.4,20.3,3.4c9.5,0,17.7-2.2,24.7-6.6s13.4-10.2,19.3-17.4l23,17.5
				c-16.9,21.8-40.5,32.7-70.9,32.7c-12.6,0-24-2.1-34.3-6.4c-10.2-4.3-18.9-10.2-26-17.7c-7.1-7.5-12.6-16.4-16.4-26.6
				c-3.8-10.2-5.7-21.3-5.7-33.2s2.1-23,6.2-33.2s9.9-19.1,17.2-26.6s16-13.4,26.2-17.7c10.1-4.3,21.2-6.4,33.1-6.4
				c14.2,0,26.2,2.5,36,7.4c9.8,4.9,17.8,11.4,24.1,19.4c6.3,8,10.9,17,13.7,27s4.2,20.2,4.2,30.5v10.8H2586.8L2586.8,458.7z
				 M2682.7,434.4c-0.2-6.7-1.3-12.9-3.2-18.5c-1.9-5.6-4.8-10.5-8.6-14.7c-3.8-4.2-8.6-7.4-14.4-9.8c-5.7-2.4-12.4-3.5-20.1-3.5
				c-7.4,0-14.2,1.4-20.4,4.2c-6.2,2.8-11.4,6.5-15.7,11c-4.3,4.5-7.6,9.5-10,15c-2.4,5.5-3.5,11-3.5,16.4H2682.7L2682.7,434.4z
				 M2751.6,367.6h30.4v24.6h0.7c2-4.3,4.7-8.1,8.1-11.6s7.1-6.5,11.3-8.9s8.7-4.4,13.7-5.9c5-1.5,9.9-2.2,14.9-2.2
				c5,0,9.5,0.7,13.5,2l-1.4,32.7c-2.5-0.7-5-1.2-7.4-1.7c-2.5-0.4-5-0.7-7.4-0.7c-14.9,0-26.2,4.2-34.1,12.5
				c-7.9,8.3-11.8,21.2-11.8,38.8v80.2h-30.4V367.6L2751.6,367.6z"/>
		</defs>
		<clipPath id="SVGID_19_">
			<use xlink:href="#SVGID_17_"  style="overflow:visible;"/>
		</clipPath>
		<clipPath id="SVGID_20_" class="st8">
			<use xlink:href="#SVGID_18_"  style="overflow:visible;"/>
		</clipPath>
		<rect x="1071.1" y="277.7" class="st9" width="1778.1" height="349.9"/>
	</g>
</g>
</svg>
