<svg xmlns="http://www.w3.org/2000/svg" width="42" height="42" fill="none" viewBox="0 0 42 42"><path fill="#fff" d="M3 6h36v2H3zm0 8h23v2H3zm4.812 23-3.29-8.764h-.056a11 11 0 0 1 .042.714q.029.435.042.952.014.504.014 1.036V37H3.402v-9.996h1.862l3.08 8.19H8.4l3.136-8.19h1.848V37h-1.246v-6.146q0-.49.014-.966.014-.49.042-.91.028-.434.042-.728h-.056L8.848 37zm11.021-7.644q.966 0 1.652.42.7.42 1.064 1.19.378.756.378 1.778v.742H16.79q.028 1.274.644 1.946.63.658 1.75.658a5.6 5.6 0 0 0 1.26-.126 7.6 7.6 0 0 0 1.148-.392v1.078a5.5 5.5 0 0 1-1.134.364 6 6 0 0 1-1.33.126q-1.065 0-1.89-.434a3.1 3.1 0 0 1-1.274-1.288q-.448-.868-.448-2.114 0-1.232.406-2.114.42-.881 1.162-1.358.757-.476 1.75-.476m-.014 1.008q-.882 0-1.4.574-.504.56-.602 1.568h3.822q0-.645-.196-1.12a1.6 1.6 0 0 0-.602-.742q-.392-.28-1.022-.28m8.63-1.008q1.344 0 2.03.658.687.645.687 2.1V37h-1.218v-4.802q0-.91-.407-1.358-.405-.448-1.274-.448-1.245 0-1.721.7-.477.7-.476 2.016V37h-1.233v-7.504h.994l.183 1.022h.07q.252-.392.616-.644a2.7 2.7 0 0 1 .826-.392q.447-.126.924-.126m11.315.14V37h-1.008l-.182-.994h-.056a2 2 0 0 1-.616.644q-.379.253-.826.364a3.5 3.5 0 0 1-.938.126q-.897 0-1.512-.28a1.97 1.97 0 0 1-.91-.896q-.309-.602-.308-1.554v-4.914h1.246v4.83q0 .896.406 1.344.405.448 1.26.448.84 0 1.316-.308.49-.323.686-.924.21-.615.21-1.484v-3.906z"/></svg>