<svg width="42" height="42" viewBox="0 0 42 42" fill="none" xmlns="http://www.w3.org/2000/svg">
<rect x="3" y="6" width="36" height="2" fill="white"/>
<rect x="3" y="14" width="23" height="2" fill="white"/>
<path d="M7.81195 37L4.52195 28.236H4.46595C4.48461 28.4227 4.49861 28.6607 4.50795 28.95C4.52661 29.2393 4.54061 29.5567 4.54995 29.902C4.55928 30.238 4.56395 30.5833 4.56395 30.938V37H3.40195V27.004H5.26395L8.34395 35.194H8.39995L11.5359 27.004H13.3839V37H12.1379V30.854C12.1379 30.5273 12.1426 30.2053 12.1519 29.888C12.1613 29.5613 12.1753 29.258 12.1939 28.978C12.2126 28.6887 12.2266 28.446 12.2359 28.25H12.1799L8.84795 37H7.81195ZM18.8331 29.356C19.4771 29.356 20.0278 29.496 20.4851 29.776C20.9518 30.056 21.3065 30.4527 21.5491 30.966C21.8011 31.47 21.9271 32.0627 21.9271 32.744V33.486H16.7891C16.8078 34.3353 17.0225 34.984 17.4331 35.432C17.8531 35.8707 18.4365 36.09 19.1831 36.09C19.6591 36.09 20.0791 36.048 20.4431 35.964C20.8165 35.8707 21.1991 35.74 21.5911 35.572V36.65C21.2085 36.818 20.8305 36.9393 20.4571 37.014C20.0838 37.098 19.6405 37.14 19.1271 37.14C18.4178 37.14 17.7878 36.9953 17.2371 36.706C16.6958 36.4167 16.2711 35.9873 15.9631 35.418C15.6645 34.8393 15.5151 34.1347 15.5151 33.304C15.5151 32.4827 15.6505 31.778 15.9211 31.19C16.2011 30.602 16.5885 30.1493 17.0831 29.832C17.5871 29.5147 18.1705 29.356 18.8331 29.356ZM18.8191 30.364C18.2311 30.364 17.7645 30.5553 17.4191 30.938C17.0831 31.3113 16.8825 31.834 16.8171 32.506H20.6391C20.6391 32.0767 20.5738 31.7033 20.4431 31.386C20.3125 31.0687 20.1118 30.8213 19.8411 30.644C19.5798 30.4573 19.2391 30.364 18.8191 30.364ZM27.4495 29.356C28.3455 29.356 29.0221 29.5753 29.4795 30.014C29.9368 30.4433 30.1655 31.1433 30.1655 32.114V37H28.9475V32.198C28.9475 31.5913 28.8121 31.1387 28.5415 30.84C28.2708 30.5413 27.8461 30.392 27.2675 30.392C26.4368 30.392 25.8628 30.6253 25.5455 31.092C25.2281 31.5587 25.0695 32.2307 25.0695 33.108V37H23.8375V29.496H24.8315L25.0135 30.518H25.0835C25.2515 30.2567 25.4568 30.042 25.6995 29.874C25.9515 29.6967 26.2268 29.566 26.5255 29.482C26.8241 29.398 27.1321 29.356 27.4495 29.356ZM38.7638 29.496V37H37.7558L37.5738 36.006H37.5178C37.3591 36.2673 37.1538 36.482 36.9018 36.65C36.6498 36.818 36.3744 36.9393 36.0758 37.014C35.7771 37.098 35.4644 37.14 35.1378 37.14C34.5404 37.14 34.0364 37.0467 33.6258 36.86C33.2244 36.664 32.9211 36.3653 32.7158 35.964C32.5104 35.5627 32.4078 35.0447 32.4078 34.41V29.496H33.6538V34.326C33.6538 34.9233 33.7891 35.3713 34.0598 35.67C34.3304 35.9687 34.7504 36.118 35.3198 36.118C35.8798 36.118 36.3184 36.0153 36.6358 35.81C36.9624 35.5953 37.1911 35.2873 37.3218 34.886C37.4618 34.4753 37.5318 33.9807 37.5318 33.402V29.496H38.7638Z" fill="white"/>
</svg>
