<svg width="42" height="42" viewBox="0 0 42 42" fill="none" xmlns="http://www.w3.org/2000/svg">
<rect x="4.42773" y="6" width="36" height="2" transform="rotate(20 4.42773 6)" fill="#333333"/>
<rect x="3.35156" y="18.3125" width="36" height="2" transform="rotate(-20 3.35156 18.3125)" fill="#333333"/>
<path d="M8.8754 27.97C8.3434 27.97 7.86273 28.0633 7.4334 28.25C7.00407 28.4273 6.64007 28.6933 6.3414 29.048C6.04273 29.3933 5.81407 29.818 5.6554 30.322C5.49673 30.8167 5.4174 31.3767 5.4174 32.002C5.4174 32.8233 5.5434 33.5373 5.7954 34.144C6.05673 34.7507 6.4394 35.2173 6.9434 35.544C7.45673 35.8707 8.09607 36.034 8.8614 36.034C9.30007 36.034 9.7154 35.9967 10.1074 35.922C10.4994 35.8473 10.8821 35.754 11.2554 35.642V36.734C10.8821 36.874 10.4947 36.9767 10.0934 37.042C9.7014 37.1073 9.23007 37.14 8.6794 37.14C7.66207 37.14 6.81273 36.93 6.1314 36.51C5.45007 36.09 4.93673 35.4927 4.5914 34.718C4.2554 33.9433 4.0874 33.0333 4.0874 31.988C4.0874 31.232 4.19007 30.5413 4.3954 29.916C4.61007 29.2907 4.91807 28.7493 5.3194 28.292C5.73007 27.8347 6.23407 27.4847 6.8314 27.242C7.42873 26.99 8.11473 26.864 8.8894 26.864C9.40273 26.864 9.8974 26.9153 10.3734 27.018C10.8494 27.1207 11.2741 27.2653 11.6474 27.452L11.1434 28.516C10.8354 28.376 10.4901 28.25 10.1074 28.138C9.73407 28.026 9.3234 27.97 8.8754 27.97ZM14.5011 37H13.2691V26.36H14.5011V37ZM23.4025 33.234C23.4025 33.8593 23.3185 34.4147 23.1505 34.9C22.9918 35.376 22.7585 35.782 22.4505 36.118C22.1518 36.454 21.7831 36.7107 21.3445 36.888C20.9151 37.056 20.4345 37.14 19.9025 37.14C19.4078 37.14 18.9505 37.056 18.5305 36.888C18.1105 36.7107 17.7465 36.454 17.4385 36.118C17.1305 35.782 16.8878 35.376 16.7105 34.9C16.5425 34.4147 16.4585 33.8593 16.4585 33.234C16.4585 32.4033 16.5985 31.7033 16.8785 31.134C17.1585 30.5553 17.5598 30.1167 18.0825 29.818C18.6051 29.51 19.2258 29.356 19.9445 29.356C20.6258 29.356 21.2231 29.51 21.7365 29.818C22.2591 30.1167 22.6651 30.5553 22.9545 31.134C23.2531 31.7033 23.4025 32.4033 23.4025 33.234ZM17.7325 33.234C17.7325 33.822 17.8071 34.3353 17.9565 34.774C18.1151 35.2033 18.3578 35.5347 18.6845 35.768C19.0111 36.0013 19.4265 36.118 19.9305 36.118C20.4345 36.118 20.8498 36.0013 21.1765 35.768C21.5031 35.5347 21.7411 35.2033 21.8905 34.774C22.0491 34.3353 22.1285 33.822 22.1285 33.234C22.1285 32.6367 22.0491 32.128 21.8905 31.708C21.7318 31.288 21.4891 30.966 21.1625 30.742C20.8451 30.5087 20.4298 30.392 19.9165 30.392C19.1511 30.392 18.5958 30.644 18.2505 31.148C17.9051 31.652 17.7325 32.3473 17.7325 33.234ZM30.241 34.928C30.241 35.4133 30.1197 35.8193 29.877 36.146C29.6344 36.4727 29.289 36.72 28.841 36.888C28.393 37.056 27.861 37.14 27.245 37.14C26.7224 37.14 26.2697 37.098 25.887 37.014C25.5137 36.93 25.1824 36.8133 24.893 36.664V35.544C25.1917 35.6933 25.551 35.8333 25.971 35.964C26.4004 36.0853 26.8344 36.146 27.273 36.146C27.8984 36.146 28.351 36.048 28.631 35.852C28.911 35.6467 29.051 35.376 29.051 35.04C29.051 34.8533 28.9997 34.6853 28.897 34.536C28.7944 34.3867 28.6077 34.2373 28.337 34.088C28.0757 33.9387 27.6977 33.7707 27.203 33.584C26.7177 33.3973 26.3024 33.2107 25.957 33.024C25.6117 32.8373 25.3457 32.6133 25.159 32.352C24.9724 32.0907 24.879 31.7547 24.879 31.344C24.879 30.7093 25.1357 30.2193 25.649 29.874C26.1717 29.5287 26.853 29.356 27.693 29.356C28.1504 29.356 28.575 29.4027 28.967 29.496C29.3684 29.58 29.7417 29.7013 30.087 29.86L29.667 30.84C29.4617 30.7467 29.2424 30.6673 29.009 30.602C28.785 30.5273 28.5564 30.4713 28.323 30.434C28.0897 30.3873 27.8517 30.364 27.609 30.364C27.105 30.364 26.7177 30.448 26.447 30.616C26.1857 30.7747 26.055 30.994 26.055 31.274C26.055 31.4793 26.1157 31.6567 26.237 31.806C26.3584 31.946 26.559 32.086 26.839 32.226C27.1284 32.3567 27.511 32.5153 27.987 32.702C28.463 32.8793 28.869 33.0613 29.205 33.248C29.541 33.4347 29.7977 33.6633 29.975 33.934C30.1524 34.1953 30.241 34.5267 30.241 34.928ZM34.9523 29.356C35.5963 29.356 36.1469 29.496 36.6043 29.776C37.0709 30.056 37.4256 30.4527 37.6683 30.966C37.9203 31.47 38.0463 32.0627 38.0463 32.744V33.486H32.9083C32.9269 34.3353 33.1416 34.984 33.5523 35.432C33.9723 35.8707 34.5556 36.09 35.3023 36.09C35.7783 36.09 36.1983 36.048 36.5623 35.964C36.9356 35.8707 37.3183 35.74 37.7103 35.572V36.65C37.3276 36.818 36.9496 36.9393 36.5763 37.014C36.2029 37.098 35.7596 37.14 35.2463 37.14C34.5369 37.14 33.9069 36.9953 33.3563 36.706C32.8149 36.4167 32.3903 35.9873 32.0823 35.418C31.7836 34.8393 31.6343 34.1347 31.6343 33.304C31.6343 32.4827 31.7696 31.778 32.0403 31.19C32.3203 30.602 32.7076 30.1493 33.2023 29.832C33.7063 29.5147 34.2896 29.356 34.9523 29.356ZM34.9383 30.364C34.3503 30.364 33.8836 30.5553 33.5383 30.938C33.2023 31.3113 33.0016 31.834 32.9363 32.506H36.7583C36.7583 32.0767 36.6929 31.7033 36.5623 31.386C36.4316 31.0687 36.2309 30.8213 35.9603 30.644C35.6989 30.4573 35.3583 30.364 34.9383 30.364Z" fill="#333333"/>
</svg>
