<svg xmlns="http://www.w3.org/2000/svg" width="300" height="150" fill="none" viewBox="0 0 300 150"><g stroke="#bbbcbc" stroke-linecap="round" stroke-linejoin="round" stroke-width="3" style="mix-blend-mode:multiply"><path d="M160.121 30.68a52.7 52.7 0 0 0-9.238-.882h-.571c-14.501.082-27.533 6.213-36.771 16.014A51.27 51.27 0 0 0 99.53 81.12c0 13.676 5.323 26.122 14.011 35.308 9.238 9.822 22.311 15.952 36.811 16.034h.531c14.48-.082 27.532-6.233 36.75-16.034 8.708-9.186 14.011-21.611 14.011-35.308 0-.984-.02-1.969-.082-2.953"/><path d="M113.541 45.812a60.5 60.5 0 0 0 14.928 8.324 61 61 0 0 0 22.128 4.122c4.813 0 9.524-.554 14.031-1.64m23.005 59.81a61.14 61.14 0 0 0-37.036-12.426 61.14 61.14 0 0 0-37.036 12.426"/><path d="M150.372 132.462c-16.927-10.744-28.184-29.731-28.184-51.322 0-21.59 11.237-40.577 28.164-51.322m.51-.02h.02a59.7 59.7 0 0 1 8.199 6.295m-8.26 96.369h.061c9.321-5.966 16.887-14.353 21.822-24.359 4.038-8.12 6.302-17.285 6.302-26.983 0-1.435-.041-2.85-.143-4.245m-28.266-47.077v102.664m51.047-51.342h-2.631m-16.54 0H99.53m78.905-41.726c0 6.828 5.507 12.384 12.318 12.384 6.812 0 12.318-5.536 12.318-12.384s-5.506-12.385-12.318-12.385-12.318 5.536-12.318 12.385"/><path d="M165.036 39.393c0 14.271 25.717 41.726 25.717 41.726s25.718-27.455 25.718-41.726c0-14.27-11.523-25.855-25.718-25.855s-25.717 11.584-25.717 25.855"/></g></svg>