<svg width="300" height="150" viewBox="0 0 300 150" fill="none" xmlns="http://www.w3.org/2000/svg">
<g style="mix-blend-mode:multiply">
<g clip-path="url(#clip0_78_2022)">
<path d="M105.173 37.4907H57.165V118.972H105.173V37.4907Z" stroke="#BBBCBC" stroke-width="3" stroke-linecap="round" stroke-linejoin="round"/>
<path d="M77.7371 47.708H66.9507V58.4225H77.7371V47.708Z" stroke="#BBBCBC" stroke-width="3" stroke-linecap="round" stroke-linejoin="round"/>
<path d="M77.7371 64.6445H66.9507V75.359H77.7371V64.6445Z" stroke="#BBBCBC" stroke-width="3" stroke-linecap="round" stroke-linejoin="round"/>
<path d="M77.7371 81.5806H66.9507V92.295H77.7371V81.5806Z" stroke="#BBBCBC" stroke-width="3" stroke-linecap="round" stroke-linejoin="round"/>
<path d="M95.3674 47.708H84.5811V58.4225H95.3674V47.708Z" stroke="#BBBCBC" stroke-width="3" stroke-linecap="round" stroke-linejoin="round"/>
<path d="M95.3674 64.6445H84.5811V75.359H95.3674V64.6445Z" stroke="#BBBCBC" stroke-width="3" stroke-linecap="round" stroke-linejoin="round"/>
<path d="M95.3674 81.5806H84.5811V92.295H95.3674V81.5806Z" stroke="#BBBCBC" stroke-width="3" stroke-linecap="round" stroke-linejoin="round"/>
<path d="M50.501 118.913H111.717" stroke="#BBBCBC" stroke-width="3" stroke-linecap="round" stroke-linejoin="round"/>
<path d="M243.955 37.4907H195.947V118.972H243.955V37.4907Z" stroke="#BBBCBC" stroke-width="3" stroke-linecap="round" stroke-linejoin="round"/>
<path d="M216.519 47.708H205.732V58.4225H216.519V47.708Z" stroke="#BBBCBC" stroke-width="3" stroke-linecap="round" stroke-linejoin="round"/>
<path d="M216.519 64.6445H205.732V75.359H216.519V64.6445Z" stroke="#BBBCBC" stroke-width="3" stroke-linecap="round" stroke-linejoin="round"/>
<path d="M216.519 81.5806H205.732V92.295H216.519V81.5806Z" stroke="#BBBCBC" stroke-width="3" stroke-linecap="round" stroke-linejoin="round"/>
<path d="M234.169 47.708H223.383V58.4225H234.169V47.708Z" stroke="#BBBCBC" stroke-width="3" stroke-linecap="round" stroke-linejoin="round"/>
<path d="M234.169 64.6445H223.383V75.359H234.169V64.6445Z" stroke="#BBBCBC" stroke-width="3" stroke-linecap="round" stroke-linejoin="round"/>
<path d="M234.169 81.5806H223.383V92.295H234.169V81.5806Z" stroke="#BBBCBC" stroke-width="3" stroke-linecap="round" stroke-linejoin="round"/>
<path d="M189.283 118.913H250.499" stroke="#BBBCBC" stroke-width="3" stroke-linecap="round" stroke-linejoin="round"/>
<path d="M142.355 93.3887H138.773C136.572 93.3887 134.811 91.6195 134.811 89.4329V69.813C134.811 66.2547 137.672 63.4121 141.254 63.4121H159.725C163.287 63.4121 166.169 66.2547 166.169 69.813V89.4329C166.169 91.6394 164.388 93.3887 162.187 93.3887H158.645" stroke="#BBBCBC" stroke-width="3" stroke-linecap="round" stroke-linejoin="round"/>
<path d="M159.145 72.4771L158.024 119.509H142.975L141.854 72.4771" stroke="#BBBCBC" stroke-width="3" stroke-linecap="round" stroke-linejoin="round"/>
<path d="M150.5 94.8799V119.509" stroke="#BBBCBC" stroke-width="3" stroke-linecap="round" stroke-linejoin="round"/>
<path d="M157.664 50.7696C157.664 46.8337 154.442 43.6333 150.48 43.6333C146.517 43.6333 143.295 46.8337 143.295 50.7696C143.295 54.7056 146.517 57.906 150.48 57.906C154.442 57.906 157.664 54.7056 157.664 50.7696Z" stroke="#BBBCBC" stroke-width="3" stroke-linecap="round" stroke-linejoin="round"/>
<path d="M125.085 77.4463L117.721 71.9201C117.06 71.4231 116.12 71.9002 116.12 72.7152V83.7676C116.12 84.5826 117.06 85.0597 117.721 84.5627L125.085 79.0366C125.605 78.639 125.605 77.8439 125.085 77.4463Z" fill="#BBBCBC"/>
<path d="M185.241 77.4463L177.876 71.9201C177.216 71.4231 176.275 71.9002 176.275 72.7152V83.7676C176.275 84.5826 177.216 85.0597 177.876 84.5627L185.241 79.0366C185.761 78.639 185.761 77.8439 185.241 77.4463Z" fill="#BBBCBC"/>
</g>
</g>
<defs>
<clipPath id="clip0_78_2022">
<rect width="203" height="85" fill="white" transform="translate(49 36)"/>
</clipPath>
</defs>
</svg>
