<svg xmlns="http://www.w3.org/2000/svg" width="58" height="399" fill="none" viewBox="0 0 58 399"><path fill="url(#a)" d="m1 51.6 33.6-.08L6.92 35.04V29.2l26.96-16.4H1V.64h56v10.72L22.2 32.32 57 52.96V63.6l-56 .16zm10.4 68.806H1v-43.36h56v42.32H46.6v-29.44H34.44v26H24.36v-26H11.4zM.04 149.118q0-6.64 1.76-12.88 1.84-6.16 4.72-9.92l9.76 4.4q-2.64 3.6-4.24 8.56t-1.6 9.92q0 5.52 1.6 8.16 1.68 2.64 4.4 2.64 2 0 3.28-1.6 1.36-1.52 2.16-4 .8-2.4 1.76-6.56 1.52-6.4 3.04-10.48t4.88-7.04q3.36-2.88 8.96-2.88 4.88 0 8.8 2.64 4 2.64 6.32 7.92 2.32 5.36 2.32 13.04 0 5.36-1.28 10.48t-3.68 8.96l-9.84-4q4.4-7.76 4.4-15.52 0-5.44-1.76-8.08-1.76-2.56-4.64-2.56t-4.32 2.96q-1.36 3.04-2.72 9.2-1.52 6.4-3.04 10.48a17.04 17.04 0 0 1-4.8 6.96q-3.28 2.96-8.88 2.96-4.8 0-8.8-2.72-3.92-2.64-6.24-8t-2.32-13.04m0 51.016q0-6.64 1.76-12.88 1.84-6.16 4.72-9.92l9.76 4.4q-2.64 3.6-4.24 8.56t-1.6 9.92q0 5.52 1.6 8.16 1.68 2.64 4.4 2.64 2 0 3.28-1.6 1.36-1.52 2.16-4 .8-2.4 1.76-6.56 1.52-6.4 3.04-10.48t4.88-7.04q3.36-2.88 8.96-2.88 4.88 0 8.8 2.64 4 2.64 6.32 7.92 2.32 5.36 2.32 13.04 0 5.36-1.28 10.48t-3.68 8.96l-9.84-4q4.4-7.76 4.4-15.52 0-5.44-1.76-8.08-1.76-2.56-4.64-2.56t-4.32 2.96q-1.36 3.04-2.72 9.2-1.52 6.4-3.04 10.48a17.04 17.04 0 0 1-4.8 6.96q-3.28 2.96-8.88 2.96-4.8 0-8.8-2.72-3.92-2.64-6.24-8t-2.32-13.04M13 269.629v-26l-12-4.96v-13.28l56 24.96v12.8l-56 25.04v-13.6zm9.84-4.08 21.44-8.88-21.44-8.88zm7.04 65.509v11.84H7.16q-3.44-4.56-5.28-10.56t-1.84-12.08q0-8.72 3.68-15.68 3.76-6.96 10.32-10.96 6.64-3.92 14.96-3.92t14.88 3.92q6.64 4 10.32 11.04 3.76 7.04 3.76 15.84 0 7.36-2.48 13.36t-7.2 10.08l-7.68-8.32q6.32-6 6.32-14.48 0-5.36-2.24-9.52t-6.32-6.48-9.36-2.32q-5.2 0-9.28 2.32a16.77 16.77 0 0 0-6.4 6.4q-2.24 4.16-2.24 9.44 0 5.6 2.4 10.08zM11.4 398.297H1v-43.36h56v42.32H46.6v-29.44H34.44v26H24.36v-26H11.4z" opacity=".45"/><defs><linearGradient id="a" x1="7.558" x2="12.563" y1="-6" y2="402" gradientUnits="userSpaceOnUse"><stop stop-color="#b5cfee"/><stop offset="1" stop-color="#dadada"/></linearGradient></defs></svg>