<svg width="58" height="399" viewBox="0 0 58 399" fill="none" xmlns="http://www.w3.org/2000/svg">
<path opacity="0.45" d="M0.999997 51.6L34.6 51.52L6.92 35.04L6.92 29.2L33.88 12.8L0.999999 12.8L1 0.639996L57 0.639999L57 11.36L22.2 32.32L57 52.96L57 63.6L0.999997 63.76L0.999997 51.6ZM11.4 120.406L0.999994 120.406L0.999996 77.0462L57 77.0462L57 119.366L46.6 119.366L46.6 89.9262L34.44 89.9262L34.44 115.926L24.36 115.926L24.36 89.9262L11.4 89.9262L11.4 120.406ZM0.0399932 149.118C0.0399934 144.691 0.62666 140.398 1.79999 136.238C3.02666 132.131 4.59999 128.825 6.51999 126.318L16.28 130.718C14.52 133.118 13.1067 135.971 12.04 139.278C10.9733 142.585 10.44 145.891 10.44 149.198C10.44 152.878 10.9733 155.598 12.04 157.358C13.16 159.118 14.6267 159.998 16.44 159.998C17.7733 159.998 18.8667 159.465 19.72 158.398C20.6267 157.385 21.3467 156.051 21.88 154.398C22.4133 152.798 23 150.611 23.64 147.838C24.6533 143.571 25.6667 140.078 26.68 137.358C27.6933 134.638 29.32 132.291 31.56 130.318C33.8 128.398 36.7867 127.438 40.52 127.438C43.7733 127.438 46.7067 128.318 49.32 130.078C51.9867 131.838 54.0933 134.478 55.64 137.998C57.1867 141.571 57.96 145.918 57.96 151.038C57.96 154.611 57.5333 158.105 56.68 161.518C55.8267 164.931 54.6 167.918 53 170.478L43.16 166.478C46.0933 161.305 47.56 156.131 47.56 150.958C47.56 147.331 46.9733 144.638 45.8 142.878C44.6267 141.171 43.08 140.318 41.16 140.318C39.24 140.318 37.8 141.305 36.84 143.278C35.9333 145.305 35.0267 148.371 34.12 152.478C33.1067 156.745 32.0933 160.238 31.08 162.958C30.0667 165.678 28.4667 167.998 26.28 169.918C24.0933 171.891 21.1333 172.878 17.4 172.878C14.2 172.878 11.2667 171.971 8.59999 170.158C5.98666 168.398 3.90666 165.731 2.35999 162.158C0.813326 158.585 0.039993 154.238 0.0399932 149.118ZM0.039991 200.134C0.0399912 195.707 0.626658 191.414 1.79999 187.254C3.02666 183.147 4.59999 179.84 6.51999 177.334L16.28 181.734C14.52 184.134 13.1067 186.987 12.04 190.294C10.9733 193.6 10.44 196.907 10.44 200.214C10.44 203.894 10.9733 206.614 12.04 208.374C13.16 210.134 14.6267 211.014 16.44 211.014C17.7733 211.014 18.8667 210.48 19.72 209.414C20.6267 208.4 21.3467 207.067 21.88 205.414C22.4133 203.814 23 201.627 23.64 198.854C24.6533 194.587 25.6667 191.094 26.68 188.374C27.6933 185.654 29.32 183.307 31.56 181.334C33.8 179.414 36.7867 178.454 40.52 178.454C43.7733 178.454 46.7067 179.334 49.32 181.094C51.9867 182.854 54.0933 185.494 55.64 189.014C57.1867 192.587 57.96 196.934 57.96 202.054C57.96 205.627 57.5333 209.12 56.68 212.534C55.8267 215.947 54.6 218.934 53 221.494L43.16 217.494C46.0933 212.32 47.56 207.147 47.56 201.974C47.56 198.347 46.9733 195.654 45.8 193.894C44.6267 192.187 43.08 191.334 41.16 191.334C39.24 191.334 37.8 192.32 36.84 194.294C35.9333 196.32 35.0267 199.387 34.12 203.494C33.1067 207.76 32.0933 211.254 31.08 213.974C30.0667 216.694 28.4667 219.014 26.28 220.934C24.0933 222.907 21.1333 223.894 17.4 223.894C14.2 223.894 11.2667 222.987 8.59999 221.174C5.98666 219.414 3.90666 216.747 2.35999 213.174C0.813324 209.6 0.0399908 205.254 0.039991 200.134ZM13 269.629L13 243.629L0.999989 238.669L0.99999 225.389L57 250.349L57 263.149L0.999987 288.189L0.999988 274.589L13 269.629ZM22.84 265.549L44.28 256.669L22.84 247.789L22.84 265.549ZM29.88 331.058L29.88 342.898L7.15999 342.898C4.86665 339.858 3.10665 336.338 1.87999 332.338C0.653319 328.338 0.0399856 324.311 0.0399857 320.258C0.039986 314.445 1.26665 309.218 3.71999 304.578C6.22665 299.938 9.66665 296.285 14.04 293.618C18.4667 291.005 23.4533 289.698 29 289.698C34.5467 289.698 39.5067 291.005 43.88 293.618C48.3067 296.285 51.7467 299.965 54.2 304.658C56.7067 309.351 57.96 314.631 57.96 320.498C57.96 325.405 57.1333 329.858 55.48 333.858C53.8267 337.858 51.4267 341.218 48.28 343.938L40.6 335.618C44.8133 331.618 46.92 326.791 46.92 321.138C46.92 317.565 46.1733 314.391 44.68 311.618C43.1867 308.845 41.08 306.685 38.36 305.138C35.64 303.591 32.52 302.818 29 302.818C25.5333 302.818 22.44 303.591 19.72 305.138C17 306.685 14.8667 308.818 13.32 311.538C11.8267 314.311 11.08 317.458 11.08 320.978C11.08 324.711 11.88 328.071 13.48 331.058L29.88 331.058ZM11.4 398.297L0.999982 398.297L0.999984 354.937L57 354.937L57 397.257L46.6 397.257L46.6 367.817L34.44 367.817L34.44 393.817L24.36 393.817L24.36 367.817L11.4 367.817L11.4 398.297Z" fill="url(#paint0_linear_364_2775)"/>
<defs>
<linearGradient id="paint0_linear_364_2775" x1="7.55844" y1="-6" x2="12.5633" y2="402" gradientUnits="userSpaceOnUse">
<stop stop-color="#B5CFEE"/>
<stop offset="1" stop-color="#DADADA"/>
</linearGradient>
</defs>
</svg>
