<svg width="266" height="133" viewBox="0 0 266 133" fill="none" xmlns="http://www.w3.org/2000/svg">
<g clip-path="url(#clip0_127_630)">
<path d="M179.465 34.4541C172.803 34.5192 167.453 39.9719 167.518 46.6342C167.583 53.2965 173.036 58.6469 179.698 58.5818C186.314 58.5166 191.645 53.1384 191.645 46.5226C191.645 39.8603 186.248 34.4634 179.586 34.4634C179.549 34.4634 179.512 34.4634 179.474 34.4634L179.465 34.4541ZM179.465 54.7853C175.092 54.7853 171.537 51.082 171.537 46.5133C171.537 41.9445 175.083 38.2412 179.465 38.2412C183.848 38.2412 187.393 41.9445 187.393 46.5133C187.393 51.082 183.848 54.7853 179.465 54.7853Z" fill="#969799"/>
<path d="M80.5823 48.2716H92.232V44.5403H80.5823V38.5759H93.637V34.8726H76.3857V58.1814H93.8697V54.478H80.5823V48.2809V48.2716Z" fill="#969799"/>
<path d="M208.19 54.4501V34.8726H203.993V58.1814H220.314V54.4501H208.19Z" fill="#969799"/>
<path d="M55.7563 34.8633H46.5537V58.1721H50.7502V50.7189H55.7656C60.8368 50.7189 64.5029 47.1737 64.5029 42.7911C64.5029 38.4084 61.8231 34.8633 55.7656 34.8633M55.4213 46.9876H50.7595V38.5946H55.4213C58.8734 38.5946 60.4366 40.4741 60.4366 42.7911C60.4366 45.108 58.6315 46.9876 55.4213 46.9876Z" fill="#969799"/>
<path d="M126.26 42.7911C126.26 38.4177 123.58 34.8633 117.522 34.8633H108.32V58.1721H112.516V50.7189H117.085L122.305 58.1814H127.199L121.43 49.9372C124.334 48.7555 126.25 45.9361 126.269 42.8004M117.178 46.9969H112.516V38.6038H117.178C120.63 38.6038 122.193 40.4834 122.193 42.8004C122.193 45.1173 120.388 46.9969 117.178 46.9969Z" fill="#969799"/>
<path d="M153.663 46.318C152.183 45.3689 150.387 44.8757 148.191 44.3268C144.218 43.3311 143.585 42.6146 143.585 41.284C143.585 39.2742 145.54 38.3716 147.475 38.3716C150.285 38.3716 152.676 39.7208 153.849 40.5303C154.584 41.0235 155.263 41.6004 155.868 42.2517V37.1154C153.393 35.422 150.48 34.4822 147.475 34.4077C142.925 34.4077 139.622 37.3015 139.622 41.284C139.622 46.2622 144.386 47.4532 147.224 48.1697C151.634 49.277 152.648 49.9562 152.648 51.7707C152.704 52.5802 152.295 53.3618 151.597 53.7712C150.471 54.3574 149.215 54.6366 147.94 54.5715C144.572 54.5715 140.896 52.1428 139.78 51.0356V55.9486C139.845 55.9951 139.919 56.0323 139.994 56.0789C141.538 56.9907 144.628 58.5353 147.94 58.5353C153.29 58.5353 156.612 55.9486 156.612 51.78C156.696 49.5654 155.561 47.4718 153.663 46.3273" fill="#969799"/>
<path d="M126.26 74.9029C126.26 70.5296 123.58 66.9751 117.522 66.9751H108.32V90.2839H112.516V82.8307H117.085L122.305 90.2932H127.199L121.43 82.0491C124.334 80.8673 126.25 78.048 126.269 74.9122M117.178 79.1087H112.516V70.7157H117.178C120.63 70.7157 122.193 72.5953 122.193 74.9122C122.193 77.2291 120.388 79.1087 117.178 79.1087Z" fill="#164FB8"/>
<path d="M46.5537 66.9561H50.9177L58.0174 77.9917L65.117 66.9561H69.481V90.2835H65.3775V73.5532L58.0081 84.5516H57.8778L50.5827 73.6183V90.2835H46.5537V66.9561Z" fill="#164FB8"/>
<path d="M86.835 66.9561H90.9384V90.2835H86.835V66.9561Z" fill="#164FB8"/>
<path d="M149.997 66.7886H153.793L164.056 90.2835H159.72L157.357 84.654H146.321L143.921 90.2835H139.724L149.987 66.7886H149.997ZM155.859 81.0251L151.83 71.6922L147.829 81.0251H155.859Z" fill="#164FB8"/>
<path d="M179.028 66.9561H183.131V90.2835H179.028V66.9561Z" fill="#164FB8"/>
<path d="M201.211 87.2501L214.973 70.5849H201.639V66.9561H220.305V69.9894L206.543 86.6545H220.305V90.2835H201.211V87.2501Z" fill="#003CAD"/>
</g>
<defs>
<clipPath id="clip0_127_630">
<rect width="236" height="104" fill="white" transform="translate(15 14)"/>
</clipPath>
</defs>
</svg>
