<svg width="136" height="60" viewBox="0 0 136 60" fill="none" xmlns="http://www.w3.org/2000/svg">
<path d="M87.8529 10.403C85.1906 10.403 83.0321 12.5425 83.0321 15.1782C83.0321 17.8152 85.1906 19.9534 87.8529 19.9534C90.5152 19.9534 92.6749 17.8139 92.6749 15.1782C92.6749 12.5412 90.5152 10.403 87.8529 10.403V10.403ZM87.8529 18.4545C86.1198 18.4545 84.7133 16.986 84.7133 15.1782C84.7133 13.3704 86.1198 11.9006 87.8529 11.9006C89.586 11.9006 90.9925 13.3691 90.9925 15.1782C90.9874 16.986 89.586 18.4558 87.8529 18.4558V18.4545ZM45.4522 15.8694H50.0679V14.3908H45.4534V12.031H50.6223V10.5625H43.7912V19.7951H50.7135V18.3266H45.4534V15.8694H45.4522ZM100.443 18.3178V10.5625H98.7806V19.7951H105.243V18.3178H100.443ZM34.4067 10.5625H30.7607V19.7951H32.4229V16.8391H34.4067C36.4158 16.8391 37.8678 15.4339 37.8678 13.7008C37.8678 11.9677 36.8095 10.5612 34.4067 10.5612V10.5625ZM34.2687 15.3618H32.4229V12.0399H34.2687C35.6334 12.0399 36.2525 12.7843 36.2525 13.7008C36.2563 14.6174 35.5372 15.363 34.2687 15.363V15.3618ZM64.7593 13.7008C64.7593 11.9677 63.6959 10.5612 61.2969 10.5612H57.6509V19.7951H59.3131V16.8391H61.1209L63.1895 19.7964H65.1264L62.8414 16.5302C64.0098 16.0239 64.758 14.9453 64.758 13.7021L64.7593 13.7008ZM61.1589 15.363H59.3131V12.0399H61.1589C62.5236 12.0399 63.1427 12.7843 63.1427 13.7008C63.1427 14.6174 62.4274 15.363 61.1589 15.363ZM76.8201 15.0946C76.2352 14.7225 75.5237 14.525 74.6566 14.3034C73.083 13.911 72.8323 13.6249 72.8323 13.0982C72.8323 12.3032 73.6058 11.9424 74.3717 11.9424C75.4858 11.9424 76.4314 12.4792 76.896 12.7969C77.248 13.04 77.5113 13.278 77.6949 13.4793V11.4487C76.9922 10.9853 75.8035 10.3777 74.3717 10.3777C72.5677 10.3777 71.2625 11.5246 71.2625 13.102C71.2625 15.0731 73.1463 15.5453 74.2755 15.8314C76.0213 16.2707 76.4226 16.5391 76.4226 17.2582C76.4226 17.6228 76.2934 17.8658 76.0048 18.0494C75.6782 18.2545 75.1667 18.3671 74.5565 18.3671C73.221 18.3671 71.7689 17.405 71.3258 16.9695V18.9153L71.4094 18.9659C72.0196 19.3305 73.2425 19.9369 74.5565 19.9369C76.6745 19.9369 77.9873 18.9115 77.9873 17.2582C77.9923 16.3163 77.5986 15.5922 76.8201 15.0934V15.0946Z" fill="#97999B"/>
<path d="M43.6225 30.2875H39.8019C39.7575 30.2875 39.7148 30.3051 39.6833 30.3364C39.6517 30.3677 39.6339 30.4102 39.6335 30.4546V48.8869C39.6335 48.9781 39.7095 49.054 39.8019 49.054H43.6225C43.715 49.054 43.7897 48.9781 43.7897 48.8869V30.4546C43.79 30.4326 43.7859 30.4107 43.7776 30.3903C43.7694 30.3698 43.7571 30.3513 43.7415 30.3357C43.7259 30.3201 43.7073 30.3078 43.6869 30.2995C43.6665 30.2912 43.6446 30.2872 43.6225 30.2875V30.2875ZM101.639 30.2875H97.8182C97.7738 30.2875 97.7311 30.3051 97.6996 30.3364C97.668 30.3677 97.6501 30.4102 97.6498 30.4546V48.8869C97.6498 48.9781 97.7258 49.054 97.8182 49.054H101.639C101.731 49.054 101.806 48.9781 101.806 48.8869V30.4546C101.806 30.4104 101.788 30.3681 101.757 30.3368C101.725 30.3055 101.683 30.2878 101.639 30.2875V30.2875ZM124.803 45.3119H114.84C114.824 45.3119 114.809 45.3073 114.795 45.2986C114.782 45.29 114.771 45.2777 114.764 45.2632C114.758 45.2486 114.755 45.2325 114.758 45.2167C114.76 45.2009 114.767 45.186 114.777 45.1739L124.035 33.8613L124.554 33.241L124.65 32.9751V30.4546C124.65 30.4102 124.632 30.3677 124.6 30.3364C124.569 30.3051 124.526 30.2875 124.482 30.2875H109.181C109.137 30.2875 109.094 30.3051 109.063 30.3364C109.031 30.3677 109.013 30.4102 109.013 30.4546V33.8613C109.013 33.9537 109.089 34.0284 109.181 34.0284H118.598C118.669 34.0284 118.706 34.1132 118.661 34.1677L109.47 45.379L108.892 46.0828L108.795 46.3462V48.8907C108.795 48.9832 108.871 49.0578 108.964 49.0578H124.801C124.892 49.0578 124.968 48.9819 124.968 48.8907V45.484C124.969 45.4618 124.966 45.4395 124.958 45.4185C124.95 45.3976 124.938 45.3785 124.923 45.3623C124.907 45.3462 124.889 45.3334 124.868 45.3247C124.848 45.316 124.826 45.3117 124.803 45.3119V45.3119ZM67.5871 48.7907L67.2732 48.3426C67.2656 48.3299 67.2656 48.3173 67.2567 48.3097L63.2689 42.6129C63.2557 42.5941 63.2465 42.5728 63.242 42.5502C63.2375 42.5277 63.2378 42.5045 63.2428 42.4821C63.2478 42.4597 63.2574 42.4385 63.2711 42.4201C63.2848 42.4016 63.3021 42.3862 63.3221 42.3749C65.378 41.2102 66.625 39.1391 66.625 36.8198C66.625 32.0029 62.9284 30.2875 59.4685 30.2875H52.126C52.082 30.2882 52.04 30.306 52.009 30.3372C51.978 30.3685 51.9605 30.4106 51.9601 30.4546V48.8869C51.9601 48.9781 52.0361 49.054 52.1273 49.054H55.9479C56.0403 49.054 56.1163 48.9781 56.1163 48.8869V43.5205C56.1163 43.4294 56.191 43.3534 56.2834 43.3534H58.7102C58.7643 43.3538 58.8174 43.3669 58.8654 43.3918C58.9134 43.4166 58.9548 43.4525 58.9862 43.4965L62.779 48.9123C62.8423 48.9996 62.9423 49.054 63.055 49.054H67.4542C67.5871 49.054 67.6669 48.9021 67.5871 48.7907V48.7907ZM56.2821 39.553C56.2379 39.5527 56.1956 39.535 56.1643 39.5037C56.1331 39.4725 56.1153 39.4301 56.115 39.3859V34.255C56.115 34.1626 56.191 34.0879 56.2834 34.0879H59.2039C61.3384 34.0879 62.5613 35.0829 62.5613 36.8198C62.5613 38.4567 61.213 39.5543 59.2039 39.5543H56.2834L56.2821 39.553ZM31.025 30.3128H27.455C27.3989 30.3132 27.3437 30.3276 27.2946 30.3548C27.2455 30.382 27.204 30.4211 27.174 30.4685L21.186 40.9899C21.1783 41.0025 21.1675 41.0129 21.1546 41.0201C21.1418 41.0273 21.1273 41.031 21.1126 41.031C21.0978 41.031 21.0833 41.0273 21.0705 41.0201C21.0576 41.0129 21.0468 41.0025 21.0391 40.9899L15.0663 30.485C15.0368 30.4337 14.9941 30.3913 14.9427 30.3619C14.8913 30.3325 14.8331 30.3173 14.7739 30.3179H11.1988C11.1546 30.3182 11.1123 30.3359 11.081 30.3672C11.0498 30.3985 11.0321 30.4408 11.0317 30.485V48.8629C11.0317 48.954 11.1077 49.03 11.1988 49.03H15.0119C15.1043 49.03 15.179 48.954 15.179 48.8629V38.5377C15.179 38.4795 15.2335 38.4453 15.2841 38.458L20.0555 46.8665C20.0846 46.9171 20.139 46.95 20.2011 46.95H22.0266C22.0561 46.9498 22.0852 46.942 22.1109 46.9273C22.1366 46.9127 22.1581 46.8918 22.1734 46.8665L26.9448 38.458C26.9955 38.4453 27.0486 38.4744 27.0486 38.5377V48.8591C27.0486 48.9502 27.1246 49.0262 27.2157 49.0262H31.0288C31.1212 49.0262 31.1959 48.9502 31.1959 48.8578V30.4812C31.1943 30.4366 31.1757 30.3943 31.1439 30.363C31.1122 30.3317 31.0696 30.3138 31.025 30.3128V30.3128ZM88.3007 49.0756H92.0758C92.1038 49.0759 92.1314 49.0692 92.156 49.0559C92.1806 49.0426 92.2015 49.0233 92.2166 48.9997C92.2316 48.9761 92.2405 48.9491 92.2422 48.9212C92.2439 48.8933 92.2385 48.8654 92.2265 48.8401L83.8597 30.4078C83.8463 30.3792 83.8249 30.3552 83.7982 30.3384C83.7716 30.3215 83.7406 30.3127 83.7091 30.3128H80.1062C80.0391 30.3128 79.9796 30.3508 79.9543 30.409L71.5888 48.8414C71.5773 48.8665 71.5724 48.8941 71.5744 48.9217C71.5764 48.9493 71.5853 48.9759 71.6003 48.9991C71.6153 49.0223 71.636 49.0414 71.6603 49.0545C71.6846 49.0677 71.7118 49.0745 71.7395 49.0743H75.5145C75.6437 49.0743 75.7652 48.9996 75.8196 48.8781L77.5439 45.0827C77.5571 45.0536 77.5785 45.0288 77.6054 45.0115C77.6324 44.9942 77.6638 44.9851 77.6958 44.9853H86.1195C86.1866 44.9853 86.2461 45.0232 86.2714 45.0815L87.9944 48.8793C88.021 48.9381 88.0641 48.988 88.1185 49.0228C88.1729 49.0576 88.2362 49.076 88.3007 49.0756V49.0756ZM79.239 41.3406L81.8304 35.6311C81.8364 35.616 81.8468 35.6031 81.8602 35.5939C81.8736 35.5848 81.8895 35.5799 81.9057 35.5799C81.922 35.5799 81.9378 35.5848 81.9513 35.5939C81.9647 35.6031 81.9751 35.616 81.9811 35.6311L84.5712 41.3406C84.5769 41.3533 84.5793 41.3672 84.5783 41.3811C84.5772 41.395 84.5727 41.4084 84.5652 41.4201C84.5576 41.4317 84.5473 41.4414 84.5351 41.4481C84.5229 41.4547 84.5092 41.4583 84.4952 41.4583H79.315C79.301 41.4583 79.2873 41.4547 79.2751 41.4481C79.2629 41.4414 79.2526 41.4317 79.245 41.4201C79.2375 41.4084 79.233 41.395 79.2319 41.3811C79.2309 41.3672 79.2333 41.3533 79.239 41.3406V41.3406Z" fill="#164FB8"/>
</svg>
