<svg xmlns="http://www.w3.org/2000/svg" width="136" height="60" fill="none" viewBox="0 0 136 60"><path fill="#97999b" d="M87.853 10.403c-2.662 0-4.82 2.14-4.82 4.775 0 2.637 2.158 4.775 4.82 4.775s4.822-2.14 4.822-4.775c0-2.637-2.16-4.775-4.822-4.775m0 8.051c-1.733 0-3.14-1.468-3.14-3.276s1.407-3.277 3.14-3.277 3.14 1.468 3.14 3.277c-.006 1.808-1.407 3.278-3.14 3.278zm-42.4-2.585h4.615v-1.478h-4.615v-2.36h5.17v-1.469H43.79v9.233h6.923v-1.468h-5.26zm54.99 2.449v-7.756h-1.662v9.233h6.462v-1.477zm-66.036-7.756H30.76v9.233h1.662V16.84h1.984c2.009 0 3.46-1.405 3.46-3.138s-1.057-3.14-3.46-3.14zm-.138 4.8h-1.846V12.04h1.846c1.364 0 1.983.744 1.983 1.66.004.917-.715 1.663-1.983 1.663zm30.49-1.661c0-1.733-1.063-3.14-3.462-3.14H57.65v9.234h1.662V16.84h1.808l2.069 2.957h1.936l-2.285-3.266c1.169-.506 1.917-1.585 1.917-2.828zm-3.6 1.662h-1.846V12.04h1.846c1.365 0 1.984.744 1.984 1.66 0 .917-.716 1.663-1.984 1.663m15.661-.268c-.585-.373-1.296-.57-2.163-.792-1.574-.392-1.825-.678-1.825-1.205 0-.795.774-1.156 1.54-1.156 1.114 0 2.06.537 2.524.855a4.7 4.7 0 0 1 .799.682v-2.03c-.703-.464-1.891-1.071-3.323-1.071-1.804 0-3.11 1.147-3.11 2.724 0 1.971 1.884 2.443 3.013 2.73 1.746.439 2.148.707 2.148 1.426 0 .365-.13.608-.418.791-.327.206-.838.318-1.448.318-1.336 0-2.788-.962-3.231-1.398v1.946l.083.05c.61.366 1.834.972 3.147.972 2.118 0 3.431-1.026 3.431-2.679.005-.942-.388-1.666-1.167-2.165z"/><path fill="#164fb8" d="M43.623 30.288h-3.821a.17.17 0 0 0-.169.167v18.432c0 .091.076.167.169.167h3.82a.17.17 0 0 0 .168-.167V30.455a.165.165 0 0 0-.167-.167m58.016 0h-3.82a.17.17 0 0 0-.17.167v18.432a.17.17 0 0 0 .17.167h3.82a.17.17 0 0 0 .167-.167V30.455a.17.17 0 0 0-.167-.167m23.164 15.024h-9.963a.08.08 0 0 1-.076-.049q-.01-.022-.006-.046a.1.1 0 0 1 .019-.043l9.258-11.313.519-.62.096-.266v-2.52a.17.17 0 0 0-.05-.119.17.17 0 0 0-.118-.048h-15.301a.17.17 0 0 0-.118.048.17.17 0 0 0-.05.119v3.406c0 .093.076.167.168.167h9.417c.071 0 .108.085.063.14l-9.191 11.211-.578.704-.097.263v2.545c0 .092.076.167.169.167h15.837a.17.17 0 0 0 .167-.167v-3.407a.163.163 0 0 0-.165-.172M67.587 48.79l-.314-.448c-.007-.013-.007-.026-.016-.033l-3.988-5.697a.165.165 0 0 1 .053-.238c2.056-1.165 3.303-3.236 3.303-5.555 0-4.817-3.697-6.532-7.157-6.532h-7.342a.17.17 0 0 0-.166.167v18.432c0 .091.076.167.167.167h3.82a.17.17 0 0 0 .17-.167V43.52c0-.09.074-.167.166-.167h2.427a.34.34 0 0 1 .276.143l3.793 5.416a.34.34 0 0 0 .276.142h4.4a.166.166 0 0 0 .132-.263m-11.305-9.238a.17.17 0 0 1-.167-.167v-5.131c0-.092.076-.167.168-.167h2.92c2.135 0 3.358.995 3.358 2.732 0 1.637-1.348 2.734-3.357 2.734h-2.92zm-25.257-9.24h-3.57a.34.34 0 0 0-.281.155L21.186 40.99a.086.086 0 0 1-.147 0l-5.973-10.505a.33.33 0 0 0-.292-.167h-3.575a.17.17 0 0 0-.167.167v18.378c0 .091.076.167.167.167h3.813a.17.17 0 0 0 .167-.167V38.538c0-.058.054-.093.105-.08l4.771 8.409a.17.17 0 0 0 .146.083h1.826a.17.17 0 0 0 .146-.084l4.772-8.408c.05-.013.104.016.104.08v10.321c0 .091.076.167.167.167h3.813a.17.17 0 0 0 .167-.168V30.48a.175.175 0 0 0-.171-.168m57.276 18.763h3.775a.165.165 0 0 0 .15-.236L83.86 30.408a.17.17 0 0 0-.15-.095h-3.604a.16.16 0 0 0-.152.096L71.59 48.841a.164.164 0 0 0 .15.233h3.775c.13 0 .251-.074.306-.196l1.724-3.795a.17.17 0 0 1 .152-.098h8.424c.067 0 .126.038.151.096l1.723 3.798a.33.33 0 0 0 .307.197m-9.062-7.735 2.591-5.71a.08.08 0 0 1 .076-.051.08.08 0 0 1 .075.051l2.59 5.71a.084.084 0 0 1-.036.107.1.1 0 0 1-.04.01h-5.18a.084.084 0 0 1-.083-.077.1.1 0 0 1 .007-.04"/></svg>