<svg xmlns="http://www.w3.org/2000/svg" width="876" height="248" fill="none" viewBox="0 0 876 248"><path fill="#ffb81c" d="M179.247 120.405c-10.768 0-18.591 8.136-18.591 18.069v.102c0 9.929 7.718 17.967 18.49 17.967s18.575-8.143 18.575-18.077v-.098c0-9.933-7.718-17.963-18.474-17.963m10.464 18.171c0 5.988-4.286 10.877-10.464 10.877s-10.56-4.991-10.56-10.983v-.097c0-5.992 4.285-10.882 10.463-10.882s10.561 4.991 10.561 10.983zm46.451 6.081-7.823-23.76h-6.58l-7.823 23.76-7.226-23.658h-8.226l11.914 35.186h6.677l7.872-22.861 7.876 22.861h6.678l11.913-35.186h-8.026zm41.313-2.147-16.345-21.511h-7.08v34.938h7.576v-22.21l16.897 22.21h6.527v-34.938h-7.575z"/><path fill="#fff" d="M325.129 94.522h5.82c7.823 0 14.103-4.193 14.103-12.28v-.098c0-7.139-5.033-12.081-13.355-12.081h-14.258v34.938h7.677zm0-17.52h5.93c3.838 0 6.231 1.847 6.231 5.289v.097c0 2.994-2.242 5.288-6.093 5.288h-6.093zm70.209 71.995h-18.94v-7.338h16.45v-6.838h-16.45v-7.086h18.692v-6.838h-26.317v34.938h26.565zm-154.31-66.755v-.098c0-7.139-5.037-12.081-13.359-12.081h-14.253v34.938h7.676V94.522h5.829c7.823 0 14.107-4.193 14.107-12.28m-19.936-5.24h5.931c3.834 0 6.227 1.847 6.227 5.289v.097c0 2.994-2.243 5.288-6.093 5.288h-6.093zm104.609 43.895h-28.908v7.086h10.614v27.852h7.677v-27.852h10.617zm34.814 34.938v-34.938h-7.672v13.827h-14.156v-13.827h-7.673v34.938h7.673V141.81h14.156v14.025zm45.753-57.672h-18.936v-7.334h16.446V83.99h-16.446v-7.086h18.688v-6.838h-26.316V105h26.564zm-228.58-7.334h16.446V83.99h-16.446v-7.086h18.688v-6.838h-26.313V105h26.565v-6.838h-18.94zm134.881-3.295v-.102c0-9.93-7.717-17.967-18.489-17.967s-18.587 8.135-18.587 18.069v.101c0 9.93 7.717 17.968 18.489 17.968s18.587-8.136 18.587-18.07m-29.054 0v-.102c0-5.988 4.285-10.877 10.467-10.877s10.561 4.991 10.561 10.983v.102c0 5.987-4.285 10.877-10.467 10.877s-10.561-4.995-10.561-10.983m257.863 6.989h5.833c7.823 0 14.102-4.193 14.102-12.28v-.098c0-7.139-5.032-12.081-13.355-12.081h-14.253v34.938h7.673zm0-17.52h5.93c3.839 0 6.231 1.847 6.231 5.289v.097c0 2.994-2.242 5.288-6.093 5.288h-6.092zM272.154 98.163h-18.941v-7.334h16.447V83.99h-16.447v-7.086h18.689v-6.838h-26.313V105h26.565zm-172.04 7.44a22.65 22.65 0 0 0 14.903-5.536V84.894H99.862v6.63h7.718v4.992c-1.942 1.395-4.436 2.094-7.226 2.094-6.178 0-10.561-4.69-10.561-11.08v-.102c0-5.939 4.435-10.877 10.016-10.877 4.038 0 6.43 1.298 9.123 3.543l4.834-5.841c-3.656-3.096-7.429-4.792-13.709-4.792-10.56 0-18.278 8.135-18.278 18.069v.102c-.008 10.332 7.49 17.971 18.335 17.971m49.803-10.93-9.119-24.606h-8.473l14.102 35.186h6.78l14.102-35.186h-8.274zm-20.346-24.61h-7.677v34.938h7.677zm280.601 50.834h-7.677v34.938h7.677zm348.214 28.1H739.45v-7.338h16.446v-6.838H739.45v-7.086h18.688v-6.838h-26.316v34.938h26.564zm-73.82-50.834h-18.94v-7.334h16.446V83.99h-16.446v-7.086h18.689v-6.838h-26.313V105h26.564zm6.325 22.734h-7.677v34.938h7.677zm15.93 21.413h16.646v-6.988h-16.646v-7.436h18.892v-6.989h-26.565v34.938h7.673zm65.408 5.54h-8.075v7.985h8.075zM699.4 93.823h6.028L712.906 105h8.968l-8.53-12.476c4.436-1.647 7.478-5.19 7.478-10.832v-.098c0-3.295-1.048-6.04-2.993-7.985-2.291-2.298-5.732-3.547-10.155-3.547h-15.951V105h7.677zm0-16.82h7.624c3.737 0 6.032 1.696 6.032 4.99v.102c0 2.945-2.145 4.939-5.882 4.939H699.4zm-251.875 55.524v-.102c0-3.29-1.048-6.036-2.994-7.985-2.291-2.294-5.731-3.543-10.154-3.543H418.43v34.938h7.677v-11.178h6.027l7.478 11.178h8.969l-8.53-12.475c4.444-1.648 7.474-5.195 7.474-10.833m-7.775.407c0 2.945-2.144 4.942-5.881 4.942h-7.775v-10.039h7.62c3.737 0 6.032 1.696 6.032 4.991zm-307.507-12.529c-10.763 0-18.603 8.136-18.603 18.061v.102c0 9.929 7.718 17.967 18.49 17.967s18.591-8.135 18.591-18.069v-.098c.012-9.933-7.714-17.963-18.478-17.963m10.464 18.171c0 5.988-4.285 10.877-10.464 10.877-6.178 0-10.56-4.991-10.56-10.983v-.097c0-5.992 4.285-10.882 10.463-10.882s10.561 4.991 10.561 10.983zm-41.943 17.361v-27.852h10.618v-7.086H82.474v7.086H93.09v27.852zm481.716-23.41v-.102c0-3.29-1.048-6.036-2.99-7.985-2.295-2.294-5.731-3.543-10.154-3.543h-15.951v34.938h7.677v-11.178h6.027l7.478 11.178h8.969l-8.53-12.475c4.431-1.648 7.474-5.195 7.474-10.833m-7.775.407c0 2.945-2.144 4.942-5.881 4.942h-7.775v-10.039h7.625c3.736 0 6.031 1.696 6.031 4.991zm-78.743 11.621-7.823-23.755h-6.58l-7.824 23.755-7.226-23.658h-8.225l11.914 35.186h6.677l7.872-22.856 7.876 22.856h6.678l11.913-35.186h-8.026zM530 120.3c-10.764 0-18.591 8.135-18.591 18.069v.097c0 9.934 7.718 17.967 18.49 17.967s18.591-8.135 18.591-18.064v-.102c0-9.934-7.726-17.967-18.49-17.967m10.468 18.166c0 5.988-4.29 10.881-10.468 10.881s-10.561-4.991-10.561-10.983v-.101c0-5.988 4.286-10.881 10.464-10.881s10.561 4.991 10.561 10.982zm70.895 17.369h9.221l-14.85-20.115 14.253-14.823h-9.42l-14.054 15.275v-15.275h-7.677v34.938h7.677v-10.682l4.034-4.189zm41.773-34.938v34.938h25.065v-6.988h-17.392v-27.95zm-10.545 15.824h-18.563v7.285h18.563zM374.696 98.016h-17.393v-27.95h-7.677v34.935h25.07zm54.29 6.985h7.673V77.153h10.618v-7.086h-28.908v7.086h10.617zm31.277-14.021h14.155V105h7.673V70.067h-7.673v13.822h-14.155V70.067h-7.673V105h7.673zm56.65 7.183h-18.936v-7.334h16.446V83.99h-16.446v-7.086h18.688v-6.838h-26.316V105h26.564zm66.184 7.44c10.764 0 18.587-8.136 18.587-18.07v-.1c0-9.93-7.717-17.968-18.489-17.968s-18.591 8.135-18.591 18.069v.101c0 9.93 7.725 17.968 18.493 17.968m-10.467-18.17c0-5.989 4.285-10.878 10.467-10.878s10.561 4.991 10.561 10.983v.102c0 5.987-4.285 10.877-10.467 10.877s-10.561-4.991-10.561-10.983zm48.393 17.82 7.876-22.86 7.875 22.86h6.678l11.91-35.186h-8.023l-7.226 23.654-7.827-23.756h-6.576l-7.827 23.756-7.226-23.654h-8.221l11.909 35.186z"/></svg>