<svg width="876" height="248" viewBox="0 0 876 248" fill="none" xmlns="http://www.w3.org/2000/svg">
<path d="M179.247 120.405C168.479 120.405 160.656 128.541 160.656 138.474V138.576C160.656 148.505 168.374 156.543 179.146 156.543C189.918 156.543 197.721 148.4 197.721 138.466V138.368C197.721 128.435 190.003 120.405 179.247 120.405ZM189.711 138.576C189.711 144.564 185.425 149.453 179.247 149.453C173.069 149.453 168.687 144.462 168.687 138.47V138.373C168.687 132.381 172.972 127.491 179.15 127.491C185.328 127.491 189.711 132.482 189.711 138.474V138.576Z" fill="#FFB81C"/>
<path d="M236.162 144.657L228.339 120.897H221.759L213.936 144.657L206.71 120.999H198.484L210.398 156.185H217.075L224.947 133.324L232.823 156.185H239.501L251.414 120.999H243.388L236.162 144.657Z" fill="#FFB81C"/>
<path d="M277.475 142.51L261.13 120.999H254.05V155.937H261.626V133.727L278.523 155.937H285.05V120.999H277.475V142.51Z" fill="#FFB81C"/>
<path d="M325.129 94.5224H330.949C338.772 94.5224 345.052 90.3285 345.052 82.2418V82.1442C345.052 75.0053 340.019 70.063 331.697 70.063H317.439V105.001H325.116L325.129 94.5224ZM325.129 77.0026H331.059C334.897 77.0026 337.29 78.8493 337.29 82.2906V82.3883C337.29 85.3821 335.048 87.6763 331.197 87.6763H325.104L325.129 77.0026Z" fill="white"/>
<path d="M395.338 148.997H376.398V141.659H392.848V134.821H376.398V127.735H395.09V120.897H368.773V155.835H395.338V148.997Z" fill="white"/>
<path d="M241.028 82.2418V82.1442C241.028 75.0053 235.991 70.063 227.669 70.063H213.416V105.001H221.092V94.5224H226.921C234.744 94.5224 241.028 90.3285 241.028 82.2418ZM221.092 77.0026H227.023C230.857 77.0026 233.25 78.8493 233.25 82.2906V82.3883C233.25 85.3821 231.007 87.6763 227.157 87.6763H221.064L221.092 77.0026Z" fill="white"/>
<path d="M325.701 120.897H296.793V127.983H307.407V155.835H315.084V127.983H325.701V120.897Z" fill="white"/>
<path d="M360.515 155.835V120.897H352.843V134.724H338.687V120.897H331.014V155.835H338.687V141.81H352.843V155.835H360.515Z" fill="white"/>
<path d="M406.268 98.1628H387.332V90.8287H403.778V83.9908H387.332V76.9048H406.02V70.0669H379.704V105.001H406.268V98.1628Z" fill="white"/>
<path d="M177.688 90.8287H194.134V83.9908H177.688V76.9048H196.376V70.0669H170.063V105.001H196.628V98.1628H177.688V90.8287Z" fill="white"/>
<path d="M312.569 87.5338V87.4321C312.569 77.5027 304.852 69.4648 294.08 69.4648C283.308 69.4648 275.493 77.6003 275.493 87.5338V87.6355C275.493 97.5648 283.21 105.603 293.982 105.603C304.754 105.603 312.569 97.4672 312.569 87.5338ZM283.515 87.5338V87.4321C283.515 81.4444 287.8 76.5549 293.982 76.5549C300.164 76.5549 304.543 81.5461 304.543 87.5378V87.6395C304.543 93.6273 300.258 98.5167 294.076 98.5167C287.894 98.5167 283.515 93.5215 283.515 87.5338Z" fill="white"/>
<path d="M541.378 94.5224H547.211C555.034 94.5224 561.313 90.3285 561.313 82.2418V82.1442C561.313 75.0053 556.281 70.063 547.958 70.063H533.705V105.001H541.378V94.5224ZM541.378 77.0026H547.308C551.147 77.0026 553.539 78.8493 553.539 82.2906V82.3883C553.539 85.3821 551.297 87.6763 547.446 87.6763H541.354L541.378 77.0026Z" fill="white"/>
<path d="M272.154 98.1628H253.213V90.8287H269.66V83.9908H253.213V76.9048H271.902V70.0669H245.589V105.001H272.154V98.1628Z" fill="white"/>
<path d="M100.114 105.603C105.586 105.62 110.88 103.653 115.017 100.067V84.894H99.8622V91.5244H107.58V96.5155C105.638 97.9108 103.144 98.6104 100.354 98.6104C94.1756 98.6104 89.7929 93.9203 89.7929 87.5299V87.4282C89.7929 81.4893 94.2284 76.551 99.8094 76.551C103.847 76.551 106.239 77.8486 108.932 80.094L113.766 74.2527C110.11 71.1572 106.337 69.4609 100.057 69.4609C89.4963 69.4609 81.7788 77.5964 81.7788 87.5299V87.6316C81.7707 97.9636 89.2689 105.603 100.114 105.603Z" fill="white"/>
<path d="M149.917 94.6727L140.798 70.0669H132.325L146.427 105.253H153.207L167.309 70.0669H159.035L149.917 94.6727Z" fill="white"/>
<path d="M129.571 70.063H121.894V105.001H129.571V70.063Z" fill="white"/>
<path d="M410.172 120.897H402.495V155.835H410.172V120.897Z" fill="white"/>
<path d="M758.386 148.997H739.45V141.659H755.896V134.821H739.45V127.735H758.138V120.897H731.822V155.835H758.386V148.997Z" fill="white"/>
<path d="M684.566 98.1628H665.626V90.8287H682.072V83.9908H665.626V76.9048H684.315V70.0669H658.002V105.001H684.566V98.1628Z" fill="white"/>
<path d="M690.891 120.897H683.214V155.835H690.891V120.897Z" fill="white"/>
<path d="M706.821 142.31H723.467V135.322H706.821V127.886H725.713V120.897H699.148V155.835H706.821V142.31Z" fill="white"/>
<path d="M772.229 147.85H764.154V155.835H772.229V147.85Z" fill="white"/>
<path d="M699.4 93.8227H705.428L712.906 105.001H721.874L713.344 92.5251C717.78 90.8777 720.822 87.3346 720.822 81.6927V81.595C720.822 78.3002 719.774 75.5544 717.829 73.6101C715.538 71.3118 712.097 70.063 707.674 70.063H691.723V105.001H699.4V93.8227ZM699.4 77.0026H707.024C710.761 77.0026 713.056 78.6988 713.056 81.9937V82.0954C713.056 85.0404 710.911 87.0336 707.174 87.0336H699.4V77.0026Z" fill="white"/>
<path d="M447.525 132.527V132.425C447.525 129.135 446.477 126.389 444.531 124.44C442.24 122.146 438.8 120.897 434.377 120.897H418.43V155.835H426.107V144.657H432.134L439.612 155.835H448.581L440.051 143.36C444.495 141.712 447.525 138.165 447.525 132.527ZM439.75 132.934C439.75 135.879 437.606 137.876 433.869 137.876H426.094V127.837H433.714C437.451 127.837 439.746 129.533 439.746 132.828L439.75 132.934Z" fill="white"/>
<path d="M132.243 120.405C121.48 120.405 113.64 128.541 113.64 138.466V138.568C113.64 148.497 121.358 156.535 132.13 156.535C142.902 156.535 150.721 148.4 150.721 138.466V138.368C150.733 128.435 143.007 120.405 132.243 120.405ZM142.707 138.576C142.707 144.564 138.422 149.453 132.243 149.453C126.065 149.453 121.683 144.462 121.683 138.47V138.373C121.683 132.381 125.968 127.491 132.146 127.491C138.324 127.491 142.707 132.482 142.707 138.474V138.576Z" fill="white"/>
<path d="M100.764 155.937V128.085H111.382V120.999H82.4736V128.085H93.0913V155.937H100.764Z" fill="white"/>
<path d="M582.48 132.527V132.425C582.48 129.135 581.432 126.389 579.49 124.44C577.195 122.146 573.759 120.897 569.336 120.897H553.385V155.835H561.062V144.657H567.089L574.567 155.835H583.536L575.006 143.36C579.437 141.712 582.48 138.165 582.48 132.527ZM574.705 132.934C574.705 135.879 572.561 137.876 568.824 137.876H561.049V127.837H568.674C572.41 127.837 574.705 129.533 574.705 132.828V132.934Z" fill="white"/>
<path d="M495.962 144.555L488.139 120.8H481.559L473.735 144.555L466.509 120.897H458.284L470.198 156.083H476.875L484.747 133.227L492.623 156.083H499.301L511.214 120.897H503.188L495.962 144.555Z" fill="white"/>
<path d="M530 120.3C519.236 120.3 511.409 128.435 511.409 138.369V138.466C511.409 148.4 519.127 156.433 529.899 156.433C540.671 156.433 548.49 148.298 548.49 138.369V138.267C548.49 128.333 540.764 120.3 530 120.3ZM540.468 138.466C540.468 144.454 536.178 149.347 530 149.347C523.822 149.347 519.439 144.356 519.439 138.364V138.263C519.439 132.275 523.725 127.382 529.903 127.382C536.081 127.382 540.464 132.373 540.464 138.364L540.468 138.466Z" fill="white"/>
<path d="M611.363 155.835H620.584L605.734 135.72L619.987 120.897H610.567L596.513 136.172V120.897H588.836V155.835H596.513V145.153L600.547 140.964L611.363 155.835Z" fill="white"/>
<path d="M653.136 120.897V155.835H678.201V148.847H660.809V120.897H653.136Z" fill="white"/>
<path d="M642.591 136.721H624.028V144.006H642.591V136.721Z" fill="white"/>
<path d="M374.696 98.0164H357.303V70.0669H349.626V105.001H374.696V98.0164Z" fill="white"/>
<path d="M428.986 105.001H436.659V77.1529H447.277V70.0669H418.369V77.1529H428.986V105.001Z" fill="white"/>
<path d="M460.263 90.9792H474.418V105.001H482.091V70.0669H474.418V83.8891H460.263V70.0669H452.59V105.001H460.263V90.9792Z" fill="white"/>
<path d="M516.913 98.1628H497.977V90.8287H514.423V83.9908H497.977V76.9048H516.665V70.0669H490.349V105.001H516.913V98.1628Z" fill="white"/>
<path d="M583.097 105.603C593.861 105.603 601.684 97.4672 601.684 87.5338V87.4321C601.684 77.5027 593.967 69.4648 583.195 69.4648C572.423 69.4648 564.604 77.6003 564.604 87.5338V87.6355C564.604 97.5648 572.329 105.603 583.097 105.603ZM572.63 87.4321C572.63 81.4444 576.915 76.5549 583.097 76.5549C589.279 76.5549 593.658 81.5461 593.658 87.5378V87.6395C593.658 93.6273 589.373 98.5167 583.191 98.5167C577.008 98.5167 572.63 93.5256 572.63 87.5338V87.4321Z" fill="white"/>
<path d="M621.023 105.253L628.899 82.3923L636.774 105.253H643.452L655.362 70.067H647.339L640.113 93.721L632.286 69.9653H625.71L617.883 93.721L610.657 70.067H602.436L614.345 105.253H621.023Z" fill="white"/>
</svg>
