<svg xmlns="http://www.w3.org/2000/svg" width="206" height="48" fill="none" viewBox="0 0 206 48"><path fill="#fff" fill-rule="evenodd" d="M.002 3.273h18.256l.962 11.1h-8.007v30.129H.002zm20.817 0h11.209v31.713H13.772l-.96-11.1h8.007zM167.67 8.189a10.94 10.94 0 0 0-9.956 6.902 10.942 10.942 0 0 0 14.408 14.129 10.94 10.94 0 0 0 6.706-10.09 11.05 11.05 0 0 0-11.156-10.94zm.001 18.446a7.51 7.51 0 0 1-7.114-4.46 7.51 7.51 0 1 1 14.375-3.044 7.39 7.39 0 0 1-7.261 7.504m-79.911-5.92H77.08v5.624h12.171v3.362H73.238V8.559h15.804v3.36h-11.96v5.413H87.76zm106.225 5.604V8.557h-3.844v21.142h14.95v-3.38zM45.907 8.56h8.435c5.552 0 8.008 3.217 8.008 7.188s-3.36 7.188-8.007 7.188h-4.591V29.7h-3.845zm3.844 10.994h4.271c2.934 0 4.59-1.704 4.59-3.806s-1.429-3.806-4.59-3.806h-4.271zm69.182-3.806c0-3.97-2.455-7.188-8.007-7.188h-8.434V29.7h3.845v-6.766h4.186l4.784 6.766h4.484l-5.287-7.476a7.05 7.05 0 0 0 4.433-6.478zm-8.324 3.806h-4.272V11.94h4.272c3.161 0 4.59 1.704 4.59 3.806s-1.656 3.806-4.59 3.806m28.411-2.423a17 17 0 0 1 5.009 1.808v.002a5.53 5.53 0 0 1 2.706 4.944c0 3.783-3.046 6.133-7.945 6.133a15.2 15.2 0 0 1-7.281-2.227l-.03-.017-.163-.097v-4.459c1.024.998 4.389 3.205 7.474 3.205a6.6 6.6 0 0 0 3.347-.726c.315-.18.573-.446.743-.767.171-.32.249-.682.223-1.044 0-1.652-.928-2.262-4.969-3.268h-.002c-2.606-.65-6.965-1.736-6.965-6.247 0-3.613 3.027-6.236 7.196-6.236 2.745.062 5.414.913 7.688 2.452v4.659a11 11 0 0 0-1.848-1.56 10.8 10.8 0 0 0-5.84-1.958c-1.771 0-3.565.817-3.565 2.642 0 1.206.587 1.855 4.222 2.76" clip-rule="evenodd"/></svg>