<svg width="206" height="48" viewBox="0 0 206 48" fill="none" xmlns="http://www.w3.org/2000/svg">
<path fill-rule="evenodd" clip-rule="evenodd" d="M0.00195312 3.27271H18.2582L19.2201 14.3734H11.2128V44.5017H0.00195312V3.27271ZM20.8188 3.27271H32.028V34.9858H13.7717L12.8115 23.8859H20.8188V3.27271ZM167.671 8.18871C165.516 8.23094 163.422 8.90853 161.651 10.1365C159.879 11.3644 158.51 13.088 157.715 15.0911C156.919 17.0943 156.733 19.2876 157.179 21.3962C157.625 23.5048 158.685 25.4346 160.223 26.9436C161.762 28.4526 163.712 29.4737 165.829 29.8787C167.946 30.2836 170.135 30.0545 172.123 29.22C174.11 28.3856 175.806 26.9829 176.999 25.188C178.192 23.393 178.829 21.2857 178.829 19.1305C178.8 16.2 177.609 13.4009 175.516 11.349C173.424 9.29702 170.602 8.16025 167.672 8.18871H167.671ZM167.672 26.6354C166.177 26.685 164.701 26.2868 163.433 25.492C162.166 24.6973 161.165 23.5421 160.558 22.1746C159.952 20.8071 159.767 19.2896 160.029 17.8167C160.29 16.3437 160.986 14.9824 162.026 13.9073C163.066 12.8322 164.404 12.0922 165.867 11.7823C167.331 11.4724 168.854 11.6066 170.24 12.1678C171.627 12.729 172.815 13.6915 173.651 14.932C174.487 16.1725 174.934 17.6345 174.933 19.1305C174.965 21.0885 174.218 22.9791 172.857 24.3865C171.495 25.7939 169.63 26.6029 167.672 26.6354ZM87.7606 20.7147H77.0819V26.3393H89.2522V29.701H73.2376V8.55893H89.042V11.9197H77.0819V17.3325H87.7606V20.7147ZM193.986 26.3192V8.5568H190.142V29.6988H205.092V26.3192H193.986ZM45.9074 8.55893H54.3418H54.3426C59.8938 8.55893 62.3499 11.7762 62.3499 15.7469C62.3499 19.7177 58.99 22.9349 54.3426 22.9349H49.7517V29.701H45.9074V8.55893ZM49.7508 19.5528H54.0223C56.9559 19.5528 58.6124 17.8485 58.6124 15.7469C58.6124 13.6454 57.1832 11.9411 54.0223 11.9411H49.7508V19.5528ZM118.933 15.7469C118.933 11.777 116.478 8.55893 110.926 8.55893H102.492V29.701H106.337V22.9349H110.523L115.307 29.701H119.791L114.504 22.225C115.801 21.7063 116.916 20.8135 117.705 19.66C118.494 18.5066 118.923 17.1445 118.937 15.7469H118.933ZM110.609 19.5528H106.337V11.9411H110.609C113.77 11.9411 115.199 13.6454 115.199 15.7469C115.199 17.8485 113.543 19.5528 110.609 19.5528ZM139.02 17.1296C140.774 17.4653 142.465 18.0756 144.029 18.9381V18.9398C144.882 19.4456 145.583 20.1715 146.059 21.0414C146.535 21.9114 146.769 22.8934 146.735 23.8845C146.735 27.6673 143.689 30.0166 138.79 30.0166C136.213 29.9035 133.708 29.1374 131.509 27.7903L131.479 27.773C131.425 27.7411 131.37 27.7091 131.316 27.6758V23.2173C132.34 24.2151 135.705 26.4217 138.79 26.4217C139.95 26.4797 141.105 26.2295 142.137 25.6964C142.452 25.5156 142.71 25.2498 142.88 24.9293C143.051 24.6089 143.129 24.2467 143.103 23.8845C143.103 22.2331 142.175 21.6231 138.134 20.6168L138.132 20.6164C135.526 19.9671 131.167 18.8808 131.167 14.3702C131.167 10.7566 134.194 8.13386 138.363 8.13386C141.108 8.19583 143.777 9.04734 146.051 10.5865V15.245C145.494 14.659 144.874 14.1361 144.203 13.6859C142.487 12.4806 140.459 11.8001 138.363 11.727C136.592 11.727 134.798 12.5437 134.798 14.3693C134.798 15.5748 135.385 16.224 139.02 17.1296Z" fill="white"/>
</svg>
