<svg preserveAspectRatio="none" width="100%" height="100%" overflow="visible" style="display: block;" viewBox="0 0 101 92" fill="none" xmlns="http://www.w3.org/2000/svg">
<g id="Layer_1">
<path id="Vector" d="M44.7326 30.0362L37.5607 49.6705H49.4186C51.0814 49.6705 52.509 50.7791 52.9457 52.3411L59.7145 77.5181H51.4341L44.8837 57.5478H32.7067L22.7636 89.9638H14.9367L23.2506 54.4238L27.2649 30.4225L15.8773 34.2351L9.39406 47.5879C8.75581 48.8979 7.47933 49.6537 6.13566 49.6537C5.58139 49.6537 5.06072 49.5362 4.54005 49.2674C2.74289 48.3941 1.98708 46.2106 2.86046 44.4134L9.98191 29.7506C10.385 28.9444 11.0904 28.2726 11.9638 27.9535L28.6589 21.6214C29.146 21.4199 29.6499 21.3527 30.1705 21.3863L47.8566 22.5452C48.9987 22.6292 50.0065 23.2171 50.6111 24.1744L57.1783 33.9664L62.8553 29.6331C64.4173 28.407 66.7183 28.7261 67.9444 30.3385C69.1705 31.9341 68.8514 34.2016 67.2726 35.4276L58.5555 42.1124C57.7493 42.7171 56.7248 42.9522 55.7338 42.8178C54.7429 42.6499 53.8695 42.0956 53.3152 41.2558L44.7494 30.0194L44.7326 30.0362Z" stroke="var(--stroke-0, #BBBCBC)" stroke-width="3" stroke-linecap="round" stroke-linejoin="round"/>
<path id="Vector_2" d="M49.3346 9.74677C49.3346 14.2985 45.6395 17.9935 41.0879 17.9935C36.5362 17.9935 32.8411 14.2985 32.8411 9.74677C32.8411 5.19509 36.553 1.5 41.1046 1.5C45.6563 1.5 49.3514 5.19509 49.3514 9.74677H49.3346Z" stroke="var(--stroke-0, #BBBCBC)" stroke-width="3" stroke-linecap="round" stroke-linejoin="round"/>
<path id="Vector_3" d="M1.5 89.9806H16.6163H24.4431H33.2274V77.5349H53.1137H61.4108H66.0633V64.2494H98.916" stroke="var(--stroke-0, #BBBCBC)" stroke-width="3" stroke-linecap="round" stroke-linejoin="round"/>
<path id="Vector_4" d="M94.1796 64.2494V2.20543" stroke="var(--stroke-0, #BBBCBC)" stroke-width="3" stroke-linecap="round" stroke-linejoin="round"/>
<path id="Vector_5" d="M94.1628 2.20543H70.4302V20.6809H94.1628V2.20543Z" stroke="var(--stroke-0, #BBBCBC)" stroke-width="3" stroke-linecap="round" stroke-linejoin="round"/>
</g>
</svg>
