<svg xmlns="http://www.w3.org/2000/svg" width="266" height="133" fill="none" viewBox="0 0 266 133"><g clip-path="url(#a)"><mask id="d" width="74" height="72" x="7" y="32" maskUnits="userSpaceOnUse" style="mask-type:luminance"><mask id="c" width="74" height="72" x="7" y="32" maskUnits="userSpaceOnUse" style="mask-type:luminance"><mask id="b" width="247" height="75" x="7" y="32" maskUnits="userSpaceOnUse" style="mask-type:luminance"><path fill="#fff" d="M253.61 32.438H7.407v74.16H253.61z"/></mask><g mask="url(#b)"><path fill="#fff" d="M34.525 103.109c-15.674-30.26-15.674-46.342 0-48.257s30.992-.149 45.954 5.282q-4.135-26.653-52.456-27.688c-29.467-.63-27.308 22.93 6.502 70.663"/></g></mask><g mask="url(#c)"><path fill="#fff" d="M253.61 32.455H7.416v74.151H253.61z"/></g></mask><g mask="url(#d)"><path fill="#1e5093" d="M80.904 32H7v71.546h73.904z"/></g><mask id="g" width="74" height="29" x="7" y="32" maskUnits="userSpaceOnUse" style="mask-type:luminance"><mask id="f" width="74" height="29" x="7" y="32" maskUnits="userSpaceOnUse" style="mask-type:luminance"><mask id="e" width="247" height="75" x="7" y="32" maskUnits="userSpaceOnUse" style="mask-type:luminance"><path fill="#fff" d="M253.61 32.438H7.407v74.16H253.61z"/></mask><g mask="url(#e)"><path fill="#fff" d="M34.628 54.826c-13.368-9.55-22.375-11.5-27.03-5.851-1.101-11.107 5.704-16.616 20.424-16.529 8.999.053 15.795 1.059 23.64 2.668 17.148 3.725 26.84 12.12 28.869 25.055-4.178-1.513-11.573-4.128-20.684-5.098-9.103-.962-15.059-1.216-25.219-.245"/></g></mask><g mask="url(#f)"><path fill="#fff" d="M253.61 32.455H7.416v74.151H253.61z"/></g></mask><g mask="url(#g)"><path fill="#3778c8" d="M80.973 32.009H7.052v28.597h73.921z"/></g><mask id="i" width="47" height="53" x="34" y="54" maskUnits="userSpaceOnUse" style="mask-type:luminance"><mask id="h" width="247" height="75" x="7" y="32" maskUnits="userSpaceOnUse" style="mask-type:luminance"><path fill="#fff" d="M253.61 32.438H7.407v74.16H253.61z"/></mask><g mask="url(#h)"><path fill="#fff" d="M67.45 106.563C58.893 81.63 47.91 64.384 34.524 54.826c8.41-1.006 26.979-2.1 46.016 5.317 1.222 7.8-3.138 23.28-13.09 46.42"/></g></mask><g mask="url(#i)"><path fill="#73b2fd" d="M81.173 53.671H34.09V107h47.082z"/></g><mask id="k" width="154" height="31" x="100" y="56" maskUnits="userSpaceOnUse" style="mask-type:luminance"><mask id="j" width="247" height="75" x="7" y="32" maskUnits="userSpaceOnUse" style="mask-type:luminance"><path fill="#fff" d="M253.61 32.438H7.407v74.16H253.61z"/></mask><g mask="url(#j)"><path fill="#fff" d="M100.288 57.248h2.809v8.667h10.75v-8.667h2.808v20.875h-2.808v-9.55h-10.75v9.55h-2.809zm21.69 0h7.291c1.326 0 2.419.184 3.277.542.858.367 1.534.822 2.037 1.382s.841 1.19 1.04 1.889.295 1.373.295 2.02a5.45 5.45 0 0 1-1.37 3.612 5.8 5.8 0 0 1-1.612 1.268 5.5 5.5 0 0 1-2.124.63l5.886 9.523h-3.511l-5.27-9.2h-3.13v9.2h-2.809zm2.818 9.2h3.693a10 10 0 0 0 1.621-.131 4.3 4.3 0 0 0 1.43-.49 2.76 2.76 0 0 0 1.014-1.014c.252-.446.382-1.015.382-1.723s-.13-1.286-.382-1.723a2.6 2.6 0 0 0-1.014-1.014 4.3 4.3 0 0 0-1.43-.49 10 10 0 0 0-1.621-.132h-3.693zm23.831 7.32c.511.77 1.153 1.33 1.951 1.696a5.7 5.7 0 0 0 2.444.543c.468 0 .945-.07 1.431-.219a4.4 4.4 0 0 0 1.335-.665c.398-.297.728-.656.979-1.093.252-.428.382-.936.382-1.504 0-.805-.252-1.417-.763-1.845a6.5 6.5 0 0 0-1.89-1.058 33 33 0 0 0-2.462-.823 10 10 0 0 1-2.462-1.102c-.754-.472-1.378-1.101-1.89-1.897q-.765-1.194-.763-3.227c0-.612.13-1.26.399-1.95a5.3 5.3 0 0 1 1.248-1.89c.564-.568 1.292-1.049 2.185-1.434.884-.384 1.959-.577 3.207-.577q1.704 0 3.251.472 1.55.473 2.722 1.916l-2.279 2.09a3.83 3.83 0 0 0-1.492-1.33c-.641-.332-1.378-.498-2.193-.498-.78 0-1.43.105-1.95.306-.521.21-.937.472-1.249.796a2.84 2.84 0 0 0-.659 1.05c-.13.375-.19.717-.19 1.031 0 .884.251 1.566.763 2.038.511.472 1.135.857 1.889 1.146.755.288 1.57.56 2.462.795q1.33.357 2.462.989c.755.42 1.379.997 1.89 1.714.512.717.763 1.705.763 2.964 0 1.006-.19 1.907-.572 2.711a6.1 6.1 0 0 1-1.534 2.038c-.642.551-1.405.97-2.28 1.268a8.7 8.7 0 0 1-2.809.446c-1.327 0-2.584-.236-3.78-.708-1.188-.472-2.141-1.198-2.843-2.186zm14.989-9.62h2.635v2.003h.061c.511-.744 1.205-1.33 2.089-1.74a6.45 6.45 0 0 1 2.74-.622c1.075 0 2.046.184 2.912.56a6.4 6.4 0 0 1 2.228 1.566 7 7 0 0 1 1.422 2.343 8.2 8.2 0 0 1 .494 2.877c0 1.041-.164 2.012-.494 2.904a6.8 6.8 0 0 1-1.422 2.326 6.55 6.55 0 0 1-2.228 1.548q-1.3.562-2.912.56-1.496 0-2.809-.63-1.316-.632-2.02-1.723h-.061v10.32h-2.635zm7.204 2.125q-1.051 0-1.907.367a4.1 4.1 0 0 0-1.431 1.006 4.5 4.5 0 0 0-.91 1.53 5.7 5.7 0 0 0-.321 1.96c0 .708.104 1.364.321 1.958.217.604.52 1.111.91 1.53s.867.762 1.431 1.007q.842.367 1.907.367c1.065 0 1.335-.123 1.907-.367a4.1 4.1 0 0 0 1.43-1.006c.391-.42.694-.936.911-1.53a5.8 5.8 0 0 0 .321-1.96c0-.708-.105-1.364-.321-1.959a4.4 4.4 0 0 0-.911-1.53c-.39-.42-.866-.76-1.43-1.006q-.856-.367-1.907-.367m10.75-.411a7.3 7.3 0 0 1 2.574-1.548 8.9 8.9 0 0 1 2.93-.516c1.015 0 1.89.131 2.619.385.728.253 1.335.603 1.803 1.032a4.05 4.05 0 0 1 1.04 1.487 4.7 4.7 0 0 1 .338 1.757v7.137q0 .737.026 1.355c.017.411.052.805.087 1.18h-2.341a25 25 0 0 1-.087-2.124h-.06c-.59.9-1.275 1.539-2.081 1.915-.797.376-1.725.56-2.783.56a6.5 6.5 0 0 1-1.846-.263 4.4 4.4 0 0 1-1.535-.796 3.7 3.7 0 0 1-1.04-1.311c-.251-.525-.381-1.129-.381-1.81q0-1.354.598-2.275c.399-.612.945-1.101 1.638-1.486.694-.385 1.5-.656 2.428-.822a17 17 0 0 1 2.973-.254h1.933v-.586c0-.35-.069-.708-.208-1.058a2.9 2.9 0 0 0-.615-.962 3.1 3.1 0 0 0-1.023-.682c-.408-.166-.902-.254-1.465-.254-.512 0-.954.053-1.335.149a5.6 5.6 0 0 0-1.041.367 4.8 4.8 0 0 0-.849.516c-.252.193-.494.385-.728.56zm7.429 5.545c-.624 0-1.266.035-1.916.105s-1.248.2-1.786.402a3.4 3.4 0 0 0-1.317.822q-.51.527-.512 1.355c0 .805.269 1.382.806 1.74.538.35 1.266.534 2.185.534q1.079 0 1.846-.367a3.4 3.4 0 0 0 1.231-.962q.469-.59.677-1.312c.138-.48.208-.962.208-1.434v-.883zm7.707-7.26h2.635V66.3h.061c.329-.743.91-1.355 1.725-1.81.824-.464 1.769-.69 2.844-.69a6.1 6.1 0 0 1 1.915.305c.616.21 1.153.525 1.613.962.459.429.823.988 1.101 1.67.277.683.407 1.478.407 2.405v8.99h-2.635v-8.255c0-.647-.087-1.207-.26-1.67q-.261-.698-.702-1.12a2.66 2.66 0 0 0-1.015-.62 3.6 3.6 0 0 0-1.187-.193q-.822 0-1.526.262a3.2 3.2 0 0 0-1.231.84c-.356.385-.624.866-.824 1.46-.199.586-.294 1.286-.294 2.09v7.198h-2.636V64.148zm16.28 0h2.636V66.3h.06c.33-.743.911-1.355 1.726-1.81.823-.464 1.768-.69 2.843-.69.668 0 1.3.104 1.916.305a4.3 4.3 0 0 1 1.612.962c.46.429.824.988 1.101 1.67.278.683.408 1.478.408 2.405v8.99h-2.636v-8.255c0-.647-.086-1.207-.26-1.67q-.26-.698-.702-1.12a2.7 2.7 0 0 0-1.014-.62 3.6 3.6 0 0 0-1.188-.193q-.82 0-1.526.262a3.2 3.2 0 0 0-1.231.84c-.355.385-.624.866-.823 1.46-.2.586-.295 1.286-.295 2.09v7.198h-2.635V64.148zm18.266 7.968c0 .612.13 1.163.399 1.67q.39.748 1.04 1.286c.434.35.928.63 1.491.822a5.4 5.4 0 0 0 1.76.297q1.234 0 2.141-.577c.607-.385 1.162-.892 1.674-1.522l1.993 1.53q-2.196 2.86-6.146 2.86c-1.092 0-2.081-.183-2.973-.56a6.6 6.6 0 0 1-2.254-1.547 6.8 6.8 0 0 1-1.422-2.326c-.33-.892-.494-1.863-.494-2.904s.182-2.011.537-2.903a7.1 7.1 0 0 1 1.491-2.326 6.8 6.8 0 0 1 2.272-1.548c.875-.377 1.837-.56 2.869-.56q1.846.002 3.121.647c.85.428 1.543.997 2.089 1.697s.945 1.486 1.188 2.36q.364 1.314.364 2.668v.945h-11.14zm8.314-2.125a5.6 5.6 0 0 0-.278-1.618 3.6 3.6 0 0 0-.745-1.286c-.33-.367-.746-.647-1.248-.857-.495-.21-1.075-.306-1.743-.306q-.962 0-1.768.367a4.3 4.3 0 0 0-1.361.962 4.5 4.5 0 0 0-.867 1.312 3.6 3.6 0 0 0-.304 1.435h8.314zm5.973-5.842h2.635v2.151h.061c.173-.376.407-.708.702-1.014s.616-.569.98-.778.754-.385 1.187-.517a4.4 4.4 0 0 1 1.292-.192c.434 0 .824.061 1.17.175l-.121 2.86c-.217-.061-.433-.105-.641-.149a4 4 0 0 0-.642-.061c-1.292 0-2.271.367-2.956 1.093s-1.023 1.854-1.023 3.393v7.014h-2.635V64.148z"/></g></mask><g mask="url(#k)"><path fill="#212121" d="M254 56.286H99.855v30.6H254z"/></g></g><defs><clipPath id="a"><path fill="#fff" d="M7 32h247v75H7z"/></clipPath></defs></svg>