<svg width="266" height="133" viewBox="0 0 266 133" fill="none" xmlns="http://www.w3.org/2000/svg">
<g clip-path="url(#clip0_127_532)">
<mask id="mask0_127_532" style="mask-type:luminance" maskUnits="userSpaceOnUse" x="7" y="32" width="74" height="72">
<mask id="mask1_127_532" style="mask-type:luminance" maskUnits="userSpaceOnUse" x="7" y="32" width="74" height="72">
<mask id="mask2_127_532" style="mask-type:luminance" maskUnits="userSpaceOnUse" x="7" y="32" width="247" height="75">
<path d="M253.61 32.4375H7.40723V106.598H253.61V32.4375Z" fill="white"/>
</mask>
<g mask="url(#mask2_127_532)">
<path d="M34.5245 103.109C18.8508 72.8498 18.8508 56.7672 34.5245 54.8519C50.1983 52.9367 65.5166 54.7033 80.4794 60.1341C77.7227 42.3636 60.2371 33.1373 28.0227 32.4464C-1.44356 31.8167 0.71504 55.3766 34.5245 103.109Z" fill="white"/>
</g>
</mask>
<g mask="url(#mask1_127_532)">
<path d="M253.61 32.4546H7.41602V106.606H253.61V32.4546Z" fill="white"/>
</g>
</mask>
<g mask="url(#mask0_127_532)">
<path d="M80.9041 32H7V103.546H80.9041V32Z" fill="#1E5093"/>
</g>
<mask id="mask3_127_532" style="mask-type:luminance" maskUnits="userSpaceOnUse" x="7" y="32" width="74" height="29">
<mask id="mask4_127_532" style="mask-type:luminance" maskUnits="userSpaceOnUse" x="7" y="32" width="74" height="29">
<mask id="mask5_127_532" style="mask-type:luminance" maskUnits="userSpaceOnUse" x="7" y="32" width="247" height="75">
<path d="M253.61 32.4375H7.40723V106.598H253.61V32.4375Z" fill="white"/>
</mask>
<g mask="url(#mask5_127_532)">
<path d="M34.6281 54.8256C21.2604 45.2757 12.2532 43.3255 7.59789 48.975C6.49692 37.8684 13.3022 32.3589 28.0223 32.4463C37.0208 32.4988 43.8174 33.5045 51.6629 35.1137C68.8104 38.8392 78.5025 47.2347 80.531 60.1691C76.3525 58.6561 68.9578 56.0413 59.8466 55.0705C50.744 54.1085 44.7883 53.8549 34.6281 54.8256Z" fill="white"/>
</g>
</mask>
<g mask="url(#mask4_127_532)">
<path d="M253.61 32.4546H7.41602V106.606H253.61V32.4546Z" fill="white"/>
</g>
</mask>
<g mask="url(#mask3_127_532)">
<path d="M80.9732 32.0088H7.05176V60.606H80.9732V32.0088Z" fill="#3778C8"/>
</g>
<mask id="mask6_127_532" style="mask-type:luminance" maskUnits="userSpaceOnUse" x="34" y="54" width="47" height="53">
<mask id="mask7_127_532" style="mask-type:luminance" maskUnits="userSpaceOnUse" x="7" y="32" width="247" height="75">
<path d="M253.61 32.4375H7.40723V106.598H253.61V32.4375Z" fill="white"/>
</mask>
<g mask="url(#mask7_127_532)">
<path d="M67.4497 106.563C58.8933 81.63 47.9095 64.3842 34.5244 54.8256C42.9334 53.8198 61.5027 52.7267 80.54 60.1427C81.7623 67.9436 77.4018 83.4228 67.4497 106.563Z" fill="white"/>
</g>
</mask>
<g mask="url(#mask6_127_532)">
<path d="M81.1727 53.6714H34.0908V107H81.1727V53.6714Z" fill="#73B2FD"/>
</g>
<mask id="mask8_127_532" style="mask-type:luminance" maskUnits="userSpaceOnUse" x="100" y="56" width="154" height="31">
<mask id="mask9_127_532" style="mask-type:luminance" maskUnits="userSpaceOnUse" x="7" y="32" width="247" height="75">
<path d="M253.61 32.4375H7.40723V106.598H253.61V32.4375Z" fill="white"/>
</mask>
<g mask="url(#mask9_127_532)">
<path d="M100.288 57.2479H103.097V65.9145H113.847V57.2479H116.655V78.123H113.847V68.5731H103.097V78.123H100.288V57.2479ZM121.978 57.2479H129.269C130.595 57.2479 131.688 57.4315 132.546 57.7901C133.404 58.1574 134.08 58.6121 134.583 59.1718C135.086 59.7315 135.424 60.3612 135.623 61.0608C135.823 61.7605 135.918 62.4338 135.918 63.081C135.918 63.7456 135.797 64.3928 135.563 65.0137C135.329 65.6346 134.99 66.1943 134.548 66.6928C134.106 67.1913 133.569 67.6198 132.936 67.9609C132.303 68.302 131.592 68.5206 130.812 68.5906L136.698 78.1142H133.187L127.917 68.9141H124.787V78.1142H121.978V57.2479ZM124.796 66.448H128.489C129.035 66.448 129.581 66.4042 130.11 66.3168C130.647 66.2293 131.124 66.0632 131.54 65.827C131.956 65.5909 132.294 65.2498 132.554 64.8126C132.806 64.3666 132.936 63.7981 132.936 63.0897C132.936 62.3814 132.806 61.8042 132.554 61.3669C132.303 60.9209 131.965 60.5886 131.54 60.3525C131.124 60.1163 130.639 59.9502 130.11 59.8627C129.572 59.7753 129.035 59.7315 128.489 59.7315H124.796V66.448ZM148.627 73.7678C149.138 74.5374 149.78 75.0971 150.578 75.4644C151.366 75.8317 152.181 76.0066 153.022 76.0066C153.49 76.0066 153.967 75.9366 154.453 75.788C154.938 75.6393 155.389 75.4207 155.788 75.1233C156.186 74.826 156.516 74.4674 156.767 74.0302C157.019 73.6016 157.149 73.0944 157.149 72.526C157.149 71.7214 156.897 71.1092 156.386 70.6807C155.874 70.2609 155.25 69.9024 154.496 69.6225C153.742 69.3339 152.927 69.0628 152.034 68.8005C151.15 68.5381 150.326 68.1708 149.572 67.6985C148.818 67.2263 148.194 66.5966 147.682 65.8008C147.171 65.005 146.919 63.9293 146.919 62.5738C146.919 61.9616 147.049 61.3144 147.318 60.6236C147.578 59.9327 147.994 59.303 148.566 58.7346C149.13 58.1661 149.858 57.6851 150.751 57.3003C151.635 56.9155 152.71 56.7231 153.958 56.7231C155.094 56.7231 156.178 56.8806 157.209 57.1954C158.241 57.5102 159.151 58.1486 159.931 59.1106L157.652 61.2008C157.296 60.6498 156.802 60.2038 156.16 59.8715C155.519 59.5391 154.782 59.373 153.967 59.373C153.187 59.373 152.537 59.4779 152.017 59.6791C151.496 59.889 151.08 60.1513 150.768 60.4749C150.456 60.7985 150.239 61.1483 150.109 61.5243C149.979 61.9004 149.919 62.2415 149.919 62.5563C149.919 63.4396 150.17 64.1217 150.682 64.5939C151.193 65.0662 151.817 65.451 152.571 65.7396C153.326 66.0282 154.141 66.2993 155.033 66.5354C155.918 66.7715 156.741 67.1039 157.495 67.5236C158.25 67.9434 158.874 68.5206 159.385 69.2377C159.897 69.9548 160.148 70.9431 160.148 72.2024C160.148 73.2081 159.958 74.1089 159.576 74.9134C159.195 75.718 158.683 76.4002 158.042 76.9511C157.4 77.5021 156.637 77.9218 155.762 78.2192C154.886 78.5165 153.95 78.6652 152.953 78.6652C151.626 78.6652 150.369 78.4291 149.173 77.9568C147.985 77.4846 147.032 76.7587 146.33 75.7705L148.627 73.7678ZM163.616 64.1479H166.251V66.1506H166.312C166.823 65.4073 167.517 64.8213 168.401 64.4103C169.285 63.9993 170.204 63.7894 171.141 63.7894C172.216 63.7894 173.187 63.973 174.053 64.3491C174.92 64.7251 175.666 65.2411 176.281 65.9145C176.897 66.5791 177.374 67.3662 177.703 68.2582C178.033 69.1503 178.197 70.1123 178.197 71.1355C178.197 72.1762 178.033 73.1469 177.703 74.0389C177.374 74.9309 176.897 75.7093 176.281 76.3652C175.666 77.0211 174.929 77.537 174.053 77.9131C173.187 78.2891 172.216 78.4728 171.141 78.4728C170.144 78.4728 169.207 78.2629 168.332 77.8431C167.456 77.4234 166.78 76.8462 166.312 76.1203H166.251V86.4398H163.616V64.1479ZM170.82 66.2731C170.118 66.2731 169.485 66.3955 168.913 66.6404C168.349 66.8852 167.872 67.2175 167.482 67.6461C167.092 68.0658 166.789 68.5818 166.572 69.1765C166.355 69.7712 166.251 70.4271 166.251 71.1355C166.251 71.8438 166.355 72.4997 166.572 73.0944C166.789 73.6978 167.092 74.2051 167.482 74.6248C167.872 75.0446 168.349 75.3857 168.913 75.6306C169.476 75.8754 170.109 75.9979 170.82 75.9979C171.531 75.9979 172.155 75.8754 172.727 75.6306C173.291 75.3857 173.767 75.0534 174.157 74.6248C174.548 74.2051 174.851 73.6891 175.068 73.0944C175.284 72.491 175.389 71.8438 175.389 71.1355C175.389 70.4271 175.284 69.7712 175.068 69.1765C174.851 68.5731 174.548 68.0658 174.157 67.6461C173.767 67.2263 173.291 66.8852 172.727 66.6404C172.155 66.3955 171.522 66.2731 170.82 66.2731ZM181.57 65.862C182.315 65.1711 183.173 64.6552 184.144 64.3141C185.124 63.973 186.095 63.7981 187.074 63.7981C188.089 63.7981 188.964 63.9293 189.693 64.1829C190.421 64.4365 191.028 64.7863 191.496 65.2149C191.964 65.6434 192.311 66.1419 192.536 66.7016C192.761 67.2613 192.874 67.8472 192.874 68.4594V75.5956C192.874 76.0853 192.883 76.5401 192.9 76.9511C192.917 77.3621 192.952 77.7557 192.987 78.1317H190.646C190.585 77.4234 190.559 76.715 190.559 76.0066H190.499C189.909 76.9074 189.224 77.5458 188.418 77.9218C187.621 78.2979 186.693 78.4815 185.635 78.4815C184.994 78.4815 184.378 78.3941 183.789 78.2192C183.199 78.0443 182.688 77.7732 182.254 77.4234C181.812 77.0735 181.466 76.6363 181.214 76.1116C180.963 75.5868 180.833 74.9834 180.833 74.3013C180.833 73.4005 181.032 72.6397 181.431 72.0275C181.83 71.4153 182.376 70.9256 183.069 70.5408C183.763 70.156 184.569 69.8849 185.497 69.7187C186.424 69.5526 187.413 69.4651 188.47 69.4651H190.403V68.8792C190.403 68.5293 190.334 68.1708 190.195 67.821C190.057 67.4712 189.857 67.1476 189.58 66.859C189.302 66.5704 188.964 66.3518 188.557 66.1769C188.149 66.0107 187.655 65.9232 187.092 65.9232C186.58 65.9232 186.138 65.9757 185.757 66.0719C185.375 66.1681 185.029 66.2905 184.716 66.4392C184.404 66.5879 184.118 66.7628 183.867 66.9552C183.615 67.1476 183.373 67.34 183.139 67.5149L181.57 65.862ZM188.999 71.4066C188.375 71.4066 187.733 71.4415 187.083 71.5115C186.433 71.5815 185.835 71.7126 185.297 71.9138C184.76 72.1062 184.318 72.386 183.98 72.7359C183.641 73.0857 183.468 73.5404 183.468 74.0914C183.468 74.896 183.737 75.4731 184.274 75.8317C184.812 76.1815 185.54 76.3652 186.459 76.3652C187.178 76.3652 187.794 76.2427 188.305 75.9979C188.817 75.753 189.224 75.4294 189.536 75.0359C189.849 74.6423 190.074 74.2051 190.213 73.7241C190.351 73.2431 190.421 72.7621 190.421 72.2898V71.4066H188.999ZM196.706 64.1479H199.341V66.2993H199.402C199.731 65.5559 200.312 64.9438 201.127 64.489C201.951 64.0255 202.896 63.7981 203.971 63.7981C204.638 63.7981 205.271 63.9031 205.886 64.1042C206.502 64.3141 207.039 64.6289 207.499 65.0662C207.958 65.4947 208.322 66.0544 208.6 66.7366C208.877 67.4187 209.007 68.2145 209.007 69.1415V78.1317H206.372V69.8761C206.372 69.229 206.285 68.6693 206.112 68.2058C205.938 67.7423 205.704 67.3662 205.41 67.0864C205.115 66.7978 204.777 66.5966 204.395 66.4654C204.014 66.3343 203.615 66.2731 203.208 66.2731C202.661 66.2731 202.15 66.3605 201.682 66.5354C201.214 66.7103 200.806 66.9902 200.451 67.375C200.095 67.7598 199.827 68.2408 199.627 68.8354C199.428 69.4214 199.333 70.121 199.333 70.9256V78.123H196.697V64.1479H196.706ZM212.986 64.1479H215.622V66.2993H215.682C216.012 65.5559 216.593 64.9438 217.408 64.489C218.231 64.0255 219.176 63.7981 220.251 63.7981C220.919 63.7981 221.551 63.9031 222.167 64.1042C222.782 64.3141 223.32 64.6289 223.779 65.0662C224.239 65.4947 224.603 66.0544 224.88 66.7366C225.158 67.4187 225.288 68.2145 225.288 69.1415V78.1317H222.652V69.8761C222.652 69.229 222.566 68.6693 222.392 68.2058C222.219 67.7423 221.985 67.3662 221.69 67.0864C221.395 66.7978 221.057 66.5966 220.676 66.4654C220.294 66.3343 219.896 66.2731 219.488 66.2731C218.942 66.2731 218.431 66.3605 217.962 66.5354C217.494 66.7103 217.087 66.9902 216.731 67.375C216.376 67.7598 216.107 68.2408 215.908 68.8354C215.708 69.4214 215.613 70.121 215.613 70.9256V78.123H212.978V64.1479H212.986ZM231.252 72.1149C231.252 72.7271 231.382 73.2781 231.651 73.7853C231.911 74.2838 232.258 74.7123 232.691 75.0709C233.125 75.4207 233.619 75.7005 234.182 75.8929C234.746 76.0853 235.335 76.1903 235.942 76.1903C236.766 76.1903 237.477 75.9979 238.083 75.6131C238.69 75.2283 239.245 74.721 239.757 74.0914L241.75 75.6218C240.285 77.5283 238.239 78.4815 235.604 78.4815C234.512 78.4815 233.523 78.2979 232.631 77.9218C231.746 77.5458 230.992 77.0298 230.377 76.3739C229.761 75.718 229.284 74.9397 228.955 74.0477C228.625 73.1556 228.461 72.1849 228.461 71.1442C228.461 70.1035 228.643 69.1328 228.998 68.2408C229.354 67.3487 229.856 66.5704 230.489 65.9145C231.122 65.2586 231.876 64.7426 232.761 64.3666C233.636 63.9905 234.598 63.8069 235.63 63.8069C236.861 63.8069 237.901 64.0255 238.751 64.454C239.601 64.8825 240.294 65.451 240.84 66.1506C241.386 66.8502 241.785 67.6373 242.028 68.5119C242.271 69.3864 242.392 70.2784 242.392 71.1792V72.1237H231.252V72.1149ZM239.566 69.9898C239.549 69.4039 239.453 68.8617 239.288 68.3719C239.124 67.8822 238.872 67.4537 238.543 67.0864C238.213 66.7191 237.797 66.4392 237.295 66.2293C236.8 66.0194 236.22 65.9232 235.552 65.9232C234.911 65.9232 234.321 66.0457 233.784 66.2905C233.246 66.5354 232.795 66.859 232.423 67.2525C232.05 67.6461 231.764 68.0833 231.556 68.5643C231.348 69.0453 231.252 69.5263 231.252 69.9986H239.566V69.9898ZM245.539 64.1479H248.174V66.2993H248.235C248.408 65.9232 248.642 65.5909 248.937 65.2848C249.232 64.9787 249.553 64.7164 249.917 64.5065C250.281 64.2966 250.671 64.1217 251.104 63.9905C251.538 63.8593 251.963 63.7981 252.396 63.7981C252.83 63.7981 253.22 63.8593 253.566 63.973L253.445 66.8328C253.228 66.7715 253.012 66.7278 252.804 66.6841C252.587 66.6491 252.37 66.6229 252.162 66.6229C250.87 66.6229 249.891 66.9902 249.206 67.716C248.521 68.4419 248.183 69.57 248.183 71.1092V78.123H245.548V64.1479H245.539Z" fill="white"/>
</g>
</mask>
<g mask="url(#mask8_127_532)">
<path d="M254 56.2861H99.8545V86.8861H254V56.2861Z" fill="#212121"/>
</g>
</g>
<defs>
<clipPath id="clip0_127_532">
<rect width="247" height="75" fill="white" transform="translate(7 32)"/>
</clipPath>
</defs>
</svg>
