<svg width="311" height="62" viewBox="0 0 311 62" fill="none" xmlns="http://www.w3.org/2000/svg">
<path d="M13.6675 1.21437C15.8628 1.21437 17.763 1.58025 19.3682 2.31202C20.997 3.04379 22.2481 4.08242 23.1215 5.42793C23.9948 6.77343 24.4315 8.3668 24.4315 10.208C24.4315 12.0256 23.9948 13.619 23.1215 14.9881C22.2481 16.3336 20.997 17.3722 19.3682 18.104C17.763 18.8122 15.8628 19.1662 13.6675 19.1662H8.67497V26H2.93887V1.21437H13.6675ZM13.3488 14.4924C15.072 14.4924 16.3821 14.1265 17.2791 13.3947C18.1761 12.6394 18.6246 11.5771 18.6246 10.208C18.6246 8.8153 18.1761 7.75306 17.2791 7.02129C16.3821 6.26592 15.072 5.88823 13.3488 5.88823H8.67497V14.4924H13.3488ZM47.0097 21.397V26H27.8185V1.21437H46.5494V5.81742H33.5192V11.1994H45.0269V15.6609H33.5192V21.397H47.0097ZM66.6576 26L61.8775 19.0954H61.5942H56.6017V26H50.8656V1.21437H61.5942C63.7895 1.21437 65.6898 1.58025 67.2949 2.31202C68.9237 3.04379 70.1748 4.08242 71.0482 5.42793C71.9216 6.77343 72.3583 8.3668 72.3583 10.208C72.3583 12.0492 71.9098 13.6426 71.0128 14.9881C70.1394 16.31 68.8883 17.325 67.2595 18.0332L72.8186 26H66.6576ZM66.5513 10.208C66.5513 8.8153 66.1028 7.75306 65.2058 7.02129C64.3088 6.26592 62.9987 5.88823 61.2755 5.88823H56.6017V14.5278H61.2755C62.9987 14.5278 64.3088 14.1501 65.2058 13.3947C66.1028 12.6394 66.5513 11.5771 66.5513 10.208ZM84.3386 26.4249C82.3794 26.4249 80.4792 26.1652 78.6379 25.6459C76.8203 25.103 75.3568 24.4066 74.2473 23.5568L76.1948 19.2371C77.257 20.016 78.5199 20.6416 79.9834 21.1137C81.447 21.5858 82.9105 21.8219 84.374 21.8219C86.0028 21.8219 87.2067 21.5858 87.9857 21.1137C88.7646 20.618 89.1541 19.9688 89.1541 19.1662C89.1541 18.5761 88.9181 18.0922 88.446 17.7145C87.9975 17.3132 87.4073 16.9946 86.6756 16.7585C85.9674 16.5224 84.9996 16.2628 83.7721 15.9795C81.8837 15.531 80.3375 15.0825 79.1336 14.634C77.9298 14.1855 76.8911 13.4656 76.0177 12.4741C75.1679 11.4827 74.7431 10.1608 74.7431 8.50843C74.7431 7.0685 75.1325 5.77021 75.9115 4.61354C76.6905 3.43328 77.859 2.50086 79.4169 1.81631C80.9985 1.13175 82.9223 0.789476 85.1884 0.789476C86.77 0.789476 88.3161 0.978318 89.8269 1.356C91.3376 1.73369 92.6595 2.27661 93.7926 2.98477L92.0222 7.33996C89.7325 6.04167 87.4427 5.39252 85.153 5.39252C83.5478 5.39252 82.3558 5.65218 81.5768 6.1715C80.8214 6.69081 80.4437 7.37537 80.4437 8.22516C80.4437 9.07496 80.8804 9.7123 81.7538 10.1372C82.6508 10.5385 84.0082 10.9398 85.8258 11.3411C87.7142 11.7896 89.2603 12.2381 90.4642 12.6866C91.6681 13.1351 92.6949 13.8432 93.5447 14.8111C94.4181 15.7789 94.8548 17.089 94.8548 18.7414C94.8548 20.1577 94.4535 21.456 93.6509 22.6362C92.872 23.7929 91.6917 24.7135 90.1101 25.3981C88.5286 26.0826 86.6047 26.4249 84.3386 26.4249ZM110.069 26.4249C107.497 26.4249 105.171 25.8702 103.094 24.7607C101.04 23.6513 99.4235 22.1287 98.2432 20.1931C97.0865 18.2338 96.5082 16.0385 96.5082 13.6072C96.5082 11.1758 97.0865 8.99234 98.2432 7.0567C99.4235 5.09745 101.04 3.5631 103.094 2.45365C105.171 1.3442 107.497 0.789476 110.069 0.789476C112.642 0.789476 114.956 1.3442 117.009 2.45365C119.063 3.5631 120.68 5.09745 121.86 7.0567C123.041 8.99234 123.631 11.1758 123.631 13.6072C123.631 16.0385 123.041 18.2338 121.86 20.1931C120.68 22.1287 119.063 23.6513 117.009 24.7607C114.956 25.8702 112.642 26.4249 110.069 26.4249ZM110.069 21.5386C111.533 21.5386 112.855 21.2081 114.035 20.5472C115.215 19.8626 116.136 18.9184 116.797 17.7145C117.482 16.5106 117.824 15.1415 117.824 13.6072C117.824 12.0728 117.482 10.7037 116.797 9.49985C116.136 8.29598 115.215 7.36357 114.035 6.70262C112.855 6.01806 111.533 5.67579 110.069 5.67579C108.606 5.67579 107.284 6.01806 106.104 6.70262C104.924 7.36357 103.991 8.29598 103.307 9.49985C102.646 10.7037 102.315 12.0728 102.315 13.6072C102.315 15.1415 102.646 16.5106 103.307 17.7145C103.991 18.9184 104.924 19.8626 106.104 20.5472C107.284 21.2081 108.606 21.5386 110.069 21.5386ZM127.234 1.21437H132.97V21.3261H145.398V26H127.234V1.21437ZM169.076 26.4249C166.55 26.4249 164.26 25.882 162.207 24.7961C160.177 23.6867 158.571 22.1641 157.391 20.2285C156.235 18.2692 155.656 16.0621 155.656 13.6072C155.656 11.1522 156.235 8.95693 157.391 7.02129C158.571 5.06205 160.177 3.5395 162.207 2.45365C164.26 1.3442 166.562 0.789476 169.111 0.789476C171.259 0.789476 173.195 1.16716 174.918 1.92253C176.665 2.6779 178.129 3.76375 179.309 5.18007L175.626 8.57924C173.95 6.64361 171.873 5.67579 169.395 5.67579C167.86 5.67579 166.491 6.01806 165.287 6.70262C164.083 7.36357 163.139 8.29598 162.455 9.49985C161.794 10.7037 161.463 12.0728 161.463 13.6072C161.463 15.1415 161.794 16.5106 162.455 17.7145C163.139 18.9184 164.083 19.8626 165.287 20.5472C166.491 21.2081 167.86 21.5386 169.395 21.5386C171.873 21.5386 173.95 20.559 175.626 18.5997L179.309 21.9989C178.129 23.4388 176.665 24.5365 174.918 25.2918C173.171 26.0472 171.224 26.4249 169.076 26.4249ZM198.313 20.6888H186.806L184.61 26H178.733L189.78 1.21437H195.445L206.528 26H200.509L198.313 20.6888ZM196.507 16.3336L192.577 6.84425L188.647 16.3336H196.507ZM224.183 26L219.403 19.0954H219.12H214.127V26H208.391V1.21437H219.12C221.315 1.21437 223.215 1.58025 224.821 2.31202C226.449 3.04379 227.7 4.08242 228.574 5.42793C229.447 6.77343 229.884 8.3668 229.884 10.208C229.884 12.0492 229.435 13.6426 228.538 14.9881C227.665 16.31 226.414 17.325 224.785 18.0332L230.344 26H224.183ZM224.077 10.208C224.077 8.8153 223.629 7.75306 222.732 7.02129C221.834 6.26592 220.524 5.88823 218.801 5.88823H214.127V14.5278H218.801C220.524 14.5278 221.834 14.1501 222.732 13.3947C223.629 12.6394 224.077 11.5771 224.077 10.208ZM252.912 21.397V26H233.72V1.21437H252.451V5.81742H239.421V11.1994H250.929V15.6609H239.421V21.397H252.912ZM275.959 21.397V26H256.767V1.21437H275.498V5.81742H262.468V11.1994H273.976V15.6609H262.468V21.397H275.959ZM295.606 26L290.826 19.0954H290.543H285.551V26H279.815V1.21437H290.543C292.738 1.21437 294.639 1.58025 296.244 2.31202C297.873 3.04379 299.124 4.08242 299.997 5.42793C300.87 6.77343 301.307 8.3668 301.307 10.208C301.307 12.0492 300.859 13.6426 299.962 14.9881C299.088 16.31 297.837 17.325 296.208 18.0332L301.767 26H295.606ZM295.5 10.208C295.5 8.8153 295.052 7.75306 294.155 7.02129C293.258 6.26592 291.948 5.88823 290.224 5.88823H285.551V14.5278H290.224C291.948 14.5278 293.258 14.1501 294.155 13.3947C295.052 12.6394 295.5 11.5771 295.5 10.208ZM8.07303 40.8882H0.141632V36.2144H21.7405V40.8882H13.8091V61H8.07303V40.8882ZM43.3098 56.397V61H24.1187V36.2144H42.8495V40.8174H29.8194V46.1994H41.327V50.6609H29.8194V56.397H43.3098ZM58.9583 61.4249C56.4325 61.4249 54.1428 60.882 52.0891 59.7961C50.059 58.6867 48.4539 57.1641 47.2736 55.2285C46.1169 53.2692 45.5386 51.0621 45.5386 48.6072C45.5386 46.1522 46.1169 43.9569 47.2736 42.0213C48.4539 40.062 50.059 38.5395 52.0891 37.4537C54.1428 36.3442 56.4443 35.7895 58.9937 35.7895C61.1418 35.7895 63.0774 36.1672 64.8006 36.9225C66.5474 37.6779 68.0109 38.7638 69.1912 40.1801L65.5087 43.5792C63.8328 41.6436 61.7555 40.6758 59.2769 40.6758C57.7426 40.6758 56.3735 41.0181 55.1696 41.7026C53.9657 42.3636 53.0215 43.296 52.337 44.4999C51.676 45.7037 51.3455 47.0728 51.3455 48.6072C51.3455 50.1415 51.676 51.5106 52.337 52.7145C53.0215 53.9184 53.9657 54.8626 55.1696 55.5472C56.3735 56.2081 57.7426 56.5386 59.2769 56.5386C61.7555 56.5386 63.8328 55.559 65.5087 53.5997L69.1912 56.9989C68.0109 58.4388 66.5474 59.5365 64.8006 60.2918C63.0538 61.0472 61.1063 61.4249 58.9583 61.4249ZM95.0886 36.2144V61H89.3525V50.8379H78.0927V61H72.3566V36.2144H78.0927V45.987H89.3525V36.2144H95.0886ZM117.708 61.4249C115.749 61.4249 113.848 61.1652 112.007 60.6459C110.19 60.103 108.726 59.4066 107.617 58.5568L109.564 54.2371C110.626 55.016 111.889 55.6416 113.353 56.1137C114.816 56.5858 116.28 56.8219 117.743 56.8219C119.372 56.8219 120.576 56.5858 121.355 56.1137C122.134 55.618 122.523 54.9688 122.523 54.1662C122.523 53.5761 122.287 53.0922 121.815 52.7145C121.367 52.3132 120.777 51.9946 120.045 51.7585C119.337 51.5224 118.369 51.2628 117.141 50.9795C115.253 50.531 113.707 50.0825 112.503 49.634C111.299 49.1855 110.26 48.4656 109.387 47.4741C108.537 46.4827 108.112 45.1608 108.112 43.5084C108.112 42.0685 108.502 40.7702 109.281 39.6135C110.06 38.4333 111.228 37.5009 112.786 36.8163C114.368 36.1318 116.292 35.7895 118.558 35.7895C120.139 35.7895 121.685 35.9783 123.196 36.356C124.707 36.7337 126.029 37.2766 127.162 37.9848L125.391 42.34C123.102 41.0417 120.812 40.3925 118.522 40.3925C116.917 40.3925 115.725 40.6522 114.946 41.1715C114.191 41.6908 113.813 42.3754 113.813 43.2252C113.813 44.075 114.25 44.7123 115.123 45.1372C116.02 45.5385 117.377 45.9398 119.195 46.3411C121.084 46.7896 122.63 47.2381 123.834 47.6866C125.037 48.1351 126.064 48.8432 126.914 49.8111C127.787 50.7789 128.224 52.089 128.224 53.7414C128.224 55.1577 127.823 56.456 127.02 57.6362C126.241 58.7929 125.061 59.7135 123.479 60.3981C121.898 61.0826 119.974 61.4249 117.708 61.4249ZM136.224 40.8882H128.292V36.2144H149.891V40.8882H141.96V61H136.224V40.8882ZM162.866 61.4249C159.326 61.4249 156.564 60.4453 154.581 58.486C152.622 56.5268 151.642 53.7295 151.642 50.0943V36.2144H157.378V49.8819C157.378 54.3197 159.219 56.5386 162.902 56.5386C164.696 56.5386 166.065 56.0075 167.009 54.9452C167.953 53.8594 168.426 52.1716 168.426 49.8819V36.2144H174.091V50.0943C174.091 53.7295 173.099 56.5268 171.117 58.486C169.157 60.4453 166.407 61.4249 162.866 61.4249ZM179.051 36.2144H190.311C193.002 36.2144 195.374 36.7337 197.428 37.7723C199.505 38.7874 201.11 40.2273 202.243 42.0921C203.4 43.9569 203.978 46.1286 203.978 48.6072C203.978 51.0857 203.4 53.2574 202.243 55.1223C201.11 56.9871 199.505 58.4388 197.428 59.4775C195.374 60.4925 193.002 61 190.311 61H179.051V36.2144ZM190.027 56.2907C192.506 56.2907 194.477 55.6062 195.941 54.2371C197.428 52.8443 198.171 50.9677 198.171 48.6072C198.171 46.2466 197.428 44.3818 195.941 43.0127C194.477 41.62 192.506 40.9236 190.027 40.9236H184.787V56.2907H190.027ZM207.596 36.2144H213.332V61H207.596V36.2144ZM230.509 61.4249C227.936 61.4249 225.611 60.8702 223.534 59.7607C221.48 58.6513 219.863 57.1287 218.683 55.1931C217.526 53.2338 216.948 51.0385 216.948 48.6072C216.948 46.1758 217.526 43.9923 218.683 42.0567C219.863 40.0975 221.48 38.5631 223.534 37.4537C225.611 36.3442 227.936 35.7895 230.509 35.7895C233.082 35.7895 235.396 36.3442 237.449 37.4537C239.503 38.5631 241.12 40.0975 242.3 42.0567C243.481 43.9923 244.071 46.1758 244.071 48.6072C244.071 51.0385 243.481 53.2338 242.3 55.1931C241.12 57.1287 239.503 58.6513 237.449 59.7607C235.396 60.8702 233.082 61.4249 230.509 61.4249ZM230.509 56.5386C231.973 56.5386 233.295 56.2081 234.475 55.5472C235.655 54.8626 236.576 53.9184 237.237 52.7145C237.921 51.5106 238.264 50.1415 238.264 48.6072C238.264 47.0728 237.921 45.7037 237.237 44.4999C236.576 43.296 235.655 42.3636 234.475 41.7026C233.295 41.0181 231.973 40.6758 230.509 40.6758C229.046 40.6758 227.724 41.0181 226.544 41.7026C225.363 42.3636 224.431 43.296 223.746 44.4999C223.085 45.7037 222.755 47.0728 222.755 48.6072C222.755 50.1415 223.085 51.5106 223.746 52.7145C224.431 53.9184 225.363 54.8626 226.544 55.5472C227.724 56.2081 229.046 56.5386 230.509 56.5386ZM256.603 41.9505H262.127V61H256.603V41.9505ZM259.365 39.2949C258.35 39.2949 257.524 38.9998 256.887 38.4097C256.249 37.8195 255.931 37.0878 255.931 36.2144C255.931 35.341 256.249 34.6092 256.887 34.0191C257.524 33.4289 258.35 33.1339 259.365 33.1339C260.38 33.1339 261.206 33.4171 261.844 33.9837C262.481 34.5502 262.8 35.2584 262.8 36.1081C262.8 37.0288 262.481 37.7959 261.844 38.4097C261.206 38.9998 260.38 39.2949 259.365 39.2949ZM272.954 61.2833C271.373 61.2833 269.826 61.0944 268.316 60.7167C266.805 60.3154 265.601 59.8197 264.704 59.2296L266.545 55.2639C267.395 55.8068 268.422 56.2553 269.626 56.6094C270.83 56.9399 272.01 57.1051 273.167 57.1051C275.504 57.1051 276.672 56.5268 276.672 55.3701C276.672 54.8272 276.353 54.4377 275.716 54.2017C275.079 53.9656 274.099 53.765 272.777 53.5997C271.219 53.3637 269.933 53.0922 268.918 52.7853C267.903 52.4785 267.017 51.9355 266.262 51.1566C265.53 50.3776 265.164 49.2681 265.164 47.8282C265.164 46.6243 265.507 45.5621 266.191 44.6415C266.899 43.6973 267.914 42.9655 269.236 42.4462C270.582 41.9269 272.163 41.6672 273.981 41.6672C275.327 41.6672 276.66 41.8206 277.982 42.1275C279.328 42.4108 280.437 42.8121 281.311 43.3314L279.469 47.2617C277.793 46.3175 275.964 45.8454 273.981 45.8454C272.801 45.8454 271.916 46.0106 271.325 46.3411C270.735 46.6715 270.44 47.0964 270.44 47.6158C270.44 48.2059 270.759 48.619 271.396 48.855C272.034 49.0911 273.049 49.3153 274.441 49.5278C275.999 49.7875 277.274 50.0707 278.265 50.3776C279.257 50.6609 280.118 51.192 280.85 51.9709C281.582 52.7499 281.948 53.8358 281.948 55.2285C281.948 56.4088 281.594 57.4592 280.886 58.3798C280.177 59.3004 279.139 60.0204 277.77 60.5397C276.424 61.0354 274.819 61.2833 272.954 61.2833ZM299.101 52.3958C299.101 51.1684 299.373 50.1533 299.916 49.3508C300.482 48.5482 301.297 47.663 302.359 46.6952C303.138 45.987 303.704 45.3969 304.059 44.9247C304.436 44.429 304.625 43.8743 304.625 43.2606C304.625 42.3872 304.271 41.7026 303.563 41.2069C302.878 40.6876 301.958 40.4279 300.801 40.4279C299.692 40.4279 298.7 40.664 297.827 41.1361C296.977 41.5846 296.257 42.2219 295.667 43.0481L291.382 40.5342C292.374 39.0234 293.708 37.8549 295.384 37.0288C297.083 36.2026 299.09 35.7895 301.403 35.7895C304.118 35.7895 306.289 36.3678 307.918 37.5245C309.57 38.6811 310.397 40.2863 310.397 42.34C310.397 43.3078 310.231 44.1576 309.901 44.8893C309.594 45.6211 309.204 46.2466 308.732 46.766C308.284 47.2617 307.694 47.84 306.962 48.501C306.089 49.2799 305.451 49.9409 305.05 50.4838C304.649 51.0031 304.448 51.6405 304.448 52.3958H299.101ZM301.792 61.2833C300.825 61.2833 300.01 60.9764 299.349 60.3627C298.712 59.7253 298.393 58.9581 298.393 58.0611C298.393 57.1641 298.712 56.4206 299.349 55.8304C299.987 55.2167 300.801 54.9098 301.792 54.9098C302.784 54.9098 303.598 55.2167 304.236 55.8304C304.873 56.4206 305.192 57.1641 305.192 58.0611C305.192 58.9581 304.861 59.7253 304.2 60.3627C303.563 60.9764 302.76 61.2833 301.792 61.2833Z" fill="url(#paint0_linear_486_3707)"/>
<defs>
<linearGradient id="paint0_linear_486_3707" x1="17.6757" y1="23.0297" x2="308.408" y2="51.8009" gradientUnits="userSpaceOnUse">
<stop stop-color="#C2DCFF"/>
<stop offset="0.50912" stop-color="#D9D9D9"/>
<stop offset="1" stop-color="#EFC167" stop-opacity="0.83"/>
</linearGradient>
</defs>
</svg>
