<svg width="347" height="42" viewBox="0 0 347 42" fill="none" xmlns="http://www.w3.org/2000/svg">
<g clip-path="url(#clip0_835_4765)">
<mask id="mask0_835_4765" style="mask-type:luminance" maskUnits="userSpaceOnUse" x="0" y="0" width="347" height="42">
<path d="M347 0H0V42H347V0Z" fill="white"/>
</mask>
<g mask="url(#mask0_835_4765)">
<path d="M18.8621 23.8626L28.9528 23.8627V6.81738H22.7569V17.8968H18.3311L18.8621 23.8626Z" fill="#97999B"/>
<path d="M17.446 12.7832H21.8718L21.3407 6.81738H11.25V28.9762H17.446V12.7832Z" fill="#97999B"/>
<path d="M27.2714 31.6445C26.2496 31.6445 25.4214 32.4344 25.4214 33.4088C25.4214 34.3832 26.2496 35.173 27.2714 35.173C28.2931 35.173 29.1213 34.3832 29.1213 33.4088C29.1213 32.4344 28.2931 31.6445 27.2714 31.6445ZM27.2714 34.619C26.6065 34.619 26.0675 34.0772 26.0675 33.4088C26.0675 32.7404 26.6065 32.1986 27.2714 32.1986C27.9362 32.1986 28.4752 32.7404 28.4752 33.4088C28.4752 34.0772 27.9362 34.619 27.2714 34.619Z" fill="#97999B"/>
<path d="M12.25 33.6633H14.0204V33.1179H12.25V32.2451H14.2329V31.7031H11.6128V35.1122H14.2682V34.5701H12.25V33.6633Z" fill="#97999B"/>
<path d="M31.6353 34.5667V31.7031H30.998V35.1122H33.4765V34.5667H31.6353Z" fill="#97999B"/>
<path d="M8.47959 31.7032H7.08105V35.1122H7.71838V34.0214H8.47959C9.2503 34.0214 9.80737 33.5024 9.80737 32.8622C9.80737 32.222 9.40015 31.7032 8.47959 31.7032ZM8.42653 33.4759H7.71838V32.2487H8.42653C8.95053 32.2487 9.18775 32.5234 9.18775 32.8623C9.18775 33.2012 8.91303 33.4759 8.42653 33.4759Z" fill="#97999B"/>
<path d="M19.1902 32.8622C19.1902 32.222 18.783 31.7031 17.8624 31.7031H16.4639V35.1122H17.1012V34.0213H17.7949L18.5883 35.1122H19.3318L18.4551 33.9067C18.9027 33.7193 19.1902 33.3221 19.1902 32.8622ZM17.8094 33.4759H17.1012V32.2487H17.8094C18.3333 32.2487 18.5706 32.5234 18.5706 32.8623C18.5706 33.2012 18.2959 33.4759 17.8094 33.4759Z" fill="#97999B"/>
<path d="M23.3513 33.3772C23.1266 33.2389 22.8539 33.1663 22.5208 33.0856C21.918 32.9395 21.8207 32.8348 21.8207 32.6404C21.8207 32.3461 22.1177 32.2143 22.412 32.2143C22.8385 32.2143 23.2016 32.4122 23.38 32.5302C23.5149 32.6194 23.6156 32.7075 23.6866 32.7815V32.0304C23.4173 31.8585 22.9611 31.6348 22.412 31.6348C21.7207 31.6348 21.2188 32.0578 21.2188 32.6404C21.2188 33.3678 21.9419 33.543 22.374 33.6476C23.0439 33.8098 23.198 33.9083 23.198 34.1746C23.198 34.3093 23.1486 34.3994 23.0379 34.4665C22.9133 34.542 22.7162 34.5836 22.4827 34.5836C21.9712 34.5836 21.4133 34.2277 21.2436 34.0669V34.7858C21.2542 34.792 21.2647 34.7982 21.2755 34.8043C21.5102 34.9383 21.9792 35.1631 22.4828 35.1631C23.2953 35.1631 23.7999 34.7843 23.7999 34.1745C23.7999 33.8284 23.649 33.5601 23.3513 33.3772Z" fill="#97999B"/>
<path d="M46.6465 10.2266H41.3457V23.8628H42.9441V19.0511H46.3835C49.398 19.0511 51.9473 17.5317 51.9473 14.5901V14.5512C51.9473 11.8629 49.8431 10.2266 46.6465 10.2266ZM50.3287 14.6487C50.3287 16.4408 48.7911 17.6486 46.4442 17.6486H42.9441V11.6487H46.5251C48.8113 11.6487 50.3287 12.6617 50.3287 14.6097V14.6487Z" fill="#53565A"/>
<path d="M55.6691 17.6875H63.3978V16.2849H55.6691V11.6291H64.3082V10.2266H54.0708V23.8628H64.4094V22.4602H55.6691V17.6875Z" fill="#53565A"/>
<path d="M78.0257 14.3174V14.2785C78.0257 13.2071 77.6212 12.2525 76.9334 11.5902C76.0432 10.7331 74.6471 10.2266 72.9072 10.2266H66.8174V23.8628H68.4157V18.5641H72.4621L76.5692 23.8628H78.5314L74.1818 18.2914C76.4073 17.9018 78.0257 16.5771 78.0257 14.3174ZM68.4156 17.1811V11.6486H72.7858C75.072 11.6486 76.4073 12.6616 76.4073 14.3369V14.3759C76.4073 16.1291 74.89 17.1811 72.7656 17.1811H68.4156Z" fill="#53565A"/>
<path d="M181.794 17.6875H189.522V16.2849H181.794V11.6291H190.433V10.2266H180.195V23.8628H190.534V22.4602H181.794V17.6875Z" fill="#53565A"/>
<path d="M200.306 18.2905C202.531 17.9009 204.15 16.5761 204.15 14.3165V14.2775C204.15 13.2061 203.745 12.2516 203.057 11.5892C202.167 10.7321 200.771 10.2256 199.031 10.2256H192.941V23.8617H194.54V18.5631H198.586L202.693 23.8617H204.656L200.306 18.2905ZM194.54 17.18V11.6477H198.91C201.196 11.6477 202.531 12.6606 202.531 14.336V14.3749C202.531 16.1281 201.014 17.18 198.89 17.18H194.54Z" fill="#53565A"/>
<path d="M85.5927 16.3048C82.4767 15.662 81.7485 14.9412 81.7485 13.6555V13.6166C81.7485 12.3893 82.9217 11.4153 84.7633 11.4153C86.2198 11.4153 87.5346 11.8634 88.8495 12.8958L89.7808 11.7075C88.3438 10.5971 86.8671 10.0322 84.8038 10.0322C82.1126 10.0322 80.1504 11.6102 80.1504 13.7529V13.7919C80.1504 16.0321 81.6473 17.0451 84.9049 17.7269C87.8785 18.3308 88.5865 19.0516 88.5865 20.3177V20.3567C88.5865 21.7009 87.3324 22.6748 85.4309 22.6748C83.4679 22.6748 82.0519 22.032 80.5752 20.7463L79.584 21.8762C81.2832 23.3372 83.124 24.058 85.3702 24.058C88.182 24.058 90.2056 22.5385 90.2056 20.2009V20.1619C90.2056 18.0775 88.7484 16.9671 85.5927 16.3048Z" fill="#53565A"/>
<path d="M98.9834 9.99316C94.6739 9.99316 91.7407 13.2853 91.7407 17.045V17.084C91.7407 20.8436 94.6334 24.0968 98.9429 24.0968C103.252 24.0968 106.186 20.8046 106.186 17.045V17.006C106.186 13.2464 103.293 9.99316 98.9834 9.99316ZM104.527 17.084C104.527 20.1813 102.221 22.6748 98.9834 22.6748C95.746 22.6748 93.3995 20.1423 93.3995 17.045V17.006C93.3995 13.9086 95.7055 11.4152 98.9429 11.4152C102.18 11.4152 104.527 13.9476 104.527 17.045V17.084Z" fill="#53565A"/>
<path d="M110.051 10.2266H108.453V23.8628H118.023V22.4407H110.051V10.2266Z" fill="#53565A"/>
<path d="M132.245 22.6748C129.13 22.6748 126.762 20.2007 126.762 17.045V17.006C126.762 13.8697 129.11 11.4152 132.245 11.4152C134.168 11.4152 135.503 12.1944 136.696 13.2853L137.789 12.1554C136.372 10.8698 134.835 9.99316 132.265 9.99316C128.098 9.99316 125.104 13.1879 125.104 17.045V17.084C125.104 20.9995 128.118 24.0968 132.205 24.0968C134.774 24.0968 136.393 23.1423 137.87 21.7007L136.817 20.7072C135.462 21.9539 134.188 22.6748 132.245 22.6748Z" fill="#53565A"/>
<path d="M145.032 10.1279L138.578 23.8615H140.217L141.896 20.2577H149.604L151.263 23.8615H152.983L146.529 10.1279H145.032ZM142.523 18.8746L145.76 11.9201L148.977 18.8746H142.523Z" fill="#53565A"/>
<path d="M165.607 14.3174V14.2785C165.607 13.2071 165.203 12.2525 164.515 11.5902C163.625 10.7331 162.228 10.2266 160.489 10.2266H154.399V23.8628H155.997V18.5641H160.044L164.151 23.8628H166.113L161.763 18.2914C163.989 17.9018 165.607 16.5771 165.607 14.3174ZM155.997 17.1811V11.6486H160.367C162.653 11.6486 163.989 12.6616 163.989 14.3369V14.3759C163.989 16.1291 162.471 17.1811 160.347 17.1811H155.997Z" fill="#53565A"/>
<path d="M169.33 17.6875H177.058V16.2849H169.33V11.6291H177.969V10.2266H167.731V23.8628H178.071V22.4602H169.33V17.6875Z" fill="#53565A"/>
<path d="M214.986 11.5179H210.182V10.0869H221.4V11.5179H216.595V23.8085H214.986V11.5179Z" fill="#53565A"/>
<path d="M223.15 10.0869H233.452V11.4983H224.759V16.1833H232.536V17.5946H224.759V22.3972H233.553V23.8085H223.15V10.0869Z" fill="#53565A"/>
<path d="M234.979 16.9868V16.9476C234.979 13.0664 237.991 9.85156 242.185 9.85156C244.771 9.85156 246.318 10.7336 247.743 12.0275L246.643 13.1644C245.443 12.0666 244.099 11.2826 242.165 11.2826C239.009 11.2826 236.647 13.7524 236.647 16.9084V16.9476C236.647 20.1232 239.03 22.6127 242.165 22.6127C244.12 22.6127 245.402 21.8873 246.766 20.6328L247.825 21.6326C246.338 23.0831 244.71 24.0437 242.124 24.0437C238.011 24.0437 234.979 20.9268 234.979 16.9868Z" fill="#53565A"/>
<path d="M249.535 10.0869H251.143V16.1833H259.368V10.0869H260.976V23.8085H259.368V17.6338H251.143V23.8085H249.535V10.0869Z" fill="#53565A"/>
<path d="M267.816 21.8088L268.814 20.672C270.301 21.9657 271.725 22.6125 273.7 22.6125C275.614 22.6125 276.877 21.6324 276.877 20.2799V20.2406C276.877 18.9665 276.164 18.2412 273.171 17.6336C269.893 16.9475 268.387 15.9282 268.387 13.6739V13.6347C268.387 11.4784 270.361 9.89062 273.069 9.89062C275.145 9.89062 276.632 10.4591 278.077 11.5764L277.141 12.7722C275.818 11.7333 274.494 11.2825 273.028 11.2825C271.176 11.2825 269.995 12.2626 269.995 13.4975V13.5367C269.995 14.8305 270.728 15.5558 273.863 16.2026C277.039 16.8691 278.505 17.9864 278.505 20.0839V20.123C278.505 22.4753 276.469 24.0043 273.639 24.0043C271.379 24.0043 269.527 23.279 267.816 21.8088Z" fill="#53565A"/>
<path d="M284.083 11.5179H279.279V10.0869H290.496V11.5179H285.691V23.8085H284.083V11.5179Z" fill="#53565A"/>
<path d="M292.023 18.0651V10.0869H293.631V17.9671C293.631 20.927 295.26 22.5932 297.988 22.5932C300.615 22.5932 302.284 21.0642 302.284 18.0651V10.0869H303.892V17.9474C303.892 21.9464 301.51 24.0242 297.948 24.0242C294.425 24.0242 292.023 21.9464 292.023 18.0651Z" fill="#53565A"/>
<path d="M306.518 10.0869H311.465C315.944 10.0869 319.038 13.0469 319.038 16.9085V16.9477C319.038 20.8094 315.944 23.8085 311.465 23.8085H306.518V10.0869ZM308.127 11.5179V22.3776H311.465C315.069 22.3776 317.369 20.0253 317.369 16.987V16.9478C317.369 13.9095 315.069 11.518 311.465 11.518L308.127 11.5179Z" fill="#53565A"/>
<path d="M321.4 10.0869H323.008V23.8085H321.4V10.0869Z" fill="#53565A"/>
<path d="M325.369 16.9868V16.9476C325.369 13.1644 328.322 9.85156 332.658 9.85156C336.994 9.85156 339.906 13.1251 339.906 16.9083V16.9475C339.906 20.7308 336.953 24.0436 332.617 24.0436C328.281 24.0436 325.369 20.77 325.369 16.9868ZM338.236 16.9868V16.9476C338.236 13.8308 335.875 11.2826 332.617 11.2826C329.36 11.2826 327.039 13.7917 327.039 16.9084V16.9476C327.039 20.0644 329.4 22.6127 332.658 22.6127C335.915 22.6127 338.236 20.1035 338.236 16.9868Z" fill="#53565A"/>
<path d="M297.397 34.2625L295.13 28.9766H294.329L297.069 35.1566H297.707L300.447 28.9766H299.673L297.397 34.2625Z" fill="#53565A"/>
<path d="M301.803 28.9766H301.084V35.1128H301.803V28.9766Z" fill="#53565A"/>
<path d="M303.798 32.3339H307.276V31.7028H303.798V29.6077H307.685V28.9766H303.078V35.1128H307.731V34.4817H303.798V32.3339Z" fill="#53565A"/>
<path d="M308.687 29.6165H310.835V35.1128H311.554V29.6165H313.703V28.9766H308.687V29.6165Z" fill="#53565A"/>
<path d="M319.475 33.8943L315.46 28.9766H314.786V35.1128H315.487V30.0811L319.603 35.1128H320.176V28.9766H319.475V33.8943Z" fill="#53565A"/>
<path d="M323.718 28.9316L320.813 35.1117H321.551L322.307 33.4901H325.775L326.522 35.1117H327.296L324.392 28.9316H323.718ZM322.589 32.8676L324.045 29.7381L325.493 32.8676H322.589Z" fill="#53565A"/>
<path d="M330.983 32.3252L328.662 28.9766H327.934V35.1128H328.635V30.1512L330.956 33.4298H330.993L333.314 30.1424V35.1128H334.033V28.9766H333.305L330.983 32.3252Z" fill="#53565A"/>
</g>
</g>
<defs>
<clipPath id="clip0_835_4765">
<rect width="347" height="42" fill="white"/>
</clipPath>
</defs>
</svg>
