<svg xmlns="http://www.w3.org/2000/svg" width="347" height="42" fill="none" viewBox="0 0 347 42"><g clip-path="url(#a)"><mask id="b" width="347" height="42" x="0" y="0" maskUnits="userSpaceOnUse" style="mask-type:luminance"><path fill="#fff" d="M347 0H0v42h347z"/></mask><g fill="#fff" mask="url(#b)"><path d="M18.862 23.863h10.09V6.817h-6.195v11.08H18.33z"/><path d="M17.446 12.783h4.426l-.531-5.966H11.25v22.16h6.196zm9.825 18.862c-1.021 0-1.85.79-1.85 1.764s.829 1.764 1.85 1.764 1.85-.79 1.85-1.764c0-.975-.828-1.764-1.85-1.764m0 2.974a1.207 1.207 0 0 1-1.204-1.21c0-.669.54-1.21 1.204-1.21.665 0 1.204.541 1.204 1.21s-.539 1.21-1.204 1.21m-15.021-.956h1.77v-.545h-1.77v-.873h1.983v-.542h-2.62v3.41h2.655v-.543H12.25zm19.385.904v-2.864h-.637v3.41h2.479v-.546zM8.48 31.703h-1.4v3.41h.637V34.02h.762c.77 0 1.327-.519 1.327-1.159S9.4 31.703 8.48 31.703m-.053 1.773h-.709v-1.227h.709c.524 0 .76.274.76.613 0 .34-.274.614-.76.614m10.763-.614c0-.64-.407-1.159-1.328-1.159h-1.398v3.41h.637V34.02h.694l.793 1.091h.744l-.877-1.205c.448-.188.735-.585.735-1.045m-1.38.614h-.71v-1.227h.708c.524 0 .762.274.762.613 0 .34-.275.614-.762.614m5.543-.098c-.224-.138-.497-.21-.83-.291-.603-.146-.7-.251-.7-.446 0-.294.297-.426.591-.426.427 0 .79.198.968.316.135.09.236.178.307.252v-.752c-.27-.172-.726-.395-1.275-.395-.691 0-1.193.423-1.193 1.005 0 .728.723.903 1.155 1.008.67.162.824.26.824.527a.31.31 0 0 1-.16.292c-.125.075-.322.117-.555.117-.512 0-1.07-.356-1.24-.517v.719l.033.018c.234.134.703.36 1.207.36.812 0 1.317-.38 1.317-.99a.89.89 0 0 0-.449-.797m23.296-23.15h-5.301v13.636h1.598V19.05h3.44c3.014 0 5.563-1.52 5.563-4.46v-.04c0-2.688-2.104-4.324-5.3-4.324m3.682 4.422c0 1.792-1.538 3-3.885 3h-3.5v-6h3.581c2.286 0 3.804 1.013 3.804 2.96zm5.341 3.04h7.728v-1.403h-7.729v-4.656h8.64v-1.402H54.07v13.636h10.338V22.46h-8.74zm22.356-3.371v-.039c0-1.07-.405-2.026-1.093-2.688-.89-.857-2.286-1.363-4.026-1.363h-6.09v13.636h1.599v-5.299h4.046l4.107 5.299h1.962l-4.35-5.572c2.226-.39 3.845-1.714 3.845-3.974m-9.61 2.864V11.65h4.37c2.286 0 3.621 1.013 3.621 2.688v.039c0 1.753-1.517 2.805-3.641 2.805zm113.378.507h7.728v-1.403h-7.728v-4.656h8.639v-1.402h-10.238v13.636h10.339V22.46h-8.74zm18.512.602c2.225-.39 3.844-1.714 3.844-3.973v-.04c0-1.07-.405-2.025-1.093-2.688-.89-.857-2.286-1.363-4.026-1.363h-6.09v13.636h1.599v-5.299h4.046l4.107 5.299h1.963zm-5.766-1.11v-5.532h4.37c2.286 0 3.621 1.013 3.621 2.688v.039c0 1.753-1.517 2.805-3.641 2.805zm-108.947-.875c-3.116-.643-3.844-1.364-3.844-2.65v-.038c0-1.228 1.173-2.202 3.014-2.202 1.457 0 2.772.448 4.087 1.48l.93-1.187c-1.436-1.11-2.913-1.676-4.976-1.676-2.691 0-4.654 1.578-4.654 3.72v.04c0 2.24 1.497 3.253 4.755 3.935 2.974.604 3.682 1.325 3.682 2.59v.04c0 1.344-1.255 2.318-3.156 2.318-1.963 0-3.38-.643-4.856-1.929l-.991 1.13c1.7 1.461 3.54 2.182 5.786 2.182 2.812 0 4.836-1.52 4.836-3.857v-.04c0-2.084-1.458-3.194-4.613-3.856m13.39-6.312c-4.31 0-7.242 3.292-7.242 7.052v.039c0 3.76 2.892 7.013 7.202 7.013 4.309 0 7.243-3.292 7.243-7.052v-.039c0-3.76-2.893-7.013-7.203-7.013m5.544 7.091c0 3.097-2.306 5.59-5.544 5.59S93.4 20.143 93.4 17.046v-.039c0-3.097 2.307-5.59 5.544-5.59s5.584 2.532 5.584 5.629zm5.524-6.857h-1.598v13.636h9.57V22.44h-7.972zm22.194 12.448c-3.115 0-5.483-2.474-5.483-5.63v-.039c0-3.136 2.348-5.59 5.483-5.59 1.923 0 3.258.778 4.451 1.87l1.093-1.13c-1.417-1.286-2.954-2.163-5.524-2.163-4.167 0-7.161 3.195-7.161 7.052v.039c0 3.916 3.014 7.013 7.101 7.013 2.569 0 4.188-.955 5.665-2.396l-1.053-.994c-1.355 1.247-2.629 1.968-4.572 1.968m12.787-12.547-6.454 13.734h1.639l1.679-3.604h7.708l1.659 3.604h1.72l-6.454-13.734zm-2.509 8.747 3.237-6.955 3.217 6.955zm23.084-4.558v-.039c0-1.07-.404-2.026-1.092-2.688-.89-.857-2.287-1.363-4.026-1.363h-6.09v13.636h1.598v-5.299h4.047l4.107 5.299h1.962l-4.35-5.572c2.226-.39 3.844-1.714 3.844-3.974m-9.61 2.864V11.65h4.37c2.286 0 3.622 1.013 3.622 2.688v.039c0 1.753-1.518 2.805-3.642 2.805zm13.333.507h7.728v-1.403h-7.728v-4.656h8.639v-1.402h-10.238v13.636h10.34V22.46h-8.741zm45.656-6.17h-4.804v-1.431H221.4v1.43h-4.805V23.81h-1.609zm8.164-1.431h10.302v1.411h-8.693v4.685h7.777v1.412h-7.777v4.802h8.794v1.412H223.15zm11.829 6.9v-.04c0-3.88 3.012-7.095 7.206-7.095 2.586 0 4.133.882 5.558 2.175l-1.1 1.137c-1.2-1.097-2.544-1.881-4.478-1.881-3.156 0-5.518 2.47-5.518 5.625v.04c0 3.175 2.383 5.665 5.518 5.665 1.955 0 3.237-.726 4.601-1.98l1.059 1c-1.487 1.45-3.115 2.41-5.701 2.41-4.113 0-7.145-3.116-7.145-7.056m14.556-6.9h1.608v6.096h8.225v-6.096h1.608v13.721h-1.608v-6.174h-8.225v6.174h-1.608zm18.281 11.722.998-1.137c1.487 1.294 2.911 1.94 4.886 1.94 1.914 0 3.177-.98 3.177-2.332v-.04c0-1.273-.713-1.999-3.706-2.606-3.278-.686-4.784-1.706-4.784-3.96v-.04c0-2.156 1.974-3.743 4.682-3.743 2.076 0 3.563.568 5.008 1.685l-.936 1.196c-1.323-1.039-2.647-1.49-4.113-1.49-1.852 0-3.033.98-3.033 2.216v.039c0 1.293.733 2.019 3.868 2.666 3.176.666 4.642 1.783 4.642 3.88v.04c0 2.352-2.036 3.881-4.866 3.881-2.26 0-4.112-.725-5.823-2.195m16.267-10.291h-4.804v-1.431h11.217v1.43h-4.805V23.81h-1.608zm7.94 6.547v-7.978h1.608v7.88c0 2.96 1.629 4.626 4.357 4.626 2.627 0 4.296-1.529 4.296-4.528v-7.978h1.608v7.86c0 4-2.382 6.077-5.944 6.077-3.523 0-5.925-2.078-5.925-5.959m14.495-7.978h4.947c4.479 0 7.573 2.96 7.573 6.822v.039c0 3.861-3.094 6.86-7.573 6.86h-4.947zm1.609 1.43v10.86h3.338c3.604 0 5.904-2.352 5.904-5.39v-.04c0-3.037-2.3-5.429-5.904-5.429zm13.273-1.43h1.608v13.721H321.4zm3.969 6.9v-.04c0-3.783 2.953-7.095 7.289-7.095s7.248 3.273 7.248 7.056v.04c0 3.783-2.953 7.096-7.289 7.096s-7.248-3.274-7.248-7.057m12.867 0v-.04c0-3.116-2.361-5.664-5.619-5.664s-5.578 2.509-5.578 5.625v.04c0 3.116 2.361 5.665 5.619 5.665s5.578-2.51 5.578-5.626m-40.839 17.276-2.267-5.286h-.801l2.74 6.18h.638l2.74-6.18h-.774zm4.406-5.286h-.719v6.136h.719zm1.995 3.357h3.478v-.631h-3.478v-2.095h3.887v-.631h-4.607v6.136h4.653v-.631h-3.933zm4.889-2.717h2.148v5.496h.719v-5.497h2.149v-.64h-5.016zm10.788 4.277-4.015-4.917h-.674v6.136h.701V30.08l4.116 5.032h.573v-6.136h-.701zm4.243-4.962-2.905 6.18h.738l.756-1.622h3.468l.747 1.622h.774l-2.904-6.18zm-1.129 3.936 1.456-3.13 1.448 3.13zm8.394-.543-2.321-3.348h-.728v6.136h.701V30.15l2.321 3.279h.037l2.321-3.288v4.97h.719v-6.135h-.728z"/></g></g><defs><clipPath id="a"><path fill="#fff" d="M0 0h347v42H0z"/></clipPath></defs></svg>