<svg xmlns="http://www.w3.org/2000/svg" width="311" height="62" fill="none" viewBox="0 0 311 62"><path fill="url(#a)" d="M13.668 1.214q3.293 0 5.7 1.098 2.443 1.097 3.754 3.116 1.31 2.018 1.31 4.78 0 2.727-1.31 4.78-1.31 2.018-3.754 3.116-2.407 1.062-5.7 1.062H8.675V26H2.939V1.214zm-.32 13.278q2.586 0 3.931-1.097 1.346-1.134 1.346-3.187 0-2.09-1.346-3.187-1.345-1.133-3.93-1.133H8.675v8.604zm33.662 6.905V26H27.819V1.214h18.73v4.603H33.52V11.2h11.508v4.462H33.519v5.736zM66.658 26l-4.78-6.905h-5.276V26h-5.736V1.214h10.728q3.293 0 5.7 1.098 2.444 1.097 3.754 3.116 1.31 2.018 1.31 4.78t-1.345 4.78q-1.31 1.983-3.754 3.045L72.82 26zm-.107-15.792q0-2.09-1.345-3.187-1.346-1.133-3.93-1.133h-4.674v8.64h4.674q2.584 0 3.93-1.133 1.345-1.134 1.345-3.187M84.34 26.425a21 21 0 0 1-5.701-.78q-2.727-.813-4.39-2.088l1.947-4.32q1.593 1.169 3.788 1.877t4.391.708q2.444 0 3.612-.708 1.168-.744 1.168-1.948 0-.885-.708-1.451-.673-.602-1.77-.956-1.063-.355-2.904-.78-2.832-.672-4.638-1.345a7.7 7.7 0 0 1-3.116-2.16q-1.275-1.486-1.275-3.966 0-2.16 1.169-3.894 1.168-1.77 3.505-2.798Q81.789.79 85.188.79q2.373 0 4.639.567 2.265.566 3.966 1.629l-1.77 4.355q-3.435-1.947-6.87-1.947-2.407 0-3.576.779-1.133.778-1.133 2.053t1.31 1.912q1.345.603 4.072 1.204 2.832.673 4.638 1.346a7.54 7.54 0 0 1 3.08 2.124q1.31 1.452 1.31 3.93a6.8 6.8 0 0 1-1.203 3.895q-1.17 1.736-3.54 2.762-2.373 1.027-5.772 1.027m25.73 0q-3.859 0-6.975-1.664-3.08-1.665-4.85-4.568-1.736-2.94-1.736-6.586t1.735-6.55q1.77-2.94 4.851-4.603Q106.21.789 110.069.789q3.86 0 6.94 1.665 3.081 1.664 4.851 4.603 1.771 2.903 1.771 6.55 0 3.648-1.771 6.586-1.77 2.904-4.851 4.568-3.08 1.665-6.94 1.664m0-4.886q2.196 0 3.966-.992a7.25 7.25 0 0 0 2.762-2.832q1.027-1.806 1.027-4.108T116.797 9.5a7 7 0 0 0-2.762-2.797q-1.77-1.027-3.966-1.027-2.195 0-3.965 1.027a7.24 7.24 0 0 0-2.797 2.797q-.992 1.806-.992 4.107t.992 4.108a7.5 7.5 0 0 0 2.797 2.832q1.77.992 3.965.992m17.165-20.325h5.736v20.112h12.428V26h-18.164zm41.842 25.21q-3.79 0-6.869-1.628-3.046-1.665-4.816-4.567-1.734-2.94-1.735-6.622 0-3.682 1.735-6.586a12.3 12.3 0 0 1 4.816-4.567q3.08-1.665 6.904-1.665 3.222 0 5.807 1.134 2.62 1.132 4.391 3.257l-3.683 3.4q-2.514-2.904-6.231-2.904-2.302 0-4.108 1.027a7.17 7.17 0 0 0-2.832 2.797q-.992 1.806-.992 4.107t.992 4.108a7.4 7.4 0 0 0 2.832 2.832q1.806.992 4.108.992 3.717 0 6.231-2.94l3.683 3.4a11.5 11.5 0 0 1-4.391 3.293q-2.62 1.133-5.842 1.133m29.237-5.735h-11.507L184.61 26h-5.877L189.78 1.214h5.665L206.528 26h-6.019zm-1.806-4.355-3.93-9.49-3.93 9.49zM224.183 26l-4.78-6.905h-5.276V26h-5.736V1.214h10.729q3.292 0 5.701 1.098 2.442 1.097 3.753 3.116 1.31 2.018 1.31 4.78t-1.346 4.78q-1.31 1.983-3.753 3.045L230.344 26zm-.106-15.792q0-2.09-1.345-3.187-1.347-1.133-3.931-1.133h-4.674v8.64h4.674q2.584 0 3.931-1.133 1.345-1.134 1.345-3.187m28.835 11.189V26H233.72V1.214h18.731v4.603h-13.03V11.2h11.508v4.462h-11.508v5.736zm23.047 0V26h-19.192V1.214h18.731v4.603h-13.03V11.2h11.508v4.462h-11.508v5.736zM295.606 26l-4.78-6.905h-5.275V26h-5.736V1.214h10.728q3.293 0 5.701 1.098 2.443 1.097 3.753 3.116 1.31 2.018 1.31 4.78t-1.345 4.78q-1.31 1.983-3.754 3.045L301.767 26zm-.106-15.792q0-2.09-1.345-3.187-1.345-1.133-3.931-1.133h-4.673v8.64h4.673q2.586 0 3.931-1.133t1.345-3.187M8.073 40.888H.142v-4.674H21.74v4.674h-7.932V61H8.073zM43.31 56.397V61H24.119V36.214h18.73v4.603H29.82V46.2h11.508v4.462H29.819v5.736zm15.648 5.028q-3.789 0-6.869-1.629-3.045-1.665-4.815-4.568-1.735-2.939-1.735-6.62 0-3.684 1.735-6.587a12.3 12.3 0 0 1 4.815-4.567q3.08-1.665 6.905-1.665 3.221 0 5.807 1.133 2.62 1.134 4.39 3.258l-3.682 3.4q-2.514-2.904-6.232-2.904-2.302 0-4.107 1.027a7.17 7.17 0 0 0-2.833 2.797q-.992 1.806-.992 4.107t.992 4.108a7.4 7.4 0 0 0 2.833 2.832q1.805.992 4.107.992 3.718 0 6.232-2.94L69.19 57a11.5 11.5 0 0 1-4.39 3.293q-2.62 1.133-5.843 1.133m36.13-25.21V61h-5.735V50.838h-11.26V61h-5.736V36.214h5.736v9.773h11.26v-9.773zm22.62 25.21q-2.939 0-5.701-.78-2.726-.813-4.39-2.088l1.947-4.32q1.593 1.169 3.789 1.877 2.195.708 4.39.708 2.444 0 3.612-.708 1.168-.744 1.168-1.948 0-.885-.708-1.451-.672-.602-1.77-.957-1.062-.353-2.904-.779-2.832-.672-4.638-1.345a7.7 7.7 0 0 1-3.116-2.16q-1.275-1.486-1.275-3.966 0-2.16 1.169-3.895 1.168-1.77 3.505-2.797 2.373-1.026 5.772-1.027 2.371 0 4.638.567 2.267.566 3.966 1.629l-1.771 4.355q-3.434-1.947-6.869-1.948-2.408 0-3.576.78-1.133.778-1.133 2.053t1.31 1.912q1.345.602 4.072 1.204 2.833.673 4.639 1.346a7.55 7.55 0 0 1 3.08 2.124q1.31 1.452 1.31 3.93a6.8 6.8 0 0 1-1.204 3.895q-1.168 1.736-3.541 2.762-2.372 1.027-5.771 1.027m18.516-20.537h-7.932v-4.674h21.599v4.674h-7.931V61h-5.736zm26.642 20.537q-5.31 0-8.285-2.939-2.939-2.939-2.939-8.392v-13.88h5.736v13.668q0 6.657 5.524 6.657 2.691 0 4.107-1.594 1.416-1.629 1.417-5.063V36.214h5.665v13.88q0 5.454-2.974 8.392-2.94 2.94-8.251 2.939m16.185-25.21h11.26q4.036 0 7.117 1.557 3.115 1.522 4.815 4.32 1.735 2.798 1.735 6.515 0 3.718-1.735 6.515-1.7 2.798-4.815 4.355-3.08 1.524-7.117 1.523h-11.26zm10.976 20.076q3.718 0 5.914-2.054 2.23-2.09 2.23-5.63t-2.23-5.594q-2.196-2.09-5.914-2.09h-5.24v15.368zm17.569-20.077h5.736V61h-5.736zm22.913 25.21q-3.86 0-6.975-1.663-3.081-1.665-4.851-4.568-1.735-2.939-1.735-6.586t1.735-6.55q1.77-2.94 4.851-4.603 3.115-1.665 6.975-1.665t6.94 1.665 4.851 4.603q1.771 2.903 1.771 6.55 0 3.648-1.771 6.586-1.77 2.904-4.851 4.568-3.08 1.665-6.94 1.664m0-4.885q2.196 0 3.966-.992a7.25 7.25 0 0 0 2.762-2.832q1.026-1.806 1.027-4.108t-1.027-4.107a7 7 0 0 0-2.762-2.797q-1.77-1.027-3.966-1.027-2.195 0-3.965 1.027a7.24 7.24 0 0 0-2.798 2.797q-.991 1.806-.991 4.107t.991 4.108a7.5 7.5 0 0 0 2.798 2.832q1.77.992 3.965.992m26.094-14.589h5.524V61h-5.524zm2.762-2.655q-1.523 0-2.478-.885-.957-.885-.956-2.196 0-1.31.956-2.195.955-.885 2.478-.885 1.522 0 2.479.85.956.849.956 2.124 0 1.38-.956 2.302-.957.885-2.479.885m13.589 21.988q-2.372 0-4.638-.566-2.267-.603-3.612-1.487l1.841-3.966q1.275.814 3.081 1.345a13.3 13.3 0 0 0 3.541.496q3.505 0 3.505-1.735 0-.814-.956-1.168t-2.939-.602q-2.337-.354-3.859-.815a6.1 6.1 0 0 1-2.656-1.628q-1.098-1.17-1.098-3.329 0-1.806 1.027-3.187 1.062-1.416 3.045-2.195 2.019-.78 4.745-.779 2.019 0 4.001.46 2.019.426 3.329 1.204l-1.842 3.93q-2.514-1.416-5.488-1.416-1.77 0-2.656.496-.885.495-.885 1.275 0 .885.956 1.239.957.354 3.045.673 2.337.39 3.824.85a5.6 5.6 0 0 1 2.585 1.593q1.098 1.169 1.098 3.258 0 1.77-1.062 3.15-1.063 1.381-3.116 2.16-2.019.744-4.816.744m26.147-8.887q0-1.842.815-3.045.85-1.204 2.443-2.656 1.168-1.062 1.7-1.77.566-.743.566-1.664 0-1.31-1.062-2.054-1.027-.78-2.762-.78-1.664 0-2.974.71a6.2 6.2 0 0 0-2.16 1.911l-4.285-2.514q1.488-2.266 4.002-3.505 2.549-1.24 6.019-1.24 4.072 0 6.515 1.736 2.479 1.734 2.479 4.815 0 1.452-.496 2.55a6.5 6.5 0 0 1-1.169 1.876 25 25 0 0 1-1.77 1.735q-1.31 1.169-1.912 1.983-.602.78-.602 1.912zm2.691 8.887q-1.451 0-2.443-.92a3.14 3.14 0 0 1-.956-2.302q0-1.345.956-2.23.957-.921 2.443-.921 1.488 0 2.444.92.956.885.956 2.231t-.992 2.302q-.956.92-2.408.92"/><defs><linearGradient id="a" x1="17.676" x2="308.408" y1="23.03" y2="51.801" gradientUnits="userSpaceOnUse"><stop stop-color="#c2dcff"/><stop offset=".509" stop-color="#d9d9d9"/><stop offset="1" stop-color="#efc167" stop-opacity=".83"/></linearGradient></defs></svg>