<svg xmlns="http://www.w3.org/2000/svg" width="1120" height="52" fill="none" viewBox="0 0 1120 52"><path fill="url(#a)" d="M19.704 6.2q5.952 0 10.304 1.984 4.416 1.984 6.784 5.632t2.368 8.64q0 4.927-2.368 8.64-2.368 3.648-6.784 5.632-4.352 1.92-10.304 1.92H10.68V51H.312V6.2zm-.576 24q4.673 0 7.104-1.984 2.432-2.047 2.432-5.76 0-3.775-2.432-5.76-2.432-2.048-7.104-2.048H10.68V30.2zM79.97 42.68V51H45.282V6.2h33.856v8.32H55.586v9.728h20.8v8.064h-20.8V42.68zM115.484 51l-8.64-12.48h-9.536V51H86.939V6.2h19.393q5.952 0 10.304 1.984 4.416 1.984 6.784 5.632t2.368 8.64-2.432 8.64q-2.368 3.585-6.784 5.504L126.62 51zm-.192-28.544q0-3.775-2.432-5.76-2.433-2.048-7.104-2.048h-8.448v15.616h8.448q4.671 0 7.104-2.048t2.432-5.76m32.15 29.312q-5.312 0-10.304-1.408-4.928-1.472-7.936-3.776l3.52-7.808q2.88 2.112 6.848 3.392t7.936 1.28q4.416 0 6.528-1.28 2.112-1.345 2.112-3.52 0-1.6-1.28-2.624-1.216-1.088-3.2-1.728-1.92-.64-5.248-1.408-5.12-1.215-8.384-2.432-3.264-1.215-5.632-3.904-2.304-2.688-2.304-7.168 0-3.905 2.112-7.04 2.112-3.2 6.336-5.056 4.288-1.856 10.432-1.856 4.288 0 8.384 1.024T164.53 9.4l-3.2 7.872q-6.208-3.52-12.416-3.52-4.352 0-6.464 1.408-2.048 1.408-2.048 3.712t2.368 3.456q2.432 1.087 7.36 2.176 5.12 1.215 8.384 2.432 3.264 1.215 5.568 3.84 2.368 2.624 2.368 7.104 0 3.84-2.176 7.04-2.112 3.136-6.4 4.992t-10.432 1.856m46.509 0q-6.977 0-12.608-3.008-5.568-3.007-8.768-8.256-3.136-5.312-3.136-11.904t3.136-11.84q3.2-5.312 8.768-8.32 5.631-3.008 12.608-3.008 6.975 0 12.544 3.008 5.567 3.008 8.768 8.32 3.2 5.248 3.2 11.84 0 6.593-3.2 11.904-3.2 5.248-8.768 8.256t-12.544 3.008m0-8.832q3.967 0 7.168-1.792a13.1 13.1 0 0 0 4.992-5.12q1.856-3.263 1.856-7.424 0-4.16-1.856-7.424-1.792-3.264-4.992-5.056-3.2-1.856-7.168-1.856t-7.168 1.856q-3.2 1.792-5.056 5.056-1.792 3.264-1.792 7.424t1.792 7.424q1.855 3.264 5.056 5.12 3.2 1.792 7.168 1.792M224.975 6.2h10.368v36.352h22.464V51h-32.832zm75.63 45.568q-6.849 0-12.416-2.944-5.505-3.008-8.704-8.256-3.136-5.311-3.136-11.968 0-6.656 3.136-11.904 3.2-5.311 8.704-8.256 5.568-3.008 12.48-3.008 5.823 0 10.496 2.048 4.735 2.048 7.936 5.888l-6.656 6.144q-4.544-5.248-11.264-5.248-4.16 0-7.424 1.856-3.264 1.792-5.12 5.056-1.792 3.264-1.792 7.424t1.792 7.424a13.4 13.4 0 0 0 5.12 5.12q3.263 1.792 7.424 1.792 6.72 0 11.264-5.312l6.656 6.144q-3.2 3.904-7.936 5.952-4.737 2.048-10.56 2.048M353.451 41.4h-20.8l-3.968 9.6h-10.624l19.968-44.8h10.24L368.299 51h-10.88zm-3.264-7.872-7.104-17.152-7.104 17.152zM400.211 51l-8.64-12.48h-9.536V51h-10.368V6.2h19.392q5.952 0 10.304 1.984 4.416 1.984 6.784 5.632t2.368 8.64-2.432 8.64q-2.368 3.585-6.784 5.504L411.347 51zm-.192-28.544q0-3.775-2.432-5.76-2.431-2.048-7.104-2.048h-8.448v15.616h8.448q4.673 0 7.104-2.048t2.432-5.76m52.119 20.224V51H417.45V6.2h33.856v8.32h-23.552v9.728h20.8v8.064h-20.8V42.68zm41.657 0V51h-34.688V6.2h33.856v8.32h-23.552v9.728h20.8v8.064h-20.8V42.68zM529.309 51l-8.64-12.48h-9.536V51h-10.368V6.2h19.392q5.952 0 10.304 1.984 4.416 1.984 6.784 5.632t2.368 8.64-2.432 8.64q-2.368 3.585-6.784 5.504L540.445 51zm-.192-28.544q0-3.775-2.432-5.76-2.433-2.048-7.104-2.048h-8.448v15.616h8.448q4.671 0 7.104-2.048t2.432-5.76m43.555-7.808h-14.336V6.2h39.04v8.448H583.04V51h-10.368zm63.69 28.032V51h-34.688V6.2h33.856v8.32h-23.552v9.728h20.8v8.064h-20.8V42.68zm28.285 9.088q-6.848 0-12.416-2.944-5.504-3.008-8.704-8.256-3.136-5.311-3.136-11.968 0-6.656 3.136-11.904 3.2-5.311 8.704-8.256 5.568-3.008 12.48-3.008 5.824 0 10.496 2.048 4.736 2.048 7.936 5.888l-6.656 6.144q-4.544-5.248-11.264-5.248-4.16 0-7.424 1.856-3.264 1.792-5.12 5.056-1.792 3.264-1.792 7.424t1.792 7.424a13.4 13.4 0 0 0 5.12 5.12q3.264 1.792 7.424 1.792 6.72 0 11.264-5.312l6.656 6.144q-3.2 3.904-7.936 5.952t-10.56 2.048M729.952 6.2V51h-10.368V32.632h-20.352V51h-10.368V6.2h10.368v17.664h20.352V6.2zm40.885 45.568q-5.312 0-10.304-1.408-4.928-1.472-7.936-3.776l3.52-7.808q2.88 2.112 6.848 3.392t7.936 1.28q4.416 0 6.528-1.28 2.112-1.345 2.112-3.52 0-1.6-1.28-2.624-1.216-1.088-3.2-1.728-1.92-.64-5.248-1.408-5.12-1.215-8.384-2.432-3.264-1.215-5.632-3.904-2.304-2.688-2.304-7.168 0-3.905 2.112-7.04 2.112-3.2 6.336-5.056 4.288-1.856 10.432-1.856 4.288 0 8.384 1.024t7.168 2.944l-3.2 7.872q-6.208-3.52-12.416-3.52-4.352 0-6.464 1.408-2.048 1.408-2.048 3.712t2.368 3.456q2.432 1.087 7.36 2.176 5.12 1.215 8.384 2.432 3.264 1.215 5.568 3.84 2.368 2.624 2.368 7.104 0 3.84-2.176 7.04-2.112 3.136-6.4 4.992t-10.432 1.856m33.468-37.12h-14.336V6.2h39.04v8.448h-14.336V51h-10.368zm48.156 37.12q-9.6 0-14.976-5.312-5.312-5.312-5.312-15.168V6.2h10.368v24.704q0 12.032 9.984 12.032 4.864 0 7.424-2.88 2.56-2.944 2.56-9.152V6.2h10.24v25.088q0 9.856-5.376 15.168-5.312 5.312-14.912 5.312M881.715 6.2h20.352q7.296 0 12.864 2.816 5.631 2.752 8.704 7.808 3.136 5.055 3.136 11.776 0 6.72-3.136 11.776-3.072 5.056-8.704 7.872Q909.363 51 902.067 51h-20.352zm19.84 36.288q6.72 0 10.688-3.712Q916.275 35 916.275 28.6t-4.032-10.112q-3.968-3.776-10.688-3.776h-9.472v27.776zM933.309 6.2h10.368V51h-10.368zm41.417 45.568q-6.977 0-12.608-3.008-5.568-3.007-8.768-8.256-3.136-5.312-3.136-11.904t3.136-11.84q3.2-5.312 8.768-8.32 5.631-3.008 12.608-3.008 6.975 0 12.544 3.008 5.567 3.008 8.768 8.32 3.2 5.248 3.2 11.84 0 6.593-3.2 11.904-3.2 5.248-8.768 8.256t-12.544 3.008m0-8.832q3.967 0 7.168-1.792a13.1 13.1 0 0 0 4.992-5.12q1.856-3.263 1.856-7.424 0-4.16-1.856-7.424-1.793-3.264-4.992-5.056-3.2-1.856-7.168-1.856t-7.168 1.856q-3.2 1.792-5.056 5.056-1.792 3.264-1.792 7.424t1.792 7.424q1.855 3.264 5.056 5.12 3.2 1.792 7.168 1.792m47.164-26.368h9.98V51h-9.98zm4.99-4.8c-1.83 0-3.33-.533-4.48-1.6s-1.73-2.39-1.73-3.968c0-1.579.58-2.901 1.73-3.968s2.65-1.6 4.48-1.6c1.84 0 3.33.512 4.48 1.536s1.73 2.304 1.73 3.84c0 1.664-.58 3.05-1.73 4.16-1.15 1.067-2.64 1.6-4.48 1.6m24.56 39.744c-2.85 0-5.65-.341-8.38-1.024-2.73-.725-4.91-1.621-6.53-2.688l3.33-7.168c1.54.981 3.39 1.792 5.57 2.432 2.17.597 4.31.896 6.4.896q6.33 0 6.33-3.136c0-.981-.57-1.685-1.72-2.112-1.16-.427-2.93-.79-5.32-1.088-2.81-.427-5.14-.917-6.97-1.472a11 11 0 0 1-4.8-2.944c-1.32-1.408-1.99-3.413-1.99-6.016q0-3.264 1.86-5.76c1.28-1.707 3.12-3.03 5.5-3.968q3.66-1.408 8.58-1.408 3.645 0 7.23.832c2.43.512 4.44 1.237 6.02 2.176l-3.33 7.104c-3.03-1.707-6.34-2.56-9.92-2.56q-3.195 0-4.8.896c-1.07.597-1.6 1.365-1.6 2.304 0 1.067.58 1.813 1.73 2.24s2.99.832 5.5 1.216c2.82.47 5.12.981 6.91 1.536 1.8.512 3.35 1.472 4.68 2.88q1.98 2.111 1.98 5.888 0 3.2-1.92 5.696c-1.28 1.664-3.16 2.965-5.63 3.904-2.43.896-5.33 1.344-8.71 1.344m47.27-16.064q0-3.328 1.47-5.504 1.53-2.175 4.41-4.8c1.41-1.28 2.44-2.347 3.08-3.2a4.85 4.85 0 0 0 1.02-3.008q0-2.368-1.92-3.712c-1.24-.939-2.9-1.408-4.99-1.408-2.01 0-3.8.427-5.38 1.28-1.53.81-2.84 1.963-3.9 3.456l-7.75-4.544c1.8-2.73 4.21-4.843 7.24-6.336 3.07-1.493 6.69-2.24 10.88-2.24 4.9 0 8.83 1.045 11.77 3.136 2.99 2.09 4.48 4.992 4.48 8.704 0 1.75-.3 3.285-.89 4.608-.56 1.323-1.26 2.453-2.12 3.392-.81.896-1.87 1.941-3.2 3.136q-2.37 2.112-3.45 3.584c-.73.939-1.09 2.09-1.09 3.456zm4.86 16.064c-1.75 0-3.22-.555-4.42-1.664-1.15-1.152-1.72-2.539-1.72-4.16s.57-2.965 1.72-4.032c1.16-1.11 2.63-1.664 4.42-1.664s3.26.555 4.42 1.664c1.15 1.067 1.72 2.41 1.72 4.032s-.59 3.008-1.79 4.16q-1.725 1.665-4.35 1.664"/><defs><linearGradient id="a" x1="56.622" x2="1025.78" y1="16.386" y2="245.85" gradientUnits="userSpaceOnUse"><stop stop-color="#c2dcff"/><stop offset=".509" stop-color="#d9d9d9"/><stop offset="1" stop-color="#efc167" stop-opacity=".83"/></linearGradient></defs></svg>