<svg width="446" height="56" viewBox="0 0 446 56" fill="none" xmlns="http://www.w3.org/2000/svg">
<g clip-path="url(#clip0_381_3170)">
<path d="M24.2441 31.8178L37.2137 31.8179V31.8178V9.09082H29.2501V23.8634H23.5615L24.2441 31.8178Z" fill="#97999B"/>
<path d="M22.4237 17.0452H28.1122L27.4296 9.09082H14.46V38.6359H22.4237V17.0452Z" fill="#97999B"/>
<path d="M35.0526 42.1926C33.7393 42.1926 32.6748 43.2457 32.6748 44.5449C32.6748 45.8441 33.7393 46.8972 35.0526 46.8972C36.3658 46.8972 37.4303 45.8441 37.4303 44.5449C37.4303 43.2457 36.3658 42.1926 35.0526 42.1926ZM35.0526 46.1585C34.198 46.1585 33.5053 45.4361 33.5053 44.5449C33.5053 43.6537 34.198 42.9313 35.0526 42.9313C35.9071 42.9313 36.5999 43.6537 36.5999 44.5449C36.5999 45.4361 35.9071 46.1585 35.0526 46.1585Z" fill="#97999B"/>
<path d="M15.7453 44.8858H18.0208V44.1586H15.7453V42.9949H18.2939V42.2722H14.9263V46.8176H18.3393V46.0949H15.7453V44.8858Z" fill="#97999B"/>
<path d="M40.6614 46.0903V42.2722H39.8423V46.8176H43.0278V46.0903H40.6614Z" fill="#97999B"/>
<path d="M10.8991 42.2723H9.10156V46.8177H9.92072V45.3632H10.8991C11.8897 45.3632 12.6057 44.6712 12.6057 43.8177C12.6057 42.9641 12.0823 42.2722 10.8991 42.2722V42.2723ZM10.8309 44.6359H9.92072V42.9996H10.8309C11.5044 42.9996 11.8093 43.3659 11.8093 43.8178C11.8093 44.2696 11.4562 44.636 10.8309 44.636V44.6359Z" fill="#97999B"/>
<path d="M24.6653 43.8177C24.6653 42.9641 24.1419 42.2722 22.9587 42.2722H21.1611V46.8176H21.9803V45.3631H22.8719L23.8916 46.8176H24.8473L23.7205 45.2103C24.2958 44.9605 24.6653 44.4308 24.6653 43.8177ZM22.8905 44.6359H21.9803V42.9996H22.8905C23.5639 42.9996 23.8689 43.3659 23.8689 43.8178C23.8689 44.2696 23.5158 44.636 22.8905 44.636V44.6359Z" fill="#97999B"/>
<path d="M30.0139 44.5046C29.725 44.3203 29.3746 44.2234 28.9464 44.1158C28.1716 43.9211 28.0466 43.7814 28.0466 43.5223C28.0466 43.1298 28.4283 42.9541 28.8066 42.9541C29.3548 42.9541 29.8214 43.218 30.0508 43.3753C30.2242 43.4943 30.3536 43.6117 30.4448 43.7104V42.7089C30.0987 42.4797 29.5124 42.1814 28.8066 42.1814C27.918 42.1814 27.2729 42.7454 27.2729 43.5223C27.2729 44.4921 28.2024 44.7257 28.7577 44.8652C29.6188 45.0815 29.8168 45.2128 29.8168 45.5678C29.8168 45.7475 29.7533 45.8676 29.611 45.9571C29.4509 46.0577 29.1976 46.1132 28.8975 46.1132C28.24 46.1132 27.523 45.6387 27.3048 45.4242V46.3828C27.3184 46.391 27.332 46.3993 27.3458 46.4074C27.6475 46.5861 28.2503 46.8859 28.8976 46.8859C29.9419 46.8859 30.5905 46.3808 30.5905 45.5677C30.5905 45.1063 30.3966 44.7485 30.014 44.5046H30.0139Z" fill="#97999B"/>
<path d="M59.9547 13.6363H53.1416V31.8179H55.196V25.4023H59.6167C63.4913 25.4023 66.7679 23.3764 66.7679 19.4543V19.4024C66.7679 15.818 64.0634 13.6362 59.9548 13.6362L59.9547 13.6363ZM64.6875 19.5324C64.6875 21.9219 62.7112 23.5323 59.6947 23.5323H55.196V15.5324H59.7987C62.7372 15.5324 64.6875 16.883 64.6875 19.4804V19.5324Z" fill="#53565A"/>
<path d="M71.5523 23.5841H81.486V21.714H71.5523V15.5063H82.6562V13.6362H69.498V31.8178H82.7862V29.9477H71.5523V23.5841Z" fill="#53565A"/>
<path d="M100.287 19.0907V19.0388C100.287 17.6102 99.7671 16.3375 98.883 15.4544C97.7388 14.3116 95.9445 13.6362 93.7082 13.6362H85.8809V31.8178H87.9352V24.7529H93.1361L98.4149 31.8178H100.937L95.3464 24.3893C98.2069 23.8699 100.287 22.1036 100.287 19.0907V19.0907ZM87.9351 22.9089V15.5323H93.5521C96.4906 15.5323 98.2069 16.8829 98.2069 19.1167V19.1687C98.2069 21.5063 96.2566 22.9089 93.5261 22.9089H87.9352H87.9351Z" fill="#53565A"/>
<path d="M233.66 23.5841H243.593V21.714H233.66V15.5063H244.764V13.6362H231.605V31.8178H244.894V29.9477H233.66V23.5841Z" fill="#53565A"/>
<path d="M257.454 24.3892C260.314 23.8697 262.395 22.1034 262.395 19.0905V19.0386C262.395 17.61 261.875 16.3373 260.99 15.4541C259.846 14.3113 258.052 13.636 255.816 13.636H247.988V31.8175H250.043V24.7527H255.244L260.522 31.8175H263.045L257.454 24.3891L257.454 24.3892ZM250.043 22.9086V15.5321H255.66C258.598 15.5321 260.314 16.8827 260.314 19.1165V19.1684C260.314 21.506 258.364 22.9086 255.634 22.9086H250.043Z" fill="#53565A"/>
<path d="M110.013 21.7399C106.008 20.8828 105.072 19.9218 105.072 18.2075V18.1556C105.072 16.5193 106.58 15.2206 108.947 15.2206C110.819 15.2206 112.509 15.818 114.199 17.1946L115.396 15.6102C113.549 14.1297 111.651 13.3765 108.999 13.3765C105.54 13.3765 103.018 15.4804 103.018 18.3374V18.3894C103.018 21.3763 104.942 22.727 109.129 23.6361C112.951 24.4412 113.861 25.4023 113.861 27.0905V27.1425C113.861 28.9347 112.249 30.2333 109.805 30.2333C107.282 30.2333 105.462 29.3762 103.564 27.6619L102.29 29.1685C104.474 31.1165 106.84 32.0775 109.727 32.0775C113.341 32.0775 115.942 30.0515 115.942 26.9347V26.8827C115.942 24.1035 114.069 22.623 110.013 21.7399H110.013Z" fill="#53565A"/>
<path d="M127.224 13.3245C121.685 13.3245 117.915 17.714 117.915 22.7269V22.7789C117.915 27.7918 121.633 32.1294 127.172 32.1294C132.711 32.1294 136.482 27.7398 136.482 22.7269V22.675C136.482 17.6621 132.763 13.3245 127.224 13.3245H127.224ZM134.349 22.7789C134.349 26.9087 131.385 30.2333 127.224 30.2333C123.063 30.2333 120.047 26.8567 120.047 22.7269V22.675C120.047 18.5451 123.011 15.2205 127.172 15.2205C131.333 15.2205 134.349 18.5971 134.349 22.727V22.779V22.7789Z" fill="#53565A"/>
<path d="M141.449 13.6362H139.395V31.8178H151.695V29.9217H141.449V13.6362Z" fill="#53565A"/>
<path d="M169.975 30.2333C165.971 30.2333 162.928 26.9346 162.928 22.7269V22.675C162.928 18.4932 165.945 15.2205 169.975 15.2205C172.446 15.2205 174.162 16.2595 175.696 17.714L177.101 16.2075C175.28 14.4933 173.304 13.3245 170.001 13.3245C164.645 13.3245 160.796 17.5841 160.796 22.7269V22.7789C160.796 27.9996 164.671 32.1294 169.923 32.1294C173.226 32.1294 175.306 30.8567 177.205 28.9346L175.852 27.6099C174.11 29.2722 172.472 30.2333 169.975 30.2333Z" fill="#53565A"/>
<path d="M186.41 13.5061L178.115 31.8175H180.221L182.38 27.0124H192.287L194.419 31.8175H196.63L188.334 13.5061H186.41H186.41ZM183.186 25.1683L187.346 15.8957L191.481 25.1683H183.186Z" fill="#53565A"/>
<path d="M212.856 19.0907V19.0388C212.856 17.6102 212.336 16.3375 211.452 15.4544C210.308 14.3116 208.513 13.6362 206.277 13.6362H198.45V31.8178H200.504V24.7529H205.705L210.984 31.8178H213.506L207.915 24.3893C210.776 23.8699 212.856 22.1036 212.856 19.0907L212.856 19.0907ZM200.504 22.9089V15.5323H206.121C209.059 15.5323 210.776 16.8829 210.776 19.1167V19.1687C210.776 21.5063 208.825 22.9089 206.095 22.9089H200.504Z" fill="#53565A"/>
<path d="M217.641 23.5841H227.574V21.714H217.641V15.5063H228.745V13.6362H215.586V31.8178H228.875V29.9477H217.641V23.5841Z" fill="#53565A"/>
<path d="M276.323 15.3582H270.148V13.4502H284.566V15.3582H278.391V31.7457H276.323V15.3582H276.323Z" fill="#53565A"/>
<path d="M286.816 13.4502H300.057V15.3321H288.883V21.5787H298.879V23.4605H288.883V29.8639H300.187V31.7457H286.816V13.4502Z" fill="#53565A"/>
<path d="M302.019 22.6503V22.5981C302.019 17.4231 305.891 13.1367 311.282 13.1367C314.605 13.1367 316.594 14.3128 318.425 16.0379L317.012 17.5538C315.469 16.0901 313.741 15.0447 311.256 15.0447C307.2 15.0447 304.164 18.3378 304.164 22.5458V22.5981C304.164 26.8322 307.226 30.1515 311.256 30.1515C313.768 30.1515 315.416 29.1844 317.169 27.5117L318.53 28.8447C316.62 30.7788 314.527 32.0595 311.203 32.0595C305.917 32.0595 302.019 27.9038 302.019 22.6504L302.019 22.6503Z" fill="#53565A"/>
<path d="M320.728 13.4502H322.795V21.5787H333.367V13.4502H335.434V31.7457H333.367V23.5127H322.795V31.7457H320.728V13.4502Z" fill="#53565A"/>
<path d="M344.225 29.0796L345.507 27.5638C347.418 29.2888 349.249 30.1512 351.787 30.1512C354.247 30.1512 355.87 28.8444 355.87 27.041V26.9887C355.87 25.2899 354.954 24.3228 351.107 23.5126C346.894 22.5979 344.958 21.2388 344.958 18.2331V18.1808C344.958 15.3058 347.496 13.1887 350.976 13.1887C353.645 13.1887 355.556 13.9467 357.413 15.4364L356.21 17.0308C354.509 15.6456 352.808 15.0445 350.924 15.0445C348.543 15.0445 347.025 16.3513 347.025 17.9979V18.0501C347.025 19.7752 347.967 20.7422 351.997 21.6047C356.079 22.4933 357.963 23.9831 357.963 26.7797V26.8319C357.963 29.9683 355.346 32.0069 351.709 32.0069C348.804 32.0069 346.423 31.0399 344.225 29.0796H344.225Z" fill="#53565A"/>
<path d="M365.133 15.3582H358.958V13.4502H373.376V15.3582H367.2V31.7457H365.133V15.3582H365.133Z" fill="#53565A"/>
<path d="M375.338 24.0878V13.4502H377.405V23.9571C377.405 27.9037 379.499 30.1253 383.005 30.1253C386.381 30.1253 388.526 28.0866 388.526 24.0878V13.4502H390.593V23.9309C390.593 29.2628 387.532 32.0333 382.953 32.0333C378.426 32.0333 375.338 29.2628 375.338 24.0878H375.338Z" fill="#53565A"/>
<path d="M393.968 13.4502H400.327C406.084 13.4502 410.061 17.3968 410.061 22.5457V22.5979C410.061 27.7468 406.084 31.7457 400.327 31.7457H393.968V13.4502ZM396.036 15.3582V29.8378H400.327C404.959 29.8378 407.915 26.7014 407.915 22.6503V22.5981C407.915 18.547 404.959 15.3583 400.327 15.3583H396.036V15.3582Z" fill="#53565A"/>
<path d="M413.096 13.4502H415.163V31.7457H413.096V13.4502Z" fill="#53565A"/>
<path d="M418.198 22.6503V22.5981C418.198 17.5538 421.993 13.1367 427.566 13.1367C433.14 13.1367 436.882 17.5014 436.882 22.5457V22.598C436.882 27.6423 433.087 32.0594 427.514 32.0594C421.94 32.0594 418.198 27.6946 418.198 22.6503ZM434.736 22.6503V22.5981C434.736 18.4424 431.701 15.0447 427.514 15.0447C423.327 15.0447 420.344 18.3902 420.344 22.5458V22.5981C420.344 26.7538 423.379 30.1515 427.566 30.1515C431.753 30.1515 434.736 26.806 434.736 22.6503Z" fill="#53565A"/>
<path d="M382.245 45.6839L379.332 38.636H378.302L381.824 46.8761H382.643L386.165 38.636H385.171L382.245 45.6839Z" fill="#53565A"/>
<path d="M387.909 38.636H386.985V46.8177H387.909V38.636Z" fill="#53565A"/>
<path d="M390.472 43.1125H394.942V42.271H390.472V39.4775H395.468V38.636H389.547V46.8177H395.527V45.9762H390.472V43.1125Z" fill="#53565A"/>
<path d="M396.756 39.4892H399.517V46.8177H400.442V39.4892H403.204V38.636H396.756V39.4892Z" fill="#53565A"/>
<path d="M410.623 45.193L405.462 38.636H404.596V46.8177H405.497V40.1087L410.787 46.8177H411.524V38.636H410.623V45.193Z" fill="#53565A"/>
<path d="M416.076 38.5774L412.343 46.8175H413.291L414.262 44.6553H418.72L419.68 46.8175H420.675L416.942 38.5774H416.076H416.076ZM414.625 43.8254L416.497 39.6527L418.358 43.8254H414.625Z" fill="#53565A"/>
<path d="M425.414 43.1008L422.43 38.636H421.494V46.8177H422.395V40.2022L425.379 44.5736H425.426L428.41 40.1905V46.8177H429.334V38.636H428.398L425.414 43.1008Z" fill="#53565A"/>
</g>
<defs>
<clipPath id="clip0_381_3170">
<rect width="446" height="56" fill="white"/>
</clipPath>
</defs>
</svg>
