<svg width="1120" height="52" viewBox="0 0 1120 52" fill="none" xmlns="http://www.w3.org/2000/svg">
<path d="M19.704 6.2C23.672 6.2 27.1067 6.86133 30.008 8.184C32.952 9.50667 35.2133 11.384 36.792 13.816C38.3707 16.248 39.16 19.128 39.16 22.456C39.16 25.7413 38.3707 28.6213 36.792 31.096C35.2133 33.528 32.952 35.4053 30.008 36.728C27.1067 38.008 23.672 38.648 19.704 38.648H10.68V51H0.312V6.2H19.704ZM19.128 30.2C22.2427 30.2 24.6107 29.5387 26.232 28.216C27.8533 26.8507 28.664 24.9307 28.664 22.456C28.664 19.9387 27.8533 18.0187 26.232 16.696C24.6107 15.3307 22.2427 14.648 19.128 14.648H10.68V30.2H19.128ZM79.97 42.68V51H45.282V6.2H79.138V14.52H55.586V24.248H76.386V32.312H55.586V42.68H79.97ZM115.484 51L106.844 38.52H106.332H97.3075V51H86.9395V6.2H106.332C110.3 6.2 113.734 6.86133 116.636 8.184C119.58 9.50667 121.841 11.384 123.42 13.816C124.998 16.248 125.788 19.128 125.788 22.456C125.788 25.784 124.977 28.664 123.356 31.096C121.777 33.4853 119.516 35.32 116.572 36.6L126.62 51H115.484ZM115.292 22.456C115.292 19.9387 114.481 18.0187 112.86 16.696C111.238 15.3307 108.87 14.648 105.756 14.648H97.3075V30.264H105.756C108.87 30.264 111.238 29.5813 112.86 28.216C114.481 26.8507 115.292 24.9307 115.292 22.456ZM147.442 51.768C143.901 51.768 140.466 51.2987 137.138 50.36C133.853 49.3787 131.207 48.12 129.202 46.584L132.722 38.776C134.642 40.184 136.925 41.3147 139.57 42.168C142.215 43.0213 144.861 43.448 147.506 43.448C150.45 43.448 152.626 43.0213 154.034 42.168C155.442 41.272 156.146 40.0987 156.146 38.648C156.146 37.5813 155.719 36.7067 154.866 36.024C154.055 35.2987 152.989 34.7227 151.666 34.296C150.386 33.8693 148.637 33.4 146.418 32.888C143.005 32.0773 140.21 31.2667 138.034 30.456C135.858 29.6453 133.981 28.344 132.402 26.552C130.866 24.76 130.098 22.3707 130.098 19.384C130.098 16.7813 130.802 14.4347 132.21 12.344C133.618 10.2107 135.73 8.52533 138.546 7.288C141.405 6.05067 144.882 5.432 148.978 5.432C151.837 5.432 154.631 5.77333 157.362 6.456C160.093 7.13867 162.482 8.12 164.53 9.4L161.33 17.272C157.191 14.9253 153.053 13.752 148.914 13.752C146.013 13.752 143.858 14.2213 142.45 15.16C141.085 16.0987 140.402 17.336 140.402 18.872C140.402 20.408 141.191 21.56 142.77 22.328C144.391 23.0533 146.845 23.7787 150.13 24.504C153.543 25.3147 156.338 26.1253 158.514 26.936C160.69 27.7467 162.546 29.0267 164.082 30.776C165.661 32.5253 166.45 34.8933 166.45 37.88C166.45 40.44 165.725 42.7867 164.274 44.92C162.866 47.0107 160.733 48.6747 157.874 49.912C155.015 51.1493 151.538 51.768 147.442 51.768ZM193.951 51.768C189.3 51.768 185.097 50.7653 181.343 48.76C177.631 46.7547 174.708 44.0027 172.575 40.504C170.484 36.9627 169.439 32.9947 169.439 28.6C169.439 24.2053 170.484 20.2587 172.575 16.76C174.708 13.2187 177.631 10.4453 181.343 8.44C185.097 6.43467 189.3 5.432 193.951 5.432C198.601 5.432 202.783 6.43467 206.495 8.44C210.207 10.4453 213.129 13.2187 215.263 16.76C217.396 20.2587 218.463 24.2053 218.463 28.6C218.463 32.9947 217.396 36.9627 215.263 40.504C213.129 44.0027 210.207 46.7547 206.495 48.76C202.783 50.7653 198.601 51.768 193.951 51.768ZM193.951 42.936C196.596 42.936 198.985 42.3387 201.119 41.144C203.252 39.9067 204.916 38.2 206.111 36.024C207.348 33.848 207.967 31.3733 207.967 28.6C207.967 25.8267 207.348 23.352 206.111 21.176C204.916 19 203.252 17.3147 201.119 16.12C198.985 14.8827 196.596 14.264 193.951 14.264C191.305 14.264 188.916 14.8827 186.783 16.12C184.649 17.3147 182.964 19 181.727 21.176C180.532 23.352 179.935 25.8267 179.935 28.6C179.935 31.3733 180.532 33.848 181.727 36.024C182.964 38.2 184.649 39.9067 186.783 41.144C188.916 42.3387 191.305 42.936 193.951 42.936ZM224.975 6.2H235.343V42.552H257.807V51H224.975V6.2ZM300.605 51.768C296.039 51.768 291.901 50.7867 288.189 48.824C284.519 46.8187 281.618 44.0667 279.485 40.568C277.394 37.0267 276.349 33.0373 276.349 28.6C276.349 24.1627 277.394 20.1947 279.485 16.696C281.618 13.1547 284.519 10.4027 288.189 8.44C291.901 6.43467 296.061 5.432 300.669 5.432C304.551 5.432 308.05 6.11467 311.165 7.48C314.322 8.84533 316.967 10.808 319.101 13.368L312.445 19.512C309.415 16.0133 305.661 14.264 301.181 14.264C298.407 14.264 295.933 14.8827 293.757 16.12C291.581 17.3147 289.874 19 288.637 21.176C287.442 23.352 286.845 25.8267 286.845 28.6C286.845 31.3733 287.442 33.848 288.637 36.024C289.874 38.2 291.581 39.9067 293.757 41.144C295.933 42.3387 298.407 42.936 301.181 42.936C305.661 42.936 309.415 41.1653 312.445 37.624L319.101 43.768C316.967 46.3707 314.322 48.3547 311.165 49.72C308.007 51.0853 304.487 51.768 300.605 51.768ZM353.451 41.4H332.651L328.683 51H318.059L338.027 6.2H348.267L368.299 51H357.419L353.451 41.4ZM350.187 33.528L343.083 16.376L335.979 33.528H350.187ZM400.211 51L391.571 38.52H391.059H382.035V51H371.667V6.2H391.059C395.027 6.2 398.462 6.86133 401.363 8.184C404.307 9.50667 406.568 11.384 408.147 13.816C409.726 16.248 410.515 19.128 410.515 22.456C410.515 25.784 409.704 28.664 408.083 31.096C406.504 33.4853 404.243 35.32 401.299 36.6L411.347 51H400.211ZM400.019 22.456C400.019 19.9387 399.208 18.0187 397.587 16.696C395.966 15.3307 393.598 14.648 390.483 14.648H382.035V30.264H390.483C393.598 30.264 395.966 29.5813 397.587 28.216C399.208 26.8507 400.019 24.9307 400.019 22.456ZM452.138 42.68V51H417.45V6.2H451.306V14.52H427.754V24.248H448.554V32.312H427.754V42.68H452.138ZM493.795 42.68V51H459.107V6.2H492.963V14.52H469.411V24.248H490.211V32.312H469.411V42.68H493.795ZM529.309 51L520.669 38.52H520.157H511.133V51H500.765V6.2H520.157C524.125 6.2 527.559 6.86133 530.461 8.184C533.405 9.50667 535.666 11.384 537.245 13.816C538.823 16.248 539.613 19.128 539.613 22.456C539.613 25.784 538.802 28.664 537.181 31.096C535.602 33.4853 533.341 35.32 530.397 36.6L540.445 51H529.309ZM529.117 22.456C529.117 19.9387 528.306 18.0187 526.685 16.696C525.063 15.3307 522.695 14.648 519.581 14.648H511.133V30.264H519.581C522.695 30.264 525.063 29.5813 526.685 28.216C528.306 26.8507 529.117 24.9307 529.117 22.456ZM572.672 14.648H558.336V6.2H597.376V14.648H583.04V51H572.672V14.648ZM636.362 42.68V51H601.674V6.2H635.53V14.52H611.978V24.248H632.778V32.312H611.978V42.68H636.362ZM664.647 51.768C660.082 51.768 655.943 50.7867 652.231 48.824C648.562 46.8187 645.66 44.0667 643.527 40.568C641.436 37.0267 640.391 33.0373 640.391 28.6C640.391 24.1627 641.436 20.1947 643.527 16.696C645.66 13.1547 648.562 10.4027 652.231 8.44C655.943 6.43467 660.103 5.432 664.711 5.432C668.594 5.432 672.092 6.11467 675.207 7.48C678.364 8.84533 681.01 10.808 683.143 13.368L676.487 19.512C673.458 16.0133 669.703 14.264 665.223 14.264C662.45 14.264 659.975 14.8827 657.799 16.12C655.623 17.3147 653.916 19 652.679 21.176C651.484 23.352 650.887 25.8267 650.887 28.6C650.887 31.3733 651.484 33.848 652.679 36.024C653.916 38.2 655.623 39.9067 657.799 41.144C659.975 42.3387 662.45 42.936 665.223 42.936C669.703 42.936 673.458 41.1653 676.487 37.624L683.143 43.768C681.01 46.3707 678.364 48.3547 675.207 49.72C672.05 51.0853 668.53 51.768 664.647 51.768ZM729.952 6.2V51H719.584V32.632H699.232V51H688.864V6.2H699.232V23.864H719.584V6.2H729.952ZM770.837 51.768C767.296 51.768 763.861 51.2987 760.533 50.36C757.248 49.3787 754.602 48.12 752.597 46.584L756.117 38.776C758.037 40.184 760.32 41.3147 762.965 42.168C765.61 43.0213 768.256 43.448 770.901 43.448C773.845 43.448 776.021 43.0213 777.429 42.168C778.837 41.272 779.541 40.0987 779.541 38.648C779.541 37.5813 779.114 36.7067 778.261 36.024C777.45 35.2987 776.384 34.7227 775.061 34.296C773.781 33.8693 772.032 33.4 769.813 32.888C766.4 32.0773 763.605 31.2667 761.429 30.456C759.253 29.6453 757.376 28.344 755.797 26.552C754.261 24.76 753.493 22.3707 753.493 19.384C753.493 16.7813 754.197 14.4347 755.605 12.344C757.013 10.2107 759.125 8.52533 761.941 7.288C764.8 6.05067 768.277 5.432 772.373 5.432C775.232 5.432 778.026 5.77333 780.757 6.456C783.488 7.13867 785.877 8.12 787.925 9.4L784.725 17.272C780.586 14.9253 776.448 13.752 772.309 13.752C769.408 13.752 767.253 14.2213 765.845 15.16C764.48 16.0987 763.797 17.336 763.797 18.872C763.797 20.408 764.586 21.56 766.165 22.328C767.786 23.0533 770.24 23.7787 773.525 24.504C776.938 25.3147 779.733 26.1253 781.909 26.936C784.085 27.7467 785.941 29.0267 787.477 30.776C789.056 32.5253 789.845 34.8933 789.845 37.88C789.845 40.44 789.12 42.7867 787.669 44.92C786.261 47.0107 784.128 48.6747 781.269 49.912C778.41 51.1493 774.933 51.768 770.837 51.768ZM804.305 14.648H789.969V6.2H829.009V14.648H814.673V51H804.305V14.648ZM852.461 51.768C846.061 51.768 841.069 49.9973 837.485 46.456C833.944 42.9147 832.173 37.8587 832.173 31.288V6.2H842.541V30.904C842.541 38.9253 845.869 42.936 852.525 42.936C855.768 42.936 858.242 41.976 859.949 40.056C861.656 38.0933 862.509 35.0427 862.509 30.904V6.2H872.749V31.288C872.749 37.8587 870.957 42.9147 867.373 46.456C863.832 49.9973 858.861 51.768 852.461 51.768ZM881.715 6.2H902.067C906.931 6.2 911.219 7.13866 914.931 9.016C918.685 10.8507 921.587 13.4533 923.635 16.824C925.725 20.1947 926.771 24.12 926.771 28.6C926.771 33.08 925.725 37.0053 923.635 40.376C921.587 43.7467 918.685 46.3707 914.931 48.248C911.219 50.0827 906.931 51 902.067 51H881.715V6.2ZM901.555 42.488C906.035 42.488 909.597 41.2507 912.243 38.776C914.931 36.2587 916.275 32.8667 916.275 28.6C916.275 24.3333 914.931 20.9627 912.243 18.488C909.597 15.9707 906.035 14.712 901.555 14.712H892.083V42.488H901.555ZM933.309 6.2H943.677V51H933.309V6.2ZM974.726 51.768C970.075 51.768 965.872 50.7653 962.118 48.76C958.406 46.7547 955.483 44.0027 953.35 40.504C951.259 36.9627 950.214 32.9947 950.214 28.6C950.214 24.2053 951.259 20.2587 953.35 16.76C955.483 13.2187 958.406 10.4453 962.118 8.44C965.872 6.43467 970.075 5.432 974.726 5.432C979.376 5.432 983.558 6.43467 987.27 8.44C990.982 10.4453 993.904 13.2187 996.038 16.76C998.171 20.2587 999.238 24.2053 999.238 28.6C999.238 32.9947 998.171 36.9627 996.038 40.504C993.904 44.0027 990.982 46.7547 987.27 48.76C983.558 50.7653 979.376 51.768 974.726 51.768ZM974.726 42.936C977.371 42.936 979.76 42.3387 981.894 41.144C984.027 39.9067 985.691 38.2 986.886 36.024C988.123 33.848 988.742 31.3733 988.742 28.6C988.742 25.8267 988.123 23.352 986.886 21.176C985.691 19 984.027 17.3147 981.894 16.12C979.76 14.8827 977.371 14.264 974.726 14.264C972.08 14.264 969.691 14.8827 967.558 16.12C965.424 17.3147 963.739 19 962.502 21.176C961.307 23.352 960.71 25.8267 960.71 28.6C960.71 31.3733 961.307 33.848 962.502 36.024C963.739 38.2 965.424 39.9067 967.558 41.144C969.691 42.3387 972.08 42.936 974.726 42.936ZM1021.89 16.568H1031.87V51H1021.89V16.568ZM1026.88 11.768C1025.05 11.768 1023.55 11.2347 1022.4 10.168C1021.25 9.10133 1020.67 7.77866 1020.67 6.2C1020.67 4.62133 1021.25 3.29866 1022.4 2.232C1023.55 1.16533 1025.05 0.631996 1026.88 0.631996C1028.72 0.631996 1030.21 1.144 1031.36 2.168C1032.51 3.192 1033.09 4.472 1033.09 6.008C1033.09 7.672 1032.51 9.05866 1031.36 10.168C1030.21 11.2347 1028.72 11.768 1026.88 11.768ZM1051.44 51.512C1048.59 51.512 1045.79 51.1707 1043.06 50.488C1040.33 49.7627 1038.15 48.8667 1036.53 47.8L1039.86 40.632C1041.4 41.6133 1043.25 42.424 1045.43 43.064C1047.6 43.6613 1049.74 43.96 1051.83 43.96C1056.05 43.96 1058.16 42.9147 1058.16 40.824C1058.16 39.8427 1057.59 39.1387 1056.44 38.712C1055.28 38.2853 1053.51 37.9227 1051.12 37.624C1048.31 37.1973 1045.98 36.7067 1044.15 36.152C1042.31 35.5973 1040.71 34.616 1039.35 33.208C1038.03 31.8 1037.36 29.7947 1037.36 27.192C1037.36 25.016 1037.98 23.096 1039.22 21.432C1040.5 19.7253 1042.34 18.4027 1044.72 17.464C1047.16 16.5253 1050.02 16.056 1053.3 16.056C1055.73 16.056 1058.14 16.3333 1060.53 16.888C1062.96 17.4 1064.97 18.1253 1066.55 19.064L1063.22 26.168C1060.19 24.4613 1056.88 23.608 1053.3 23.608C1051.17 23.608 1049.57 23.9067 1048.5 24.504C1047.43 25.1013 1046.9 25.8693 1046.9 26.808C1046.9 27.8747 1047.48 28.6213 1048.63 29.048C1049.78 29.4747 1051.62 29.88 1054.13 30.264C1056.95 30.7333 1059.25 31.2453 1061.04 31.8C1062.84 32.312 1064.39 33.272 1065.72 34.68C1067.04 36.088 1067.7 38.0507 1067.7 40.568C1067.7 42.7013 1067.06 44.6 1065.78 46.264C1064.5 47.928 1062.62 49.2293 1060.15 50.168C1057.72 51.064 1054.82 51.512 1051.44 51.512ZM1098.71 35.448C1098.71 33.2293 1099.2 31.3947 1100.18 29.944C1101.2 28.4933 1102.67 26.8933 1104.59 25.144C1106 23.864 1107.03 22.7973 1107.67 21.944C1108.35 21.048 1108.69 20.0453 1108.69 18.936C1108.69 17.3573 1108.05 16.12 1106.77 15.224C1105.53 14.2853 1103.87 13.816 1101.78 13.816C1099.77 13.816 1097.98 14.2427 1096.4 15.096C1094.87 15.9067 1093.56 17.0587 1092.5 18.552L1084.75 14.008C1086.55 11.2773 1088.96 9.16533 1091.99 7.672C1095.06 6.17867 1098.68 5.432 1102.87 5.432C1107.77 5.432 1111.7 6.47733 1114.64 8.568C1117.63 10.6587 1119.12 13.56 1119.12 17.272C1119.12 19.0213 1118.82 20.5573 1118.23 21.88C1117.67 23.2027 1116.97 24.3333 1116.11 25.272C1115.3 26.168 1114.24 27.2133 1112.91 28.408C1111.33 29.816 1110.18 31.0107 1109.46 31.992C1108.73 32.9307 1108.37 34.0827 1108.37 35.448H1098.71ZM1103.57 51.512C1101.82 51.512 1100.35 50.9573 1099.15 49.848C1098 48.696 1097.43 47.3093 1097.43 45.688C1097.43 44.0667 1098 42.7227 1099.15 41.656C1100.31 40.5467 1101.78 39.992 1103.57 39.992C1105.36 39.992 1106.83 40.5467 1107.99 41.656C1109.14 42.7227 1109.71 44.0667 1109.71 45.688C1109.71 47.3093 1109.12 48.696 1107.92 49.848C1106.77 50.9573 1105.32 51.512 1103.57 51.512Z" fill="url(#paint0_linear_364_2773)"/>
<defs>
<linearGradient id="paint0_linear_364_2773" x1="56.6216" y1="16.3861" x2="1025.78" y2="245.85" gradientUnits="userSpaceOnUse">
<stop stop-color="#C2DCFF"/>
<stop offset="0.50912" stop-color="#D9D9D9"/>
<stop offset="1" stop-color="#EFC167" stop-opacity="0.83"/>
</linearGradient>
</defs>
</svg>
