<svg xmlns="http://www.w3.org/2000/svg" width="751" height="81" fill="none" viewBox="0 0 751 81"><path fill="#fff" d="M110.846 12.62c.684 0 1.026-.229 1.026-1.14V9.883c0-.912-.342-1.14-1.026-1.14h-22.1c-.684 0-1.14.114-1.14.684v2.28c0 .455.456.683 1.595.683 5.468 0 7.86 1.254 7.86 3.875 0 1.938-.569 4.217-1.48 6.838-6.608 20.628-8.089 25.301-13.557 41.94L68.809 29.258l-5.924-16.297c-.683-2.165-1.367-4.217-1.823-4.217h-4.67c-.342 0-.342.228-1.14 2.393l-2.278 6.269-2.62 7.636c-5.355 15.271-9.114 26.212-11.62 32.48-1.367 3.534-1.823 4.673-3.19 7.864l-3.988-11.738C23.354 28.916 20.848 20.14 20.848 17.292c0-3.99 3.19-4.673 8.544-4.673 1.253 0 1.823-.342 1.823-.912V9.656c0-.456-.342-.912-.912-.912H.683c-.341 0-.683.342-.683.912v2.28c0 .341.456.57 1.367.57 5.127 0 6.266 2.62 12.076 18.804l2.05 5.584c2.62 7.522 9.798 28.264 12.418 36.584 1.14 3.305 1.709 5.243 2.05 6.154.228.684.456 1.026 1.254 1.026h4.443c.341 0 .57-.342 1.025-1.823.342-1.482 1.709-5.13 5.013-14.588l4.898-13.335L54 31.082l2.392-6.04c7.747 19.716 13.33 34.76 16.747 44.903 2.164 6.724 3.532 10.371 4.33 10.599h4.442c.57 0 1.025-1.026 1.823-3.647l1.595-4.9c2.164-6.953 12.19-37.724 14.81-44.22l3.189-8.206c2.279-6.04 3.646-6.952 7.519-6.952m20.391 15.386c-15.493 0-26.885 12.08-26.885 28.264 0 14.588 9.911 24.731 23.923 24.731 15.38 0 26.886-11.967 26.886-28.378 0-14.36-10.025-24.617-23.924-24.617m-1.253 49.12c-9.456 0-15.379-9.003-15.379-23.135 0-16.298 7.86-22.224 15.037-22.11v-.114c5.924 0 15.266 3.875 15.266 23.021 0 14.132-5.468 22.338-14.924 22.338m66.417-49.007c-7.405 0-12.304 3.305-19.253 12.65V30.513c0-1.026-.228-1.596-.57-1.596l-.911.114c-1.253.228-3.646.342-7.177.57l-3.076.228c-.57 0-1.823 0-3.76.114-1.025 0-1.481.228-1.481.456v2.165c0 .57.342.684 1.595.684 3.874 0 4.785 0 5.241.57.911.911 1.481 12.08 1.481 25.072 0 14.246-1.026 16.526-6.266 16.64-1.709 0-2.051.114-2.051.684v2.051c0 .456.342.912 1.253.912l25.975-.114c1.481-.114 1.595-.114 1.595-.684v-2.051c0-.57-.57-.57-3.076-.57-3.304 0-5.127-.114-8.089-.684l-.114-3.077c-.341-6.724-.455-13.334-.455-20.058 0-8.662 8.316-16.184 13.67-16.184 2.848 0 4.557 1.368 5.355 4.217.114.912.341 1.254.683 1.254h2.393c.227 0 .455-.684.455-1.026l.342-10.371c.228-1.368-.342-1.71-3.759-1.71m63.226 47.524c-6.037-.228-9.683-4.33-30.303-27.694 11.962-9.231 21.19-14.588 24.721-14.702 1.253 0 1.595 0 1.595-.912v-1.937c0-.456-.114-.57-.683-.57H234.11c-.456 0-.911 0-.911.342v2.165c0 .684.227.912 1.367.912 2.62 0 3.531.57 3.531 1.938 0 1.823-2.848 3.874-18.227 14.587 12.645 13.677 19.822 21.655 19.822 24.162 0 1.14-.683 1.71-2.392 1.71-1.595 0-1.595.227-1.595 2.62 0 .684.228 1.14 1.367 1.14l22.67-.114c.57 0 .912-.342.912-1.14v-1.709c-.228-.57-.57-.798-1.026-.798"/><path fill="#fff" d="M225.338 75.643c-2.051 0-5.013-.228-6.494-.342l-.228-8.205V37.578c0-10.03.114-28.378.684-35.444V1.108c0-.684-.114-.912-1.253-.912l-2.962.228c-4.557.342-5.241.456-12.19.57-1.253 0-1.595.114-1.595.912v1.71c0 .911.342 1.025 1.709 1.025 2.848 0 4.899 0 5.354.456 1.026 1.14 1.481 6.838 1.481 18.463v20.4c0 1.938-.114 10.599-.227 14.816l-.228 4.559c-.456 10.94-1.253 12.08-8.089 12.194-.569 0-1.025.342-1.025.912v1.71c0 .911.228 1.14 1.595 1.14l24.493-.115c1.139 0 1.367-.114 1.367-1.026v-1.71c0-.797-.569-.797-2.392-.797m115.517 0c-6.038 0-6.266 0-6.266-6.154 0-7.75.228-13.79.57-22.224.228-2.963.228-4.672.228-4.787 0-9.23-5.924-14.587-15.836-14.587-13.556 0-20.847 11.169-20.847 13.334 0 .684 2.164 1.481 2.392 1.481.342 0 .57-.228 1.025-.683 3.076-5.129 8.658-8.662 13.785-8.662 6.38 0 9.797 4.217 9.797 11.739v3.875c-10.481 2.393-29.62 6.838-29.62 21.084 0 6.268 4.899 10.94 11.393 10.94 5.582 0 10.936-2.393 17.999-8.433v6.496c0 .912.228 1.254.912 1.254.228 0 .455-.114 1.139-.114 6.494-.912 11.05-.912 13.671-.912.683 0 .911-.114.911-1.026l.114-1.823c.114-.684-.228-.798-1.367-.798m-15.38-8.32c-5.126 5.357-8.316 7.067-12.531 7.067s-6.721-2.736-6.721-7.18c0-2.394 1.367-5.357 3.417-7.408 3.076-2.963 8.089-5.129 16.291-6.838 0 4.672-.228 9.573-.456 14.36m79.404 8.319c-2.164 0-3.531-.114-5.24-.456-.114-1.823-.342-9.801-.342-11.51l.228-8.662.228-5.243c.341-10.371.683-21.654-13.557-21.654-7.291 0-13.671 3.42-20.278 11.055v-8.661c0-1.254 0-1.368-.57-1.368-.342 0-1.595.114-1.936.228l-14.81.57c-.114.114-.228.228-.228.683v1.938c0 .684.114.684.911.684 2.165 0 5.696 0 6.608 1.14 1.025 1.025 1.481 7.293 1.481 17.892 0 14.588-.57 19.603-2.279 22.224-1.025.912-1.936 1.14-4.215 1.14-2.848 0-3.076 0-3.076 1.026v1.937c0 .456.228.684 1.367.684l25.975-.114q1.025 0 1.025-.684v-1.823c0-.684-.342-1.026-1.823-1.026-4.785 0-5.012 0-7.974-.57l-.114-3.533c-.114-4.217-.228-7.408-.228-9.687l-.114-10.485c0-11.967 10.595-16.64 15.038-16.64 3.759 0 7.177 2.28 8.772 6.155 1.025 2.279 1.481 6.496 1.481 14.36 0 18.006-.912 20.4-6.608 20.514-1.937 0-2.734.228-2.734.912v1.71c0 .569.456 1.139 1.367 1.139l23.696-.114c.683 0 .911-.228.911-1.026v-1.823c-.342-.912-1.823-.912-2.962-.912m59.354 0c-2.392 0-3.418-.114-3.759-.57-.912-.911-1.481-7.977-1.481-15.043V40.883c0-16.298.113-22.794.569-39.547 0-.912 0-1.14-1.025-1.14-.456.114-.57.114-1.481.228-3.76.342-8.089.57-14.013.57-1.822 0-1.822.228-1.822 2.621 0 .912.341 1.026 1.822 1.026 6.266 0 7.178.114 7.178 12.08v13.79c-4.216-1.595-6.836-2.62-12.19-2.62-15.152 0-26.316 11.966-26.316 28.378 0 14.246 8.544 24.503 20.164 24.503 6.835 0 13.215-3.533 18.455-10.6.114 1.71.114 3.99-.113 8.434 0 1.14.341 1.368 1.594 1.368.456 0 1.254 0 2.621-.228 3.759-.342 6.721-.456 11.164-.57 1.367 0 1.709-.114 1.709-.684V76.67c0-1.026-.456-1.026-3.076-1.026m-14.354-11.397c-3.532 6.269-7.861 9.232-13.215 9.232-9 0-15.608-8.89-15.608-21.084 0-11.17 7.064-20.287 15.836-20.287 8.658 0 13.442 7.864 13.442 22.224-.113 3.989-.227 6.61-.455 9.915m80.998-24.277c-12.19-5.47-16.633-9.686-16.633-15.613 0-7.408 6.266-13.106 14.469-13.106 9.341 0 12.531 2.735 13.784 11.51l.228 1.596c.228 1.824.228 2.052 1.139 2.052h1.595c.912 0 1.253-.228 1.253-.684V9.997c-4.215-1.481-11.164-2.621-16.404-2.621-15.266 0-26.772 8.775-26.772 20.286 0 11.967 11.734 17.096 19.367 20.4 12.531 5.471 16.974 9.688 16.974 15.842 0 7.294-6.608 12.764-15.607 12.764-4.329 0-9.684-1.709-13.557-4.33-1.709-1.14-2.62-3.533-3.076-8.32-.342-2.735-.911-4.559-1.481-4.559h-2.165c-.341 0-.569.57-.569 1.026V77.01c8.088 2.85 12.873 3.647 20.164 3.647 15.949 0 27.114-8.32 27.114-20.286-.228-8.434-5.583-13.904-19.823-20.4m109.365 35.673c-1.708-.114-3.531-.228-5.468-.57l-.114-2.622c-.342-7.293-.455-12.536-.228-22.565l.114-6.952c0-9.916-4.443-14.93-12.987-14.93-6.493 0-10.936 2.165-17.886 9.231-2.392-6.154-6.721-9.231-12.759-9.231-6.835 0-13.443 3.533-18.683 10.143v-8.434c0-.683-.114-1.025-.57-1.025-1.822 0-11.848 1.14-14.24 1.14-1.367 0-1.709.113-1.709.57v1.937c0 .684.114.911.912.911 2.278 0 4.215 0 5.012.912 1.367 1.482 1.823 6.154 1.823 19.83 0 19.945-1.253 21.427-7.747 21.655-.455 0-.569.113-.569.683v2.166c0 .57.114.684 1.253.684l23.923-.114c.57 0 .912-.342.912-1.14v-1.71c0-.683-.342-.683-3.874-.911-1.139 0-2.62-.114-4.67-.228l-.114-3.647c-.228-6.61-.342-16.982-.228-23.592v-3.76c4.671-6.497 8.202-9.232 12.531-9.232 9.798 0 9.798 12.194 9.798 21.768 0 16.297-1.026 18.805-7.064 18.805-1.025 0-1.139 0-1.139.683v1.824c0 .684.228 1.14 1.025 1.14l23.355-.114c1.139 0 1.481-.228 1.481-.684v-2.28c0-.455-.342-.455-1.823-.455-2.62-.114-5.127-.228-6.95-.57v-3.761c-.113-12.195-.113-18.007.114-27.125 3.646-6.154 8.317-9.345 13.329-9.345 2.962 0 5.924 2.28 7.177 5.584 1.14 2.622 1.595 7.978 1.595 16.868 0 15.271-1.481 18.349-6.949 18.349-1.367 0-1.481 0-1.481 1.025v1.596c0 .684.456 1.14 1.253 1.14l21.873-.114c1.026 0 1.253-.114 1.253-.684V76.44c-.227-.797-.911-.797-1.481-.797m19.823-58.123c3.304 0 6.152-2.736 6.152-6.155 0-3.305-2.848-6.154-6.152-6.154-3.418 0-6.152 2.85-6.152 6.154a6.127 6.127 0 0 0 6.152 6.155m12.19 58.123c-1.254 0-3.19-.228-6.722-.684-.456-5.698-.569-13.22-.569-22.793 0-8.89.227-18.235.455-21.54v-.684c0-.684-.114-1.026-1.367-1.026-.911 0-12.303 1.026-14.696 1.026-1.936 0-2.164 0-2.164.57v1.595c0 1.14.341 1.254 2.392 1.254 6.38 0 6.494 0 6.494 9.345v17.095c0 14.93-1.026 15.956-8.317 15.956-1.025 0-1.481.228-1.481.912v1.71c.114.683.456 1.139 1.367 1.139l24.494-.114c1.253 0 1.481-.228 1.481-1.14v-1.71c0-.911-.456-.911-1.367-.911m30.189 0-6.721-.228-.228-7.407-.114-11.853v-33.05c0-10.03.569-16.184.569-21.883 0-.684-.227-.911-1.253-.911l-15.151.797c-1.709 0-1.709.228-1.709 2.166 0 1.14.228 1.367 1.709 1.367 3.076 0 4.898 0 5.468.456 1.367 1.482 1.595 22.224 1.595 34.19 0 8.092-.114 16.184-.57 24.162-.683 11.625-1.481 12.194-7.405 12.194-.911 0-1.822.114-1.822 1.14v1.482c0 1.14.683 1.14 1.708 1.14l24.494-.115c.683 0 1.139-.342 1.139-1.025v-1.482c-.114-.912-.684-1.14-1.709-1.14m45.569-26.554c2.164 0 2.962-1.026 2.962-4.217 0-9.46-8.772-16.867-19.823-16.867-13.67 0-24.835 12.764-24.835 28.264 0 14.36 9.798 24.617 23.127 24.617 12.759 0 20.05-9.915 20.05-12.878a.63.63 0 0 0-.342-.57l-1.595-1.026c-.683-.228-.911 0-1.481 1.026-2.62 4.217-7.86 6.61-12.303 6.61-6.152 0-18.684-3.761-17.772-24.959zm-17.772-17.21c6.038 0 10.481 4.674 10.481 10.714 0 1.937-.342 2.849-1.139 2.849H716.57c1.481-8.206 6.836-13.562 13.671-13.562"/></svg>