<svg width="751" height="81" viewBox="0 0 751 81" fill="none" xmlns="http://www.w3.org/2000/svg">
<path d="M110.846 12.6191C111.53 12.6191 111.872 12.3911 111.872 11.4794V9.88382C111.872 8.97208 111.53 8.74414 110.846 8.74414H88.7454C88.0618 8.74414 87.6061 8.85811 87.6061 9.42795V11.7073C87.6061 12.1632 88.0618 12.3911 89.201 12.3911C94.6693 12.3911 97.0617 13.6448 97.0617 16.266C97.0617 18.2035 96.4921 20.4828 95.5807 23.1041C88.9732 43.7323 87.4922 48.405 82.0239 65.0443L68.809 29.2584L62.885 12.961C62.2015 10.7956 61.518 8.74414 61.0623 8.74414H56.3915C56.0497 8.74414 56.0497 8.97207 55.2522 11.1375L52.9738 17.4057L50.3536 25.0416C44.9992 40.3133 41.2398 51.2542 38.7335 57.5225C37.3665 61.0555 36.9108 62.1952 35.5437 65.3863L31.5564 53.6475C23.354 28.9165 20.8478 20.1409 20.8478 17.2917C20.8478 13.3029 24.0376 12.6191 29.3919 12.6191C30.6451 12.6191 31.2147 12.2771 31.2147 11.7073V9.65588C31.2147 9.20001 30.8729 8.74414 30.3033 8.74414H0.683533C0.341766 8.74414 0 9.08604 0 9.65588V11.9352C0 12.2771 0.455689 12.5051 1.36707 12.5051C6.49356 12.5051 7.63278 15.1263 13.4428 31.3098L15.4934 36.8942C18.1136 44.4161 25.2907 65.1583 27.9109 73.478C29.0501 76.7831 29.6198 78.7205 29.9615 79.6323C30.1894 80.3161 30.4172 80.658 31.2147 80.658H35.6576C35.9994 80.658 36.2272 80.3161 36.6829 78.8345C37.0247 77.3529 38.3918 73.7059 41.6955 64.2466L46.5942 50.9123L53.9991 31.0819L56.3915 25.0416C64.1382 44.758 69.7203 59.8018 73.138 69.945C75.3025 76.6691 76.6696 80.3161 77.4671 80.544H81.91C82.4796 80.544 82.9353 79.5183 83.7328 76.897L85.3277 71.9964C87.4922 65.0443 97.5174 34.273 100.138 27.7768L103.327 19.5711C105.606 13.5308 106.973 12.6191 110.846 12.6191Z" fill="white"/>
<path d="M131.238 28.0049C115.745 28.0049 104.353 40.0855 104.353 56.269C104.353 70.8569 114.264 81 128.276 81C143.656 81 155.162 69.0334 155.162 52.622C155.162 38.262 145.137 28.0049 131.238 28.0049ZM129.985 77.1251C120.529 77.1251 114.606 68.1216 114.606 53.9896C114.606 37.6922 122.466 31.7658 129.643 31.8798V31.7658C135.567 31.7658 144.909 35.6407 144.909 54.7874C144.909 68.9194 139.441 77.1251 129.985 77.1251Z" fill="white"/>
<path d="M196.402 28.1182C188.997 28.1182 184.098 31.4232 177.149 40.7686V30.5115C177.149 29.4858 176.921 28.9159 176.579 28.9159L175.668 29.0299C174.415 29.2578 172.022 29.3718 168.491 29.5997L165.415 29.8277C164.845 29.8277 163.592 29.8277 161.655 29.9417C160.63 29.9417 160.174 30.1696 160.174 30.3975V32.5629C160.174 33.1328 160.516 33.2467 161.769 33.2467C165.643 33.2467 166.554 33.2467 167.01 33.8166C167.921 34.7283 168.491 45.8972 168.491 58.8895C168.491 73.1355 167.465 75.4149 162.225 75.5289C160.516 75.5289 160.174 75.6428 160.174 76.2127V78.2641C160.174 78.72 160.516 79.1758 161.427 79.1758L187.402 79.0619C188.883 78.9479 188.997 78.9479 188.997 78.3781V76.3266C188.997 75.7568 188.427 75.7568 185.921 75.7568C182.617 75.7568 180.794 75.6428 177.832 75.073L177.718 71.9959C177.377 65.2717 177.263 58.6616 177.263 51.9375C177.263 43.2759 185.579 35.754 190.933 35.754C193.781 35.754 195.49 37.1216 196.288 39.9708C196.402 40.8826 196.629 41.2245 196.971 41.2245H199.364C199.591 41.2245 199.819 40.5407 199.819 40.1988L200.161 29.8277C200.389 28.4601 199.819 28.1182 196.402 28.1182Z" fill="white"/>
<path d="M259.628 75.6433C253.591 75.4153 249.945 71.3125 229.325 47.949C241.287 38.7176 250.515 33.3611 254.046 33.2472C255.299 33.2472 255.641 33.2472 255.641 32.3354V30.398C255.641 29.9421 255.527 29.8281 254.958 29.8281H234.11C233.654 29.8281 233.199 29.8281 233.199 30.17V32.3354C233.199 33.0192 233.426 33.2472 234.566 33.2472C237.186 33.2472 238.097 33.817 238.097 35.1846C238.097 37.0081 235.249 39.0595 219.87 49.7725C232.515 63.4487 239.692 71.4265 239.692 73.9338C239.692 75.0734 239.009 75.6433 237.3 75.6433C235.705 75.6433 235.705 75.8712 235.705 78.2645C235.705 78.9483 235.933 79.4042 237.072 79.4042L259.742 79.2903C260.312 79.2903 260.654 78.9483 260.654 78.1506V76.4411C260.426 75.8712 260.084 75.6433 259.628 75.6433Z" fill="white"/>
<path d="M225.338 75.6431C223.287 75.6431 220.325 75.4152 218.844 75.3012L218.616 67.0955V37.5778C218.616 27.5486 218.73 9.19977 219.3 2.13375V1.10803C219.3 0.424224 219.186 0.196289 218.047 0.196289L215.085 0.424226C210.528 0.76613 209.844 0.880098 202.895 0.994066C201.642 0.994066 201.3 1.10803 201.3 1.90581V3.61533C201.3 4.52707 201.642 4.64104 203.009 4.64104C205.857 4.64104 207.908 4.64104 208.363 5.09691C209.389 6.23659 209.844 11.935 209.844 23.5597V43.96C209.844 45.8975 209.73 54.559 209.617 58.7759L209.389 63.3346C208.933 74.2755 208.136 75.4152 201.3 75.5292C200.731 75.5292 200.275 75.8711 200.275 76.4409V78.1504C200.275 79.0622 200.503 79.2901 201.87 79.2901L226.363 79.1761C227.502 79.1761 227.73 79.0622 227.73 78.1504V76.4409C227.73 75.6431 227.161 75.6431 225.338 75.6431Z" fill="white"/>
<path d="M340.855 75.6432C334.817 75.6432 334.589 75.6432 334.589 69.489C334.589 61.7391 334.817 55.6988 335.159 47.2652C335.387 44.302 335.387 42.5925 335.387 42.4785C335.387 33.2471 329.463 27.8906 319.551 27.8906C305.995 27.8906 298.704 39.0595 298.704 41.2249C298.704 41.9087 300.868 42.7065 301.096 42.7065C301.438 42.7065 301.666 42.4785 302.121 42.0227C305.197 36.8941 310.779 33.3611 315.906 33.3611C322.286 33.3611 325.703 37.5779 325.703 45.0998V48.9747C315.222 51.368 296.083 55.8128 296.083 70.0588C296.083 76.327 300.982 80.9997 307.476 80.9997C313.058 80.9997 318.412 78.6064 325.475 72.5661V79.0623C325.475 79.974 325.703 80.3159 326.387 80.3159C326.615 80.3159 326.842 80.202 327.526 80.202C334.02 79.2902 338.576 79.2902 341.197 79.2902C341.88 79.2902 342.108 79.1762 342.108 78.2645L342.222 76.441C342.336 75.7572 341.994 75.6432 340.855 75.6432ZM325.475 67.3236C320.349 72.6801 317.159 74.3896 312.944 74.3896C308.729 74.3896 306.223 71.6544 306.223 67.2096C306.223 64.8163 307.59 61.8531 309.64 59.8017C312.716 56.8385 317.729 54.6731 325.931 52.9636C325.931 57.6363 325.703 62.5369 325.475 67.3236Z" fill="white"/>
<path d="M404.879 75.6428C402.715 75.6428 401.348 75.5289 399.639 75.187C399.525 73.3635 399.297 65.3857 399.297 63.6762L399.525 55.0146L399.753 49.7721C400.094 39.401 400.436 28.1182 386.196 28.1182C378.905 28.1182 372.525 31.5372 365.918 39.1731V30.5115C365.918 29.2578 365.918 29.1439 365.348 29.1439C365.006 29.1439 363.753 29.2578 363.412 29.3718L348.602 29.9417C348.488 30.0556 348.374 30.1696 348.374 30.6255V32.5629C348.374 33.2467 348.488 33.2467 349.285 33.2467C351.45 33.2467 354.981 33.2467 355.893 34.3864C356.918 35.4121 357.374 41.6804 357.374 52.2794C357.374 66.8673 356.804 71.8819 355.095 74.5032C354.07 75.4149 353.159 75.6428 350.88 75.6428C348.032 75.6428 347.804 75.6428 347.804 76.6686V78.606C347.804 79.0619 348.032 79.2898 349.171 79.2898L375.146 79.1758C375.829 79.1758 376.171 78.9479 376.171 78.492V76.6686C376.171 75.9847 375.829 75.6428 374.348 75.6428C369.563 75.6428 369.336 75.6428 366.374 75.073L366.26 71.54C366.146 67.3232 366.032 64.1321 366.032 61.8527L365.918 51.3676C365.918 39.401 376.513 34.7283 380.956 34.7283C384.715 34.7283 388.133 37.0077 389.728 40.8826C390.753 43.1619 391.209 47.3788 391.209 55.2426C391.209 73.2495 390.297 75.6428 384.601 75.7568C382.664 75.7568 381.867 75.9847 381.867 76.6686V78.3781C381.867 78.9479 382.323 79.5178 383.234 79.5178L406.93 79.4038C407.613 79.4038 407.841 79.1758 407.841 78.3781V76.5546C407.499 75.6428 406.018 75.6428 404.879 75.6428Z" fill="white"/>
<path d="M464.233 75.6431C461.841 75.6431 460.815 75.5292 460.474 75.0733C459.562 74.1615 458.993 67.0955 458.993 60.0295V40.8829C458.993 24.5855 459.106 18.0893 459.562 1.33597C459.562 0.424225 459.562 0.196289 458.537 0.196289C458.081 0.310257 457.967 0.310258 457.056 0.424226C453.296 0.76613 448.967 0.994066 443.043 0.994066C441.221 0.994066 441.221 1.222 441.221 3.61533C441.221 4.52707 441.562 4.64104 443.043 4.64104C449.309 4.64104 450.221 4.75501 450.221 16.7217V30.5118C446.005 28.9162 443.385 27.8905 438.031 27.8905C422.879 27.8905 411.715 39.8572 411.715 56.2686C411.715 70.5146 420.259 80.7717 431.879 80.7717C438.714 80.7717 445.094 77.2387 450.334 70.1727C450.448 71.8822 450.448 74.1615 450.221 78.6063C450.221 79.746 450.562 79.9739 451.815 79.9739C452.271 79.9739 453.069 79.9739 454.436 79.746C458.195 79.4041 461.157 79.2901 465.6 79.1761C466.967 79.1761 467.309 79.0622 467.309 78.4923V76.6688C467.309 75.6431 466.853 75.6431 464.233 75.6431ZM449.879 64.2463C446.347 70.5146 442.018 73.4777 436.664 73.4777C427.664 73.4777 421.056 64.5882 421.056 52.3937C421.056 41.2248 428.12 32.1073 436.892 32.1073C445.55 32.1073 450.334 39.9711 450.334 54.3311C450.221 58.32 450.107 60.9413 449.879 64.2463Z" fill="white"/>
<path d="M530.877 39.9708C518.687 34.5004 514.244 30.2836 514.244 24.3572C514.244 16.9493 520.51 11.2509 528.713 11.2509C538.054 11.2509 541.244 13.9861 542.497 22.7617L542.725 24.3572C542.953 26.1807 542.953 26.4086 543.864 26.4086H545.459C546.371 26.4086 546.712 26.1807 546.712 25.7248V9.99724C542.497 8.51566 535.548 7.37598 530.308 7.37598C515.042 7.37598 503.536 16.1515 503.536 27.6623C503.536 39.6289 515.27 44.7575 522.903 48.0626C535.434 53.533 539.877 57.7498 539.877 63.9041C539.877 71.1981 533.269 76.6685 524.27 76.6685C519.941 76.6685 514.586 74.959 510.713 72.3378C509.004 71.1981 508.093 68.8047 507.637 64.0181C507.295 61.2828 506.726 59.4594 506.156 59.4594H503.991C503.65 59.4594 503.422 60.0292 503.422 60.4851V77.0104C511.51 79.8596 516.295 80.6574 523.586 80.6574C539.535 80.6574 550.7 72.3378 550.7 60.3711C550.472 51.9375 545.117 46.467 530.877 39.9708Z" fill="white"/>
<path d="M640.242 75.6435C638.534 75.5296 636.711 75.4156 634.774 75.0737L634.66 72.4524C634.318 65.1585 634.205 59.9159 634.432 49.8868L634.546 42.9347C634.546 33.0195 630.103 28.0049 621.559 28.0049C615.066 28.0049 610.623 30.1703 603.673 37.2363C601.281 31.082 596.952 28.0049 590.914 28.0049C584.079 28.0049 577.471 31.5379 572.231 38.148V29.7144C572.231 29.0306 572.117 28.6887 571.661 28.6887C569.839 28.6887 559.813 29.8284 557.421 29.8284C556.054 29.8284 555.712 29.9423 555.712 30.3982V32.3357C555.712 33.0195 555.826 33.2474 556.624 33.2474C558.902 33.2474 560.839 33.2474 561.636 34.1592C563.003 35.6407 563.459 40.3134 563.459 53.9896C563.459 73.934 562.206 75.4156 555.712 75.6435C555.257 75.6435 555.143 75.7575 555.143 76.3273V78.4927C555.143 79.0626 555.257 79.1765 556.396 79.1765L580.319 79.0626C580.889 79.0626 581.231 78.7207 581.231 77.9229V76.2134C581.231 75.5296 580.889 75.5296 577.357 75.3016C576.218 75.3016 574.737 75.1877 572.687 75.0737L572.573 71.4267C572.345 64.8166 572.231 54.4455 572.345 47.8353V44.0744C577.016 37.5782 580.547 34.843 584.876 34.843C594.674 34.843 594.674 47.0375 594.674 56.6109C594.674 72.9083 593.648 75.4156 587.61 75.4156C586.585 75.4156 586.471 75.4156 586.471 76.0994V77.9229C586.471 78.6067 586.699 79.0626 587.496 79.0626L610.851 78.9486C611.99 78.9486 612.332 78.7207 612.332 78.2648V75.9854C612.332 75.5296 611.99 75.5296 610.509 75.5296C607.889 75.4156 605.382 75.3016 603.559 74.9597V71.1988C603.446 59.0042 603.446 53.1918 603.673 44.0744C607.319 37.9201 611.99 34.729 617.002 34.729C619.964 34.729 622.926 37.0084 624.179 40.3134C625.319 42.9347 625.774 48.2912 625.774 57.1807C625.774 72.4524 624.293 75.5296 618.825 75.5296C617.458 75.5296 617.344 75.5296 617.344 76.5553V78.1508C617.344 78.8346 617.8 79.2905 618.597 79.2905L640.47 79.1765C641.496 79.1765 641.723 79.0626 641.723 78.4927V76.4413C641.496 75.6435 640.812 75.6435 640.242 75.6435Z" fill="white"/>
<path d="M660.065 17.5195C663.369 17.5195 666.217 14.7843 666.217 11.3652C666.217 8.06014 663.369 5.21094 660.065 5.21094C656.647 5.21094 653.913 8.06014 653.913 11.3652C653.913 14.7843 656.647 17.5195 660.065 17.5195Z" fill="white"/>
<path d="M672.255 75.6429C671.001 75.6429 669.065 75.415 665.533 74.9591C665.077 69.2607 664.964 61.7388 664.964 52.1655C664.964 43.276 665.191 33.9306 665.419 30.6255V29.9417C665.419 29.2579 665.305 28.916 664.052 28.916C663.141 28.916 651.749 29.9417 649.356 29.9417C647.42 29.9417 647.192 29.9417 647.192 30.5116V32.1071C647.192 33.2468 647.533 33.3608 649.584 33.3608C655.964 33.3608 656.078 33.3608 656.078 42.7061V59.8014C656.078 74.7312 655.052 75.7569 647.761 75.7569C646.736 75.7569 646.28 75.9848 646.28 76.6686V78.3781C646.394 79.062 646.736 79.5178 647.647 79.5178L672.141 79.4039C673.394 79.4039 673.622 79.1759 673.622 78.2642V76.5546C673.622 75.6429 673.166 75.6429 672.255 75.6429Z" fill="white"/>
<path d="M702.444 75.6434L695.723 75.4155L695.495 68.0076L695.381 56.1549V23.1042C695.381 13.075 695.95 6.92069 695.95 1.22229C695.95 0.538482 695.723 0.310547 694.697 0.310547L679.546 1.10832C677.837 1.10832 677.837 1.33626 677.837 3.27372C677.837 4.4134 678.065 4.64133 679.546 4.64133C682.622 4.64133 684.444 4.64133 685.014 5.09721C686.381 6.57879 686.609 27.321 686.609 39.2876C686.609 47.3793 686.495 55.4711 686.039 63.4488C685.356 75.0736 684.558 75.6434 678.634 75.6434C677.723 75.6434 676.812 75.7574 676.812 76.7831V78.2647C676.812 79.4044 677.495 79.4044 678.52 79.4044L703.014 79.2904C703.697 79.2904 704.153 78.9485 704.153 78.2647V76.7831C704.039 75.8714 703.469 75.6434 702.444 75.6434Z" fill="white"/>
<path d="M748.013 49.089C750.177 49.089 750.975 48.0633 750.975 44.8722C750.975 35.4128 742.203 28.0049 731.152 28.0049C717.482 28.0049 706.317 40.7693 706.317 56.269C706.317 70.6289 716.115 80.8861 729.444 80.8861C742.203 80.8861 749.494 70.9708 749.494 68.0077C749.494 67.7797 749.38 67.5518 749.152 67.4378L747.557 66.4121C746.874 66.1842 746.646 66.4121 746.076 67.4378C743.456 71.6546 738.216 74.048 733.773 74.048C727.621 74.048 715.089 70.287 716.001 49.089H748.013ZM730.241 31.8798C736.279 31.8798 740.722 36.5525 740.722 42.5928C740.722 44.5303 740.38 45.442 739.583 45.442H716.57C718.051 37.2363 723.406 31.8798 730.241 31.8798Z" fill="white"/>
</svg>
